<svg id="Layer_1" data-name="Layer 1" xmlns="http://www.w3.org/2000/svg" viewBox="0 0 1000 1000"><title>logo design Lighthouse Lekki</title><path d="M348.65,545.91h4.61v21.75h15.67v3.88H348.65Z"/><path d="M476.57,545.91h19v3.89H481.18v6.62h13.51v3.88H481.18v7.36H495.9v3.88H476.57Z"/><path d="M608.88,558.73v12.81h-4.61V545.91h4.61v11.35l11.72-11.35h5.78l-12.37,12,14.35,13.62H622.1Z"/><path d="M739.33,558.73v12.81h-4.61V545.91h4.61v11.35l11.72-11.35h5.78l-12.37,12,14.35,13.62h-6.26Z"/><path d="M870,545.91v25.63h-4.61V545.91Z"/><path d="M356.72,482.6q5.16,0,6.45,1c.86.64.79,1.9-.21,3.76q-1.29,3-1.29,20v12.47l-1.08,1.08c-.72.72-1.22,1.07-1.5,1.07a1.46,1.46,0,0,0-1,.54,20.26,20.26,0,0,1-3.12,2,54.66,54.66,0,0,1-11.82,4.09,38.66,38.66,0,0,1-13.55.64,15.88,15.88,0,0,1-3.33-.86,5.08,5.08,0,0,0-2-.43,13.07,13.07,0,0,1-4.73-1.5c-.57-.14-1.29-.36-2.15-.65a9.06,9.06,0,0,1-2.37-1.18,4.43,4.43,0,0,0-1.28-.75q-.64,0-6-4.09a49.54,49.54,0,0,1-10.11-11.61q-5-7.31-5.8-18.91-.44-9.88,1.29-14.19a8.54,8.54,0,0,0,.86-2.58q0-2.37,4.3-8.82a20.38,20.38,0,0,0,1.72-2.79q0-.43,4.3-4.62t4.73-4.2a.69.69,0,0,0,.64-.42,12.12,12.12,0,0,1,1.61-1.08c.93-.57,2-1.18,3.23-1.83s2.4-1.21,3.54-1.72,1.94-.82,2.37-1a20.23,20.23,0,0,0,3.55-1.08q2.25-.86,10-.86,9.46,0,15.05,1.72a29.4,29.4,0,0,1,7.31,3.44,16.69,16.69,0,0,0,3,1.72c1.43.86,2.26,1.61,2.47,2.26a26,26,0,0,1,.54,5.05q-.21,8.82-2.79,8.17a6.93,6.93,0,0,1-1.51-2.37,13.63,13.63,0,0,0-6-6c-2.87-1.43-4.87-2.36-6-2.79a34.59,34.59,0,0,0-18.27-1.08,31.28,31.28,0,0,0-9,3.44,4.31,4.31,0,0,1-1.72.86c-.29,0-1.86,1.29-4.73,3.87a24.57,24.57,0,0,0-2.47,2.37,25.91,25.91,0,0,0-2.37,2.9,6.8,6.8,0,0,0-1,1.61,7.31,7.31,0,0,1-1.08,1.72q-4.08,6.24-4.08,16.13a31.37,31.37,0,0,0,1.07,7.52,23.29,23.29,0,0,0,2.58,6.67,9.43,9.43,0,0,1,1.29,2.15,7.31,7.31,0,0,0,1.51,2.25,1.47,1.47,0,0,1,.64,1.08.76.76,0,0,0,.54.75,2.11,2.11,0,0,1,1,1.07q1.06,1.72,6.34,5.27c3.51,2.37,6.12,3.69,7.84,4q7.95,1.93,11.18,1.93A36.88,36.88,0,0,0,349,516.57a6.74,6.74,0,0,0,2-1.29,3.82,3.82,0,0,0,.54-1.51q.21-1.5,0-12.46V490.13L350.49,488c-1.15-2.29-1.29-3.77-.43-4.41S353.14,482.6,356.72,482.6Zm-62.13,9.89c0,.29.22.43.65.43s.64-.14.64-.43-.21-.43-.64-.43S294.59,492.21,294.59,492.49Zm1.94-15.05c0-.28-.11-.43-.33-.43s-.32.15-.32.43.11.43.32.43S296.53,477.73,296.53,477.44Zm-.65,10.75.65.22c.57,0,.86-.15.86-.43S296.74,487.76,295.88,488.19Zm.43,10.11a1,1,0,0,0,.65.53,1.2,1.2,0,0,0,.75,0c.21-.07.32-.17.32-.32a1.42,1.42,0,0,0-.43-1.07c-.43-.29-.79-.33-1.07-.11A.79.79,0,0,0,296.31,498.3Zm1.72-4.95c-.14,0-.29.11-.43.32s0,.33.32.33.54-.11.54-.33S298.32,493.35,298,493.35Zm.43-5.59c0-.28-.11-.43-.32-.43a.28.28,0,0,0-.32.32c0,.22.1.33.32.33S298.46,487.91,298.46,487.76ZM298,500.23c0,.14.22.22.65.22s.57-.11.43-.33a.75.75,0,0,0-.65-.32A.38.38,0,0,0,298,500.23Zm1.94-29c-.29.14-.36.32-.22.53a.72.72,0,0,0,.65.33c.28,0,.43-.07.43-.22C300.83,471.14,300.54,470.92,300,471.21Zm.21,34.4c.14,0,.36-.15.65-.44a2.4,2.4,0,0,0,.21-1.07c0-.14-.14-.22-.43-.22s-.47.22-.54.65A1.79,1.79,0,0,0,300.18,505.61Zm4.95-40.21a.7.7,0,0,0-.43-.64c-.43-.29-.65-.07-.65.64a.58.58,0,0,0,.65.65C305.13,466.05,305.27,465.83,305.13,465.4Zm1.5,43.64c-.14-.28-.21-.21-.21.22s.1.64.32.64a.28.28,0,0,0,.32-.32C307.06,509.37,306.92,509.19,306.63,509Zm.22-48.37c-.15,0-.26.29-.33.86s.07.86.43.86.5-.28.43-.86S307.13,460.67,306.85,460.67Zm1.29,55c.14.43.32.61.53.54s.33-.4.33-1-.15-.86-.43-.86-.29-.36,0-1.08a2.14,2.14,0,0,0-.11-1c-.08-.07-.25,0-.54.1-1.29.29-1.5.94-.64,1.94ZM309.86,457a.58.58,0,0,0-.65-.65c-.43,0-.64.19-.64.54s.21.54.64.54S309.86,457.31,309.86,457Zm0,2.79c.43-.14.64-.32.64-.53s-.21-.33-.64-.33c-.58.15-.86.43-.86.86C309.14,460,309.43,460,309.86,459.81Zm3.44-5.15a1.57,1.57,0,0,0-1.51-.11c-.57.21-.86.5-.86.86s.22.53.65.53a2.41,2.41,0,0,0,1.39-.53Q313.72,454.87,313.3,454.66Zm3,62.55c.28-.28.28-.64,0-1.07-.15-.14-.26-.18-.33-.11a1.17,1.17,0,0,0-.1.65c0,.36,0,.57.1.64S316.16,517.36,316.31,517.21Zm7.52-68.79h-.75c-.08,0,.1.14.53.43,1.15,1,1.72,1.07,1.72.21,0-.28-.1-.42-.32-.42A6.34,6.34,0,0,1,323.83,448.42Zm6.66,76.1c0,.29.22.43.65.43s.64-.18.64-.53-.21-.54-.64-.54A.57.57,0,0,0,330.49,524.52Zm2.37-77.61c-.43,0-.68.15-.75.44a.79.79,0,0,0,1,1c.29-.07.43-.32.43-.75A.57.57,0,0,0,332.86,446.91Zm4.73,1.3c0-.15-.15-.29-.43-.44a2,2,0,0,0-.86-.21c-.29,0-.43.07-.43.21q0,.87,1.29.87a1,1,0,0,0,.43-.11C337.73,448.46,337.73,448.35,337.59,448.21Zm1.07,77.17a.42.42,0,0,0-.21-.64c-.29-.14-.43,0-.43.43C338,525.89,338.23,526,338.66,525.38Zm1.08-78c0-.58-.22-.79-.65-.65s-.64.4-.64.75.21.54.64.54A.57.57,0,0,0,339.74,447.35ZM341,522.59c.57-.86.5-1.29-.22-1.29-.43,0-.79.36-1.07,1.07s-.25,1.08.11,1.08S340.6,523.16,341,522.59Zm1.72,3.22a1,1,0,0,0,.64-1.07c0-.57-.43-.86-1.29-.86s-1.29.25-1.29.75a1.34,1.34,0,0,0,.65,1.18A1.07,1.07,0,0,0,342.75,525.81Zm-.11-76.1c-.21-.14-.32-.11-.32.11s.21.32.64.32C343,450,342.86,449.86,342.64,449.71Zm1.4,73.95c.14-.14.14-.35,0-.64l-.22.21Zm.86-75c-.72,0-.79.5-.22,1.5.43.57.72.83.86.75s.22-.39.22-1C345.76,449.06,345.47,448.64,344.9,448.64Zm.21,74.59a1.3,1.3,0,0,0,.86-1c.14-.51,0-.72-.54-.65a.93.93,0,0,0-.86.86Q344.47,523.23,345.11,523.23Zm2.37-2.79a.69.69,0,0,0-.65-.43c-1,0-1.15.36-.43,1.07C346.83,521.51,347.19,521.3,347.48,520.44Zm-.43-72.67c-.72-.14-1.08,0-1.08.44,0,.28.25.43.75.43s.76-.11.76-.33S347.33,447.92,347.05,447.77Zm8.17,40c-.15-.57-.43-.5-.86.22l-.43.64a4,4,0,0,0,.43,1.4,17.2,17.2,0,0,0,.86,1.72c.28.5.5.75.64.75s.43-.07.43-.21A13.53,13.53,0,0,0,355.22,487.76Zm-.43,17.2c.71,1,1.36,1,1.93,0a1.43,1.43,0,0,0,0-1.08.87.87,0,0,0-.86-.42,1.68,1.68,0,0,0-1.07.32C354.5,504,354.5,504.39,354.79,505ZM355,453.8c1,1,1.72,1.07,2.15.21.14-.14,0-.5-.32-1.08s-.68-.86-1-.86a2.2,2.2,0,0,0-.86.54C354.57,453,354.57,453.36,355,453.8Zm.22,42.13a.87.87,0,0,0,0-1.5.35.35,0,0,0-.33.21,1.21,1.21,0,0,0-.1.54,1.27,1.27,0,0,0,.1.54A.35.35,0,0,0,355.22,495.93Zm1.5,22.36c.14-.14.14-.4,0-.75s-.36-.54-.64-.54a.86.86,0,0,0-.86.43.69.69,0,0,0,.21.86Q356.29,518.73,356.72,518.29Zm-.43-20.64a.51.51,0,0,0-.32-.54q-.33-.11-.54.33-.21.21,0,1a4.71,4.71,0,0,0,.65,1.4c.28.43.5.57.64.43s.46-.25.54-.75a1,1,0,0,0-.43-1.08A.89.89,0,0,1,356.29,497.65Zm.86,16.34c.43-.43.61-.72.54-.86s-.4-.07-1,.21-.86.58-.86.86S356.29,514.56,357.15,514Zm1.72-7.74c.43-.86.29-1.29-.43-1.29-.43,0-.64.11-.64.32a3.56,3.56,0,0,1-.22,1c-.14.29-.14.5,0,.64A1,1,0,0,0,358.87,506.25Z"/><path d="M435.62,522.8q1.71,3.66.86,4.41c-.58.5-2.73.83-6.45,1s-5.81-.22-6.67-.65a2,2,0,0,1-.64-3.22q1.71-2.37,1.93-22.36,0-11.38-.11-13.54c-.07-1.44-.32-2.22-.75-2.37s-6.66-.43-18.27-.43-17.56.15-17.84.43q-1.08.87-.86,18.27,0,15.7.86,17.2c1.29,2.73,1.75,4.48,1.39,5.27s-1.82,1.26-4.4,1.4a29.2,29.2,0,0,1-6.24-.22c-3.58-.28-4.66-1.5-3.22-3.65a11.3,11.3,0,0,0,1.5-4.41q.65-3.33.43-34.5t-1-33.75a9.37,9.37,0,0,0-1.18-3,2.1,2.1,0,0,1-.43-1.51q0-1.94,7.31-1.93a17.21,17.21,0,0,1,5.81.64c1,.43,1.53.86,1.61,1.29s-.32,1.51-1.18,3.23q-1.51,3.86-1.29,14.83c0,6.45.24,9.85.75,10.21s6.63.54,18.38.54h17.63l.64-.86q.43-.85.43-11-.21-12.67-1.93-15.26a3.74,3.74,0,0,1-.43-1.72c0-.57.57-1.07,1.72-1.5a18.73,18.73,0,0,1,6.77-.65c2.79.14,4.69.58,5.7,1.29a1.19,1.19,0,0,1,.32,1.08c-.08.42-.68,2.22-1.83,5.37q-.64,1.5-.64,6v28.81l.21,32.67Zm-55.68-12.25c-.29.14-.43.32-.43.54s.14.32.43.32.43-.18.43-.54S380.22,510.41,379.94,510.55Zm1.29,11.82c.14-.28.14-.5,0-.64h-.86c-.58.14-.79.36-.65.64a.76.76,0,0,0,.75.43A.78.78,0,0,0,381.23,522.37Zm.43-72.66c-.43-.71-.94-.86-1.51-.43a.72.72,0,0,0-.11,1c.22.36.76.39,1.62.11C381.94,450.21,381.94,450,381.66,449.71Zm-.22,54.82q-2.37,3-.21,3a.84.84,0,0,0,1-.75,1.14,1.14,0,0,1,1-1,1.38,1.38,0,0,0,1.08-.86,2,2,0,0,0-.22-1.5C383.59,502.6,382.73,503,381.44,504.53Zm-.21-43.43a.56.56,0,0,0,.64-.64,1.06,1.06,0,0,0-.54-1,.58.58,0,0,0-.86.11.82.82,0,0,0,0,1A.91.91,0,0,0,381.23,461.1Zm-.22,2.15a1.06,1.06,0,0,0-.32-.75c-.22-.21-.32-.11-.32.32s.1.65.32.65S381,463.4,381,463.25Zm.65,16.34q-.44-.85-1.08-.21a.57.57,0,0,0,.65.64C381.66,480,381.8,479.88,381.66,479.59ZM383,498.72a2.43,2.43,0,0,0-.76-.42,1.26,1.26,0,0,0-.86-.11c-.21.07-.32.18-.32.32s.29.36.86.65,1,.35,1.18.21S383.23,499,383,498.72Zm.64-36.33c0-.28-.25-.5-.75-.64a1.39,1.39,0,0,0-1.08,0c-.21.14-.25.36-.1.64A4.08,4.08,0,0,0,383.59,462.39Zm0,62.56c1-.43,1.15-.78.43-1.07a2.82,2.82,0,0,0-1.29.54c-.57.35-.86.68-.86,1s.07.4.22.32Zm-1.29-57.4q-.21.22,0,.33a1,1,0,0,0,.43.1.44.44,0,0,0,.32-.1.45.45,0,0,0,.11-.33.43.43,0,0,0-.86,0Zm.22,2.8c0,.14.17.14.53,0s.54-.25.54-.32-.18-.11-.54-.11S382.52,470.06,382.52,470.35Zm.86,22.14c.14,0,.21-.14.21-.43a1,1,0,0,0-.32-.75c-.22-.22-.4-.25-.54-.11s-.14.4,0,.75S383.09,492.49,383.38,492.49Zm-.22-8.6c.43.72.93.43,1.51-.86a3.14,3.14,0,0,0,0-2.26c-.29-.78-.54-1.18-.76-1.18s-.25.22-.1.65a3,3,0,0,1-.33,1.93C383.12,483,383,483.61,383.16,483.89Zm4.3-4.94c0-.29-.18-.43-.54-.43a2.73,2.73,0,0,1-1.5-.86c-.65-.57-1.18-.65-1.61-.22s-.4.47-.33.54a1.47,1.47,0,0,0,.76.11,1.86,1.86,0,0,1,1.5.86C386.6,479.81,387.17,479.81,387.46,479Zm-2.58,6.66c0,.43.11.54.32.32a.91.91,0,0,0,.33-.64c0-.22-.11-.32-.33-.32S384.88,485.18,384.88,485.61Zm14.19-4.08c-.29.29-.14.43.43.43s.86-.18.86-.54-.11-.54-.32-.54S399.5,481.1,399.07,481.53Zm4.08-.65c1.15-1.29,1.08-1.93-.21-1.93-.58,0-.86.36-.86,1.07a2.14,2.14,0,0,1-.43,1.51c-.29.29-.29.43,0,.43S402.44,481.6,403.15,480.88Zm8.82.65a.38.38,0,0,0,.43.43.43.43,0,1,0,0-.86A.38.38,0,0,0,412,481.53Zm8.38.64c0,.29.25.43.75.43s.68-.18.54-.54a.76.76,0,0,0-.75-.53C420.53,481.53,420.35,481.74,420.35,482.17Zm6.24,32.89c-.29.29-.11.43.53.43s.79-.14.43-.43A.65.65,0,0,0,426.59,515.06Zm1.72-43.64a.39.39,0,0,0-.43-.43.38.38,0,0,0-.43.43.38.38,0,0,0,.43.43A.38.38,0,0,0,428.31,471.42Zm-.22,25.37q-.64.65-.54.75c.08.08.33,0,.76-.1.71-.29,1.07-.58,1.07-.87S428.81,496.36,428.09,496.79Zm.65-5.59c.86.72,1.29.79,1.29.22,0-.29-.29-.57-.86-.86s-.72-.5-.86-.22C428,490.49,428.16,490.77,428.74,491.2Zm1.93-27.3c.57.57.86.43.86-.43,0-.43-.32-.72-1-.86a6.73,6.73,0,0,1-1.61-.54c-.43-.21-.64,0-.64.54s.07.86.21.86a1.77,1.77,0,0,1,1.08.21A1.7,1.7,0,0,1,430.67,463.9ZM428.74,505a1.49,1.49,0,0,0,1-.54c.36-.35.22-.54-.43-.54s-1,.19-1,.54S428.45,505,428.74,505Zm0,7.74c.57.29.93.29,1.07,0a1,1,0,0,0-.11-1q-.31-.53-1,0C428.31,512.09,428.31,512.41,428.74,512.7Zm.64-12.9a.43.43,0,1,0-.43-.43A.38.38,0,0,0,429.38,499.8Zm.22-52a1.89,1.89,0,0,0-.54,1,2,2,0,0,0,0,1c.07.29.18.43.32.43.29,0,.43-.22.43-.64a1.64,1.64,0,0,1,.54-1.19c.36-.35.39-.68.11-1S429.88,447.2,429.6,447.77Zm.64,9.46c-.29-.42-.57-.35-.86.22,0,.43.18.64.54.64s.54,0,.54-.1A5.27,5.27,0,0,0,430.24,457.23Zm1.51-5.8c.28-.86.21-1.29-.22-1.29-1,0-1.29.5-.86,1.51S431.32,452.43,431.75,451.43Z"/><path d="M506.77,450.36a9,9,0,0,1-1.29,6.45c-.57.85-1.43,1-2.58.42q-3.43-1.94-12.25-1.93l-7.31-.22-.65,1.08q-.65.85-.75,31.92t.65,33.76a12.08,12.08,0,0,0,1.39,3.54q1.72,2.58-3,3.44a31.16,31.16,0,0,0-3.22.22,32.85,32.85,0,0,1-4.73-.22c-1.86-.57-2.94-1.07-3.22-1.5s-.15-1,.43-2.15a20.23,20.23,0,0,0,1.82-7.63q.33-4.62.33-29.56l-.22-31-.64-.86q-1.72-1.73-9.25-1.29t-11.61,2.36a1.5,1.5,0,0,1-1.93-.1c-.58-.5-.94-2.05-1.08-4.62s0-4.23.43-4.95v-.21c.43-1,1.76-1.58,4-1.72s9.78-.22,22.68-.22h2.58q26.65.22,27.52.43C505.84,446.13,506.48,447.63,506.77,450.36Zm-55,1.5c0,.14.14.21.43.21s.43-.1.43-.32-.15-.32-.43-.32A.38.38,0,0,0,451.74,451.86Zm3-.86c-.15-.29-.29-.43-.43-.43a3.38,3.38,0,0,0-.22,1.08q0,.42.33.42C454.64,452.07,454.75,451.72,454.75,451Zm4.3,1.07c.43,0,.64-.07.64-.21a1.48,1.48,0,0,0-1.29-1.08.7.7,0,0,0-.21.87A.87.87,0,0,0,459.05,452.07Zm4.08-3.43c0,.28.11.36.32.21a.62.62,0,0,0,.33-.54.29.29,0,0,0-.33-.32C463.24,448,463.13,448.21,463.13,448.64Zm2.58.64a.66.66,0,0,0,.65.11.51.51,0,0,0,.43-.54c0-.29-.22-.43-.65-.43C465.28,448.42,465.14,448.71,465.71,449.28Zm8,72.88c-.29.14-.4.47-.33,1s.25.75.54.75.5-.18.65-.54a1,1,0,0,0-.11-1A.56.56,0,0,0,473.67,522.16Zm1.29-5.59a1.21,1.21,0,0,0,.86.43c.28,0,.57-.22.86-.65s.39-.89.32-1a1.45,1.45,0,0,0-.75-.11Q474.53,515.28,475,516.57Zm.43-26.44c-.29.57.07.64,1.07.21q.65-.21.54-.75a.66.66,0,0,0-.75-.54c-.43,0-.65.07-.65.22A3.62,3.62,0,0,1,475.39,490.13Zm.43-37.84.21.22.65-.22C476.53,452.15,476.25,452.15,475.82,452.29Zm1.5,29.67c.86,0,1.29-.25,1.29-.76s-.18-.75-.54-.75a1.79,1.79,0,0,0-1.18.65,2.91,2.91,0,0,0-.43.75C476.46,481.92,476.75,482,477.32,482Zm.43,9.46c-.29-.57-.64-.65-1.07-.22a.57.57,0,0,0,.64.65C477.75,491.85,477.89,491.71,477.75,491.42Zm-.21-32.9c-.43,0-.69.08-.76.22s0,.5.33,1.07c.57,1.29,1.14,1.51,1.72.65a1.29,1.29,0,0,0-.22-1.18A1.27,1.27,0,0,0,477.54,458.52Zm.42,49a.69.69,0,0,0-.75.64,1,1,0,0,0,.54,1.08c.86.72,1.29.86,1.29.43C478.9,508.26,478.54,507.54,478,507.54Zm0,3a.78.78,0,0,0-.53,1,1.12,1.12,0,0,0,1,1c.14,0,.21-.35.21-1.07a2.24,2.24,0,0,0-.11-.86Q478.4,510.34,478,510.55Zm0,10.1c.87.72,1.3.65,1.3-.21,0-.14-.19-.29-.54-.43a1.17,1.17,0,0,0-1,0C477.46,520.15,477.54,520.37,478,520.65ZM479,449.06c-1.29,0-1.72.51-1.29,1.51s1,.86,1.72,0S480.19,449.06,479,449.06Zm-1.29,46c0,.43.11.68.32.75s.47-.1.76-.53c.28-.86.07-1.29-.65-1.29C477.89,494,477.75,494.36,477.75,495.07ZM479,456.16c-.14-.14-.43-.07-.86.21a.6.6,0,0,0,.43.22C478.9,456.45,479,456.3,479,456.16Zm.64,29.67c.43,0,.51-.29.22-.86a.38.38,0,0,0-.43-.43c-.86-.43-1.29-.22-1.29.64,0,.43,0,.68.11.75s.25.11.54.11A3.58,3.58,0,0,1,479.68,485.83Zm-1.07-32.25c0,.29.11.43.32.43s.33-.07.33-.21-.11-.29-.33-.44S478.61,453.29,478.61,453.58Zm7.74-4.3c-.29-.43-.43-.36-.43.22v.42c.29.29.46.29.54,0A.65.65,0,0,0,486.35,449.28Zm4.94.64a1,1,0,0,0-.21-1.07.71.71,0,0,0-.86.21,3.49,3.49,0,0,0-.22,1.08c0,.57.29.72.86.43A2.21,2.21,0,0,0,491.29,449.92Zm2.8.65c.57-.29.57-.65,0-1.07-.72-.58-1.08-.5-1.08.21C493,450.71,493.37,451,494.09,450.57Zm3.22,1.72a2.89,2.89,0,0,0,2.8.64,11.47,11.47,0,0,0-1.08-1.28,8.37,8.37,0,0,0-.86-.76,1.36,1.36,0,0,0-.64-.32c-.29,0-.43.21-.43.64A2.45,2.45,0,0,0,497.31,452.29Zm5.38-2.37c.14.44.32.65.54.65s.24-.18.1-.54a2.46,2.46,0,0,1-.21-.75c0-.14-.11-.22-.32-.22S502.54,449.35,502.69,449.92Z"/><path d="M578.79,522.8c1.15,2.44,1.43,3.91.86,4.41s-2.72.83-6.45,1-5.8-.22-6.66-.65a2.05,2.05,0,0,1-.65-3.22q1.73-2.37,1.94-22.36,0-11.38-.11-13.54c-.08-1.44-.32-2.22-.75-2.37q-.87-.42-18.28-.43t-17.84.43q-1.08.87-.86,18.27,0,15.7.86,17.2c1.29,2.73,1.75,4.48,1.4,5.27s-1.83,1.26-4.41,1.4a29.13,29.13,0,0,1-6.23-.22c-3.59-.28-4.66-1.5-3.23-3.65a11.27,11.27,0,0,0,1.51-4.41q.65-3.33.43-34.5t-1-33.75a9.91,9.91,0,0,0-1.18-3,2.1,2.1,0,0,1-.43-1.51c0-1.29,2.43-1.93,7.31-1.93a17.14,17.14,0,0,1,5.8.64c1,.43,1.54.86,1.61,1.29s-.32,1.51-1.18,3.23q-1.5,3.86-1.29,14.83,0,9.68.75,10.21t18.38.54h17.63l.65-.86c.28-.57.43-4.23.43-11q-.23-12.67-1.94-15.26a3.74,3.74,0,0,1-.43-1.72c0-.57.57-1.07,1.72-1.5A18.76,18.76,0,0,1,574,445c2.8.14,4.7.58,5.7,1.29a1.16,1.16,0,0,1,.32,1.08c-.07.42-.68,2.22-1.83,5.37a18.38,18.38,0,0,0-.64,6v28.81l.22,32.67Zm-55.68-12.25c-.29.14-.43.32-.43.54s.14.32.43.32.43-.18.43-.54S523.4,510.41,523.11,510.55Zm1.29,11.82c.14-.28.14-.5,0-.64h-.86c-.57.14-.79.36-.64.64a.76.76,0,0,0,.75.43A.77.77,0,0,0,524.4,522.37Zm.43-72.66c-.43-.71-.93-.86-1.5-.43a.71.71,0,0,0-.11,1c.21.36.75.39,1.61.11C525.12,450.21,525.12,450,524.83,449.71Zm-.21,54.82q-2.37,3-.22,3a.85.85,0,0,0,1-.75,1.13,1.13,0,0,1,1-1,1.35,1.35,0,0,0,1.07-.86,2,2,0,0,0-.21-1.5C526.76,502.6,525.91,503,524.62,504.53Zm-.22-43.43a.57.57,0,0,0,.65-.64,1.08,1.08,0,0,0-.54-1c-.36-.21-.65-.18-.86.11a.79.79,0,0,0,0,1A.88.88,0,0,0,524.4,461.1Zm-.21,2.15a1,1,0,0,0-.33-.75c-.21-.21-.32-.11-.32.32s.11.65.32.65S524.19,463.4,524.19,463.25Zm.64,16.34c-.29-.57-.64-.64-1.07-.21a.56.56,0,0,0,.64.64C524.83,480,525,479.88,524.83,479.59Zm1.29,19.13a2.36,2.36,0,0,0-.75-.42,1.27,1.27,0,0,0-.86-.11c-.22.07-.32.18-.32.32s.28.36.86.65,1,.35,1.18.21S526.41,499,526.12,498.72Zm.64-36.33c0-.28-.25-.5-.75-.64a1.36,1.36,0,0,0-1.07,0c-.22.14-.25.36-.11.64A4.09,4.09,0,0,0,526.76,462.39Zm0,62.56c1-.43,1.15-.78.44-1.07a2.82,2.82,0,0,0-1.29.54c-.58.35-.86.68-.86,1s.07.4.21.32Zm-1.28-57.4q-.22.22,0,.33a.94.94,0,0,0,.43.1.37.37,0,0,0,.43-.43.39.39,0,0,0-.43-.43A.38.38,0,0,0,525.48,467.55Zm.21,2.8q0,.21.54,0c.35-.14.53-.25.53-.32s-.18-.11-.53-.11S525.69,470.06,525.69,470.35Zm.86,22.14c.14,0,.21-.14.21-.43a1,1,0,0,0-.32-.75c-.21-.22-.39-.25-.53-.11s-.15.4,0,.75S526.26,492.49,526.55,492.49Zm-.21-8.6c.42.72.93.43,1.5-.86a3,3,0,0,0,0-2.26c-.29-.78-.54-1.18-.75-1.18s-.25.22-.11.65a3.06,3.06,0,0,1-.32,1.93C526.3,483,526.19,483.61,526.34,483.89Zm4.3-4.94c0-.29-.19-.43-.54-.43a2.78,2.78,0,0,1-1.51-.86c-.64-.57-1.18-.65-1.61-.22s-.4.47-.32.54a1.42,1.42,0,0,0,.75.11,1.85,1.85,0,0,1,1.5.86C529.77,479.81,530.35,479.81,530.64,479Zm-2.58,6.66c0,.43.1.54.32.32a.94.94,0,0,0,.32-.64.28.28,0,0,0-.32-.32C528.16,485,528.06,485.18,528.06,485.61Zm14.18-4.08c-.29.29-.14.43.43.43s.86-.18.86-.54-.1-.54-.32-.54S542.67,481.1,542.24,481.53Zm4.09-.65c1.14-1.29,1.07-1.93-.22-1.93-.57,0-.86.36-.86,1.07a2.1,2.1,0,0,1-.43,1.51c-.29.29-.29.43,0,.43S545.61,481.6,546.33,480.88Zm8.81.65a.43.43,0,1,0,.43-.43A.38.38,0,0,0,555.14,481.53Zm8.39.64c0,.29.25.43.75.43s.68-.18.54-.54a.78.78,0,0,0-.76-.53C563.7,481.53,563.53,481.74,563.53,482.17Zm6.23,32.89c-.29.29-.11.43.54.43s.78-.14.43-.43A.66.66,0,0,0,569.76,515.06Zm1.72-43.64a.43.43,0,1,0-.86,0,.43.43,0,1,0,.86,0Zm-.21,25.37c-.43.43-.62.68-.54.75s.32,0,.75-.1q1.08-.44,1.08-.87C572.41,496.29,572,496.36,571.27,496.79Zm.64-5.59c.86.72,1.29.79,1.29.22,0-.29-.29-.57-.86-.86s-.72-.5-.86-.22S571.34,490.77,571.91,491.2Zm1.94-27.3c.57.57.86.43.86-.43,0-.43-.33-.72-1-.86a6.58,6.58,0,0,1-1.61-.54c-.43-.21-.65,0-.65.54s.07.86.22.86a1.71,1.71,0,0,1,1.07.21A1.75,1.75,0,0,1,573.85,463.9ZM571.91,505a1.48,1.48,0,0,0,1-.54c.35-.35.21-.54-.43-.54s-1,.19-1,.54S571.62,505,571.91,505Zm0,7.74q.86.43,1.08,0a1,1,0,0,0-.11-1c-.22-.35-.54-.35-1,0S571.48,512.41,571.91,512.7Zm.65-12.9a.43.43,0,0,0,0-.86.43.43,0,0,0,0,.86Zm.21-52a1.89,1.89,0,0,0-.54,1,2.26,2.26,0,0,0,0,1c.07.29.18.43.33.43s.43-.22.43-.64a1.63,1.63,0,0,1,.53-1.19c.36-.35.4-.68.11-1S573.06,447.2,572.77,447.77Zm.65,9.46c-.29-.42-.58-.35-.86.22,0,.43.17.64.53.64s.54,0,.54-.1A4.61,4.61,0,0,0,573.42,457.23Zm1.5-5.8q.44-1.29-.21-1.29c-1,0-1.29.5-.86,1.51C574.13,452.51,574.49,452.43,574.92,451.43Z"/><path d="M671.23,497q-2.58,9.45-5.81,13.11a2.71,2.71,0,0,0-.64,1.18c0,.22-.21.54-.65,1s-1.14,1.22-2.14,2.36a20.13,20.13,0,0,1-3,3.23q-1.93,1.73-4,3.33a29.79,29.79,0,0,1-3.55,2.47,49.43,49.43,0,0,1-8.81,3.87c-.86.15-3,.47-6.34,1a38.66,38.66,0,0,1-5.38.64,5.76,5.76,0,0,0-1.4-.1c-.57-.14-1.93-.36-4.08-.65a39.13,39.13,0,0,1-11-3.22,11.09,11.09,0,0,0-2.25-.86c-.22,0-.61-.32-1.18-1s-.94-1-1.08-1q-1.29,0-6.66-5.16a20.28,20.28,0,0,1-3.55-4.19,18,18,0,0,0-1.94-2.69A12.34,12.34,0,0,1,596.2,508a11.08,11.08,0,0,1-1.29-2.47,9.9,9.9,0,0,0-1-2.26,8.2,8.2,0,0,1-1-2.47,11.07,11.07,0,0,0-.86-2.69q-1.73-5.37-1.19-14.19t2.91-14.19a72.05,72.05,0,0,1,3.65-7.31c.14-.14.86-1,2.15-2.58q5.16-6.66,9.68-9.24c.71-.43,1.29-.79,1.72-1.07a9.33,9.33,0,0,1,2.36-1.29c1.29-.58,2.61-1.15,4-1.72s2.47-1,3.33-1.29q8.38-2.16,13.54-1.29a67.3,67.3,0,0,1,8.6,1.5,53.81,53.81,0,0,1,7.31,3.23,35.51,35.51,0,0,1,11.61,9.24c1,1.15,1.72,1.93,2.15,2.36a20.56,20.56,0,0,1,2.36,3.87c.43,1.15.79,1.8,1.08,1.94s.61.79,1,1.93a17.44,17.44,0,0,0,1.5,3.44,6.32,6.32,0,0,1,1,3,12.64,12.64,0,0,0,.64,3.44q.64,2.16.65,8.92A45.48,45.48,0,0,1,671.23,497Zm-77-9.68c-.43,0-.65.25-.65.75s.22.76.65.76.64-.25.64-.76S594.7,487.33,594.27,487.33Zm.43,7.1q1.29.65,1.29,0a2,2,0,0,0-.22-.86,2.19,2.19,0,0,0-.64-.76c-.29-.21-.51-.25-.65-.1C593.62,493.28,593.69,493.86,594.7,494.43ZM596.42,474a.7.7,0,0,0-.65.43c-.14.29,0,.43.43.43s.65-.14.65-.43A.39.39,0,0,0,596.42,474ZM596,486a.42.42,0,0,0,.1.32c.07.08.25.11.54.11a1.35,1.35,0,0,0,.86-.64.49.49,0,0,0-.11-.33.86.86,0,0,0-.53-.1A1.38,1.38,0,0,0,596,486Zm1.07,12.26c-.29,0-.43.28-.43.86s.07.93.22,1.07a1.87,1.87,0,0,0,1.39.32c.5-.07.76-.32.76-.75a1,1,0,0,0-.33-.75,2.49,2.49,0,0,0-.86-.54A2.54,2.54,0,0,0,597.06,498.3ZM599,505c0-.86-.43-1.15-1.29-.86-.43.14-.51.4-.22.75a1.24,1.24,0,0,0,1,.54C598.82,505.39,599,505.25,599,505Zm.64-31.17c-.86,0-1.29.36-1.29,1.07.29.29.68.18,1.18-.32S600.07,473.79,599.64,473.79Zm-.21-6.24c0,.86.14,1.37.43,1.51s.5-.07.64-.65a7.87,7.87,0,0,0,.43-1.07,4.21,4.21,0,0,0-.11-1.29q-.11-.21-.75,0A1.67,1.67,0,0,0,599.43,467.55Zm1.29-3.65c-.15,0-.29.11-.43.32s-.08.32.21.32.43-.1.43-.32S600.86,463.9,600.72,463.9Zm60.83,14.4c-1.28-4.87-2.65-8.09-4.08-9.67-.14-.29-.61-1-1.4-2.15a40.83,40.83,0,0,0-3.33-4.09,36.56,36.56,0,0,0-4.84-3.87q-3.12-2.14-4-2.15a2.43,2.43,0,0,1-1.4-.53,7.63,7.63,0,0,0-2.26-1c-1.58-.43-2.58-.72-3-.86-1-.14-3-.29-6-.43a28.39,28.39,0,0,0-12,2.58,30.87,30.87,0,0,0-9,6.66c-.58.58-1.29,1.37-2.15,2.37s-1.58,1.9-2.15,2.69a3.74,3.74,0,0,0-.86,1.61c0,.14-.26.5-.76,1.07a5.1,5.1,0,0,0-1.07,2.05c-.22.78-.61,1.9-1.18,3.33a36.36,36.36,0,0,0-1.4,6.66,20.32,20.32,0,0,0-.11,6.24c.29,1.57.57,3.08.86,4.51a20.89,20.89,0,0,0,1.18,4.62,32.6,32.6,0,0,0,2.37,5.16,38,38,0,0,0,2.69,4.19A46.81,46.81,0,0,0,613,512.7a10.14,10.14,0,0,0,1.61,1.18c.79.51,1.54,1,2.26,1.4a4.57,4.57,0,0,0,1.29.64,13.9,13.9,0,0,1,2.15,1,11.48,11.48,0,0,0,3.33,1.18c.93.15,2,.36,3.33.65a23,23,0,0,0,11.61-.43,27.87,27.87,0,0,0,4.52-1.61,6,6,0,0,1,2-.76,2.61,2.61,0,0,0,1.4-.64c.57-.43,1.57-1.15,3-2.15a35.27,35.27,0,0,0,5.48-5.27c2.22-2.5,3.33-4.05,3.33-4.62a2.82,2.82,0,0,1,.54-1.29,38.15,38.15,0,0,0,2-5.48,30.8,30.8,0,0,0,1.51-9.57A37.54,37.54,0,0,0,661.55,478.3Zm-60,31.82c.86.86,1.29.72,1.29-.43,0-.57-.22-.86-.65-.86s-.68.14-.75.43A1.14,1.14,0,0,0,601.58,510.12Zm1.29-46a1.67,1.67,0,0,0-1.19,1,1.4,1.4,0,0,0,.11,1.4c.29.57.46.86.54.86a5.83,5.83,0,0,0,.75-1.51c.57-1.14.72-1.72.43-1.72Zm.21,44.72c0,.29.22.43.65.43s.64-.14.64-.43-.21-.43-.64-.43S603.08,508.54,603.08,508.83ZM605,460.46c0-.29-.11-.43-.33-.43s-.32.14-.32.43.11.43.32.43S605,460.75,605,460.46Zm0,55.68c0,.14.24.21.75.21s.75-.1.75-.32-.25-.32-.75-.32S605,515.85,605,516.14Zm3.22-3.87c.43-.14.5-.39.22-.75s-.58-.4-.86-.11-.33.54-.11.75A.59.59,0,0,0,608.24,512.27Zm1.08,3.44c0,.14.1.21.32.21s.32-.18.32-.53-.11-.47-.32-.33A.72.72,0,0,0,609.32,515.71ZM610,453.8c0,.14.14.21.43.21h1a.77.77,0,0,0,.75-.43q.21-.21,0-.54c-.14-.21-.54-.21-1.18,0S610,453.51,610,453.8Zm.43,2.57a.38.38,0,0,0,.43-.43c0-.28-.07-.43-.21-.43s-.29.15-.43.43S610.1,456.37,610.39,456.37Zm2.36,63a.87.87,0,0,0,.87-.43c.14-.28-.08-.68-.65-1.18s-1-.61-1.18-.32-.18.68.1,1.18S612.47,519.36,612.75,519.36ZM616,451a1.07,1.07,0,0,1,0,1.29c-.29.43-.29.64,0,.64a6.58,6.58,0,0,0,1.07-.21c1-.29,1.08-1,.22-2.15-.57-.86-1-1-1.29-.43A.93.93,0,0,0,616,451Zm8.17,73.74.43-.22c-.15-.14-.36-.14-.65,0Zm2.58-75.89c-.72,0-.79.29-.22.86.14.15.33.15.54,0a.61.61,0,0,0,.32-.54C627.37,449,627.16,448.85,626.73,448.85Zm-.43,73.95c0,.29.11.43.32.43s.32-.14.32-.43-.1-.43-.32-.43S626.3,522.52,626.3,522.8Zm5.59.22c.71.72,1.07.57,1.07-.43a1.81,1.81,0,0,0-.21-1c-.15-.21-.36-.25-.65-.11C631.24,521.8,631.17,522.3,631.89,523Zm0-73.31a1.06,1.06,0,0,0,.21.54.65.65,0,0,0,.54.32c.22,0,.32-.07.32-.21A1,1,0,0,0,631.89,449.71ZM642,451c-.43-.57-.79-.64-1.07-.22a1.25,1.25,0,0,0,.32.65,1.4,1.4,0,0,0,.64.54c.22.07.36.07.43,0S642.28,451.57,642,451Zm4.52,69.87c1.14,1.29,1.79,1.36,1.93.21a3.16,3.16,0,0,0-.86-1.5.94.94,0,0,0-1.29-.22C645.86,519.65,645.93,520.15,646.51,520.87ZM651,456.59a1.75,1.75,0,0,0-.43,1.29c.29,0,.72-.36,1.29-1.07l.43-.65Zm.65-2.37q-.23-.42-.54-.42a.28.28,0,0,0-.32.32c0,.21.17.32.53.32S651.81,454.37,651.67,454.22Zm3.22,58.48c-.57,0-.64.64-.21,1.93l.21.43c.57.58.86.51.86-.21a3.62,3.62,0,0,0-.21-1.08C655.25,513.06,655,512.7,654.89,512.7Zm.43,4.73a.68.68,0,0,0,.43-.65c0-.43-.29-.35-.86.22a.4.4,0,0,0,.11.32A.44.44,0,0,0,655.32,517.43Zm4.3-56.54c-.57,0-.86.21-.86.64,0,.72.25,1.12.75,1.19s.83-.25,1-1a.63.63,0,0,0-.86-.86Zm1.93,7.31c-.43.43-.46.64-.1.64s.68-.25,1-.75.35-.75.21-.75S662.13,467.63,661.55,468.2Zm1.94,35.47c.72-.14,1.11-.39,1.18-.75s-.25-.5-1-.43-1.11.29-1.18.64S662.77,503.67,663.49,503.67Zm.86,2.36c0-.71-.22-1.07-.65-1.07-1,0-1.36.57-1.07,1.72a.7.7,0,0,0,.86.54C663.92,507.15,664.21,506.75,664.35,506Zm-1.29-40.63a.74.74,0,0,0,0,.76.73.73,0,0,0,.64.32.58.58,0,0,0,.65-.65.66.66,0,0,0-.54-.75A.62.62,0,0,0,663.06,465.4Zm1.29,11c0,.29.18.43.54.43s.46-.14.32-.43-.32-.43-.54-.43S664.35,476.08,664.35,476.37Zm1.5-3.44-.43.21c0,.58.15.86.43.86s.43-.07.43-.21A2.19,2.19,0,0,0,665.85,472.93Zm.22,4.51c-.43.29-.65.54-.65.75s.22.33.65.33.64-.25.64-.76S666.5,477.16,666.07,477.44Zm.64,20c0-.58-.1-.83-.32-.76s-.39.33-.54.76.15.82.43.75S666.71,497.87,666.71,497.44Zm.65-15.48a.88.88,0,0,0,.54-.11.44.44,0,0,0,.1-.32,1,1,0,0,0-.75-.22c-.36,0-.54.11-.54.32S666.93,482,667.36,482Zm.43,3.44c.28,0,.43-.11.43-.33s-.15-.32-.43-.32-.43.11-.43.32S667.5,485.4,667.79,485.4Zm.64,3.44a1.62,1.62,0,0,0,.11-1.51c-.21-.43-.47-.28-.75.43a4.85,4.85,0,0,0-.43,1.51C667.5,489.7,667.86,489.56,668.43,488.84Zm0-9.89c0-.43-.1-.65-.32-.65s-.32.18-.32.54.11.54.32.54S668.43,479.24,668.43,479Z"/><path d="M746.68,447.77a5,5,0,0,1-.64,2.15,15.38,15.38,0,0,0-1.51,6.45q-.21,4.1-.21,23.44,0,18.48-.22,23.75c-.14,3.52-.5,5.84-1.07,7a3.73,3.73,0,0,0-.65,1.61,6.76,6.76,0,0,1-.75,2.15c-.5,1.08-.86,1.61-1.07,1.61s-.33.15-.33.43q0,.87-3,4.09a26.52,26.52,0,0,1-4.08,3.87,44.94,44.94,0,0,1-9.46,4.08q-4.73,1.08-14.4.43a26.17,26.17,0,0,1-8.17-2.15,24.7,24.7,0,0,1-5.81-3.44,22.81,22.81,0,0,1-4.19-4.51,40.31,40.31,0,0,1-3.54-6.24,28.48,28.48,0,0,1-1.73-8.06q-.42-4.83-.21-26.33V456.37l-.86-3.65q-1.08-3.87-1.5-3.87c-.29-.14-.43-.46-.43-1a1.35,1.35,0,0,1,.64-1.18c.86-.72,2.72-1.14,5.59-1.29a22.45,22.45,0,0,1,6.66.43,3.12,3.12,0,0,1,2,1.61c.21.65.17,1-.11,1.19-.72.42-1.44,2.22-2.15,5.37q-.22,1.73-.22,26.23,0,18.27.11,21.71a30,30,0,0,0,.54,5.37,19.56,19.56,0,0,0,6.66,9.25,14.31,14.31,0,0,0,4,1.83,27.16,27.16,0,0,0,8.17,1,28.66,28.66,0,0,0,8.06-.86q5.8-2.14,7.74-5.16c.57-.86,1.08-1.61,1.51-2.25s.93-1.47,1.5-2.48l.65-1.5.21-54-1.29-2.37c-1.15-2.29-1.43-3.68-.86-4.19s2.94-.75,7.09-.75a33.63,33.63,0,0,1,6,.32A1.52,1.52,0,0,1,746.68,447.77Zm-59.33,33.76c0,.29.18.43.54.43s.53-.14.53-.43-.18-.43-.53-.43S687.35,481.24,687.35,481.53Zm.64-29.67a.66.66,0,0,0,.65.11.51.51,0,0,0,.43-.54.84.84,0,0,0-.65-.86.68.68,0,0,0-.64.43A.71.71,0,0,0,688,451.86Zm2.37,23.43c0-.57-.25-.86-.75-.86a.76.76,0,1,0,0,1.51C690.11,475.94,690.36,475.72,690.36,475.29Zm-1.51,3.23c0,.29.15.36.43.21s.43-.32.43-.54-.14-.32-.43-.32S688.85,478.09,688.85,478.52Zm1.08-23.86c-1,.42-1.29.85-.86,1.28q.21.44,1.29.33c.71-.07,1.11-.18,1.18-.33a8.33,8.33,0,0,0,.11-1.93c.14-2.15-.15-3.37-.86-3.65a4.47,4.47,0,0,0-.11,2C690.75,453.62,690.5,454.37,689.93,454.66Zm-.65,13.11a.86.86,0,0,0,.11.54c.07.07.18,0,.32-.11a.38.38,0,0,0,.43-.43C690,467.2,689.71,467.2,689.28,467.77Zm.86,14.83c-.28-.14-.46-.14-.53,0s0,.36.32.65a.73.73,0,0,0,.54.21.29.29,0,0,0,.32-.32C690.79,482.92,690.57,482.75,690.14,482.6Zm-.43,22.14q.43,1.31,1.29,0c.29-.28.15-.5-.43-.64a1.39,1.39,0,0,0-.86-.11C689.57,504.07,689.57,504.31,689.71,504.74Zm.65,4.95a1,1,0,0,0,1,.32c.35-.07.53-.25.53-.54,0-.71-.43-.93-1.29-.64C690.14,509,690.07,509.26,690.36,509.69Zm0-45.58c0,.29.18.43.54.43a.47.47,0,0,0,.53-.53.47.47,0,0,0-.53-.54C690.54,463.47,690.36,463.68,690.36,464.11Zm1.07,11.18a1.41,1.41,0,0,0-.64.86,1,1,0,0,0,.21,1.08.6.6,0,0,0,.86.11,1.13,1.13,0,0,0,.43-1,3.16,3.16,0,0,0-.1-1.18C692.11,475.11,691.86,475.15,691.43,475.29Zm-.43-5.37a.38.38,0,0,0,.43-.43c0-.29-.1-.43-.32-.43s-.32.14-.32.43S690.86,469.92,691,469.92Zm.22,23.65c-.15-.15-.25-.15-.32,0a.86.86,0,0,0-.11.43c0,.57.11.86.32.86s.32-.18.32-.54A1.05,1.05,0,0,0,691.22,493.57Zm0-14.62a1.1,1.1,0,0,0,.43,1c.28.22.5.19.64-.1.29-.14.33-.4.11-.76a.91.91,0,0,0-.75-.53A.38.38,0,0,0,691.22,479Zm.21,22.36a.64.64,0,0,0,.76.32,1,1,0,0,0,.75-.54c.14-.43.14-.72,0-.86s-.47-.07-1,.22S691.29,501,691.43,501.31Zm.86-41.93a.38.38,0,0,0,.43-.43c0-.28-.21-.43-.64-.43s-.58.15-.43.43A.68.68,0,0,0,692.29,459.38Zm.43,52.89c.43-.14.65-.36.65-.65s-.5-.14-1.08.43a.45.45,0,0,0,.11.33C692.47,512.45,692.58,512.41,692.72,512.27Zm.86,3.22c.29,0,.5-.28.65-.86a1.39,1.39,0,0,0,.11-.86c-.08-.14-.33-.14-.76,0a1,1,0,0,0-.53.65,1.19,1.19,0,0,0,0,.75A.48.48,0,0,0,693.58,515.49Zm6.24,3.87c.28,0,.43-.28.43-.86l-.43-.21C699.39,519,699.39,519.36,699.82,519.36Zm3.44,4.52c.57,0,.89-.07,1-.22a2.3,2.3,0,0,0,.1-.86,1.39,1.39,0,0,0-.75-1.07.85.85,0,0,0-1,.21,1.75,1.75,0,0,0-.43,1.29C702.18,523.66,702.54,523.88,703.26,523.88Zm2.36,1.5c.14-.14,0-.28-.43-.43s-.86-.21-.86.22.18.47.54.53A.6.6,0,0,0,705.62,525.38Zm1.72-2.79a.38.38,0,0,0,.43.43c.29,0,.43-.18.43-.54s-.14-.54-.43-.54S707.34,522.16,707.34,522.59Zm2.15,1.29c.14-.29,0-.43-.43-.43a.56.56,0,0,0-.64.64C708.56,524.67,708.92,524.6,709.49,523.88Zm8,1.93c.28,0,.14-.32-.43-1s-.94-.89-1.08-.75a.4.4,0,0,0,0,.54,4.81,4.81,0,0,0,.65.75A1.21,1.21,0,0,0,717.45,525.81Zm2.15-3.87.43-.21c-.15-.14-.36-.14-.65,0Zm11-2.58a.9.9,0,0,0,.86.33.5.5,0,0,0,.43-.54c0-.43-.14-.65-.43-.65a1,1,0,0,0-.75.33C730.45,519,730.42,519.22,730.56,519.36Zm5.81-4.51c0,.14.21.14.64,0s.64-.25.64-.32-.21-.11-.64-.11S736.37,514.56,736.37,514.85Zm.43-22.36c.57.15.85,0,.85-.43,0-.14-.21-.14-.64,0S736.51,492.35,736.8,492.49Zm1.28-33.32c-.28-.29-.5-.36-.64-.22-.29.15-.22.43.21.86s.51.51.65.22A.7.7,0,0,0,738.08,459.17Zm-.43,22.36q0,.44.33.21a.63.63,0,0,0,.32-.54.29.29,0,0,0-.32-.32C737.76,480.88,737.65,481.1,737.65,481.53Zm.43-27.09c.15.43.36.64.65.64s.5-.21.64-.64,0-.5-.43-.64-.71-.15-.86,0S737.94,454.15,738.08,454.44ZM740,491c.14-.58.14-.93,0-1.08s-.47,0-1,.32-.75.69-.75,1a.5.5,0,0,0,.43.54.91.91,0,0,0,.75-.11A1.65,1.65,0,0,0,740,491Zm.64-27.31c-.14-.71-.5-1-1.07-.86a1.65,1.65,0,0,0-1,1,1.46,1.46,0,0,0-.11,1.18.43.43,0,0,0,.65.22,7.22,7.22,0,0,1,1.18-.43C740.84,464.62,741,464.26,740.66,463.68Zm-1.07-5.37a1.68,1.68,0,0,0,0-1.18c-.14-.5-.32-.76-.54-.76s-.32.36-.32,1.08.11.93.32,1.07S739.45,458.6,739.59,458.31Zm-.65,11.82.43-.21c-.14-.14-.35-.14-.64,0Zm.86,3.66c0,.43.18.57.54.43a.76.76,0,0,0,.54-.75.48.48,0,0,0-.54-.54C740,472.93,739.8,473.22,739.8,473.79Zm.43,12.68c.43-.14.68-.57.76-1.29s-.08-1-.43-.86-.58.54-.65,1.18S740,486.47,740.23,486.47Zm.54,19.24c.22-.21.18-.32-.11-.32s-.43.22-.43.64A.83.83,0,0,0,740.77,505.71Z"/><path d="M809.24,501.09a21,21,0,0,1,.54,9.35,20.17,20.17,0,0,1-3.12,8.71,19.93,19.93,0,0,1-13.11,9.24,44.75,44.75,0,0,1-8.49.75q-5.7.12-7.42-.53a9.34,9.34,0,0,0-2.15-.65c-.86,0-3.37-1.14-7.52-3.44a29.18,29.18,0,0,1-4.2-3.87c-2.08-2.15-3.11-3.44-3.11-3.87a7.77,7.77,0,0,0-.86-2.15q-1.93-3.64-2.37-10.32-.21-5.37,2.58-6.44a5.23,5.23,0,0,1,4.52.32,3.67,3.67,0,0,1,2.15,3.33,20.8,20.8,0,0,0,1.93,9,16.32,16.32,0,0,0,3.66,4.51,16.88,16.88,0,0,0,5.91,3.55,20.67,20.67,0,0,0,7,1.18q10.53,0,14.19-7.74a10.32,10.32,0,0,0,.86-4.94q-.65-8.39-13.76-14.4c-1.43-.58-3.94-1.79-7.52-3.66a41.6,41.6,0,0,1-8.81-5.91,27.18,27.18,0,0,1-3.77-3.76,2.64,2.64,0,0,0-.75-1,12.43,12.43,0,0,1-1.72-3.12l-1.5-3v-6.45q0-6.45.75-7.95c.5-1,.86-1.51,1.07-1.51s.33-.21.33-.64.64-1.43,1.93-3a23.63,23.63,0,0,1,5.81-5,13.37,13.37,0,0,1,4.08-1.71,9.63,9.63,0,0,0,2.58-.54,24.61,24.61,0,0,1,5.48-.75,23.77,23.77,0,0,1,7.2.64q3.43,1.08,3.87,1.29a16.11,16.11,0,0,1,3.12,1.51q2.25,1.28,4.19,2.15a5.24,5.24,0,0,1,2.47,2.36q.54,1.29.54,5.8,0,5.16-.75,6.35a4.13,4.13,0,0,1-1.18,1.39,1.1,1.1,0,0,1-1,0,.83.83,0,0,1-.54-.86,10,10,0,0,0-1.39-2.68c-.94-1.51-1.51-2.26-1.72-2.26a15.08,15.08,0,0,1-3-1.94,15.37,15.37,0,0,0-3-1.93,13.86,13.86,0,0,1-2.48-.86c-3.3-1.58-7-1.68-11.07-.32s-6.55,3.54-7.41,6.55a12.06,12.06,0,0,0,1.93,11.4,25.53,25.53,0,0,0,3.12,3,7.84,7.84,0,0,0,2.47,1.72,1.48,1.48,0,0,1,1,.54,21,21,0,0,0,3.76,2.14l3.87,1.94,4.08,2c1.86,1,3.73,2.12,5.59,3.33a51.1,51.1,0,0,1,4.62,3.34c1.22,1,1.83,1.72,1.83,2.15a.67.67,0,0,0,.43.64c.57.15,1.33,1,2.26,2.58A23,23,0,0,1,809.24,501.09ZM763,502.81c-1-.86-1.65-1-1.93-.43,0,.29.28.72.86,1.29s1,.72,1.39.43S763.59,503.38,763,502.81Zm-.64,3.87c-.86.57-.65.86.64.86h.86l-.43-.65C763,506.46,762.66,506.39,762.38,506.68Zm1.29,5.37q1.5,1.08,1.5,0,0-.42-.75-1a2.37,2.37,0,0,0-1.18-.54C762.81,510.84,763,511.34,763.67,512.05Zm.21,4.3c.14.29.29.43.43.43s.22-.14.22-.43a.39.39,0,0,0-.43-.43C763.81,515.92,763.74,516.07,763.88,516.35Zm1.94-44.93c.43.58.71.43.86-.43v-.43c0-.14-.19-.1-.54.11S765.67,471.14,765.82,471.42Zm2.36-2.36c.72-.43.93-.86.65-1.29q-.44-1.5-2.37,0a1,1,0,0,0-.21,1.5C766.82,469.85,767.46,469.78,768.18,469.06Zm-.64-9a1.21,1.21,0,0,0-1.51-.22c0,.43.29.65.86.65a.86.86,0,0,0,.43-.11A.35.35,0,0,0,767.54,460Zm1.07,2.36c-.14-.43-.93-.28-2.36.43-.15.15-.08.22.21.22a5.51,5.51,0,0,0,1.29-.22C768.32,462.68,768.61,462.54,768.61,462.39Zm-1.07,55.47c.43,0,.64-.14.64-.43s-.18-.43-.54-.43a.76.76,0,0,0-.75.43.4.4,0,0,0,.11.32C767.07,517.83,767.25,517.86,767.54,517.86Zm1.72-62.35c-.72.58-.72,1,0,1.3.86.14,1.36.1,1.5-.11s0-.54-.43-1S769.54,455.23,769.26,455.51ZM769,463.9q0,.21.54.21c.35,0,.54-.1.54-.32s-.19-.32-.54-.32S769,463.61,769,463.9Zm1.51,56.32q.42-.42,0-1.29c-.29-.57-.58-.78-.86-.64s-.51.57-.65,1.29.14,1.15.43,1.29S770.12,520.8,770.55,520.22Zm-.43-66.64c0,.57.24.86.75.86s.75-.11.75-.32a1.87,1.87,0,0,0-.54-1c-.36-.43-.61-.64-.75-.64S770.12,452.86,770.12,453.58Zm1.29,23.11c.14-.21.1-.32-.11-.32s-.32.21-.32.64C771.12,477,771.26,476.9,771.41,476.69Zm1.29,45.47a.38.38,0,0,0,.53,0,1,1,0,0,0,.33-.86c0-.29-.22-.43-.65-.43a.5.5,0,0,0-.54.43A.9.9,0,0,0,772.7,522.16Zm4.08.21-.64-.43q-1.08,0-1.08.75c0,.51.25.65.75.44A1.84,1.84,0,0,0,776.78,522.37Zm0-70.72c-.57-.72-1-.79-1.29-.22a1.32,1.32,0,0,0,.21.75,2,2,0,0,0,.54.54,1.09,1.09,0,0,0,.54.21C777.07,452.93,777.07,452.51,776.78,451.65Zm.86,29.88a.43.43,0,1,0,.43-.43A.38.38,0,0,0,777.64,481.53Zm.43-30.1a.86.86,0,0,0,.11.43c.07.14.18.14.32,0a.76.76,0,0,0,.43-.75c0-.36-.14-.54-.43-.54S778.07,450.86,778.07,451.43Zm.86,33.11a1.49,1.49,0,0,0,1.5.43c0-.14-.21-.36-.64-.65a2.15,2.15,0,0,0-1.08-.43C778.57,483.89,778.64,484.11,778.93,484.54Zm2.15,39.12c.72-.71.93-1.14.64-1.29a2.28,2.28,0,0,0-2.79.22c-.43.29-.36.72.22,1.29l.85.86Zm.43-40.84c0,.14.11.21.32.21a.28.28,0,0,0,.32-.32.28.28,0,0,0-.32-.32C781.62,482.39,781.51,482.53,781.51,482.82Zm1.93-32.25a2.68,2.68,0,0,0,1.08-.43,2.88,2.88,0,0,0,.21-1.5c-.14-1-.28-1.51-.43-1.51s-.43.47-.43,1-.43.93-1.29,1.29-1.11.64-.75.86A3.27,3.27,0,0,0,783.44,450.57ZM794,491.85a2.62,2.62,0,0,0,1.5-.43q.64-.44,0-1.08c-.43-.43-1-.43-1.61,0s-.9.79-.75,1.08A.86.86,0,0,0,794,491.85Zm2.58,2.58a.38.38,0,0,0,.43.43.39.39,0,0,0,.43-.43A.38.38,0,0,0,797,494,.38.38,0,0,0,796.56,494.43Zm.64-40c-.43,0-.43.36,0,1.07.72,1.3,1.22,1.44,1.51.43S798.49,454.44,797.2,454.44Zm2.37,0,.43.22c.57.14.86.07.86-.22Q800.86,453.59,799.57,454.44Zm1.5,42.35c.14.57.61.86,1.4.86s1.18-.21,1.18-.64-.29-.72-1.29-.86A3.56,3.56,0,0,0,801,496C800.75,496.11,800.78,496.36,801.07,496.79Zm1.72-40.85c-1.15-1-1.72-1.07-1.72-.21,0,.43.65.72,1.94.86C803.44,456.59,803.36,456.37,802.79,455.94Zm-.64,58.91a.61.61,0,0,0,.75.32.66.66,0,0,0,.54-.75.58.58,0,0,0-.65-.65C801.79,513.77,801.57,514.13,802.15,514.85Zm1.29-9.68c.57.72.86.86.86.44a1.74,1.74,0,0,0-.22-.65c-.29-.43-.53-.57-.75-.43S803.15,504.89,803.44,505.17Zm2.79,3.87c.57-.43.68-.75.32-1a2,2,0,0,0-1.61,0c-.72.21-1.07.53-1.07,1,0,.15.14.26.43.33a2.21,2.21,0,0,0,1,0A3.58,3.58,0,0,0,806.23,509Zm-1.07-8.17c-.15.15-.15.36,0,.65s.32.43.53.43.33-.22.33-.64-.11-.68-.33-.76S805.3,500.59,805.16,500.87Z"/><path d="M877.82,522.16c0,2.58-.29,4.16-.86,4.73L876.1,528l-24.51.22q-24.51,0-27.09-.22c-1.72-.14-2.72-.35-3-.64-.86-.72-.86-1.72,0-3q1.72-2.37,1.72-36.33.22-31.17-.43-34.72c-.43-2.37-.86-3.76-1.29-4.2a2.29,2.29,0,0,1-.64-1.71c0-1,1.07-1.62,3.22-1.83s9.53-.4,22.15-.54h25.15l1.29,1.08a4.83,4.83,0,0,1,1.07,1.39,12.47,12.47,0,0,1,.22,3.12,38.54,38.54,0,0,1-.54,4.19,3.89,3.89,0,0,1-1.07,2.26,1.37,1.37,0,0,1-1.62.21c-.71-.28-1.93-.78-3.65-1.5l-2.58-1.07h-15q-11.18,0-13.22.21a6.92,6.92,0,0,0-2.69.64q-.64.87-.64,8.28t.32,7.95c.22.36,1.47.65,3.76.87a24.14,24.14,0,0,1,5,.86,8.46,8.46,0,0,0,2.26.53,5.37,5.37,0,0,1,2.15.86c1.86,1,4.55,1.54,8.06,1.62s6.13-.4,7.85-1.4a5.07,5.07,0,0,1,4.62-.33,4.21,4.21,0,0,1,2.69,3.12,5.88,5.88,0,0,1-.86,4.3q-2.58,3.66-13.33,4.09a29.18,29.18,0,0,1-13.11-2.37q-5-2.14-7.53-1.5c-.86.29-1.39,1.29-1.61,3s-.32,6.88-.32,15.47V517l1.07.64q1.08.65,17,.86h9.67c2.44,0,4.44,0,6-.1a17.79,17.79,0,0,0,3.55-.43c.78-.22,1.61-.47,2.47-.76s1.5-.75,1.5-1,.36-.33,1.08-.33Q877.59,515.92,877.82,522.16Zm-52.67-72.24c-.15.29-.18.47-.11.54s.25.11.54.11a1.3,1.3,0,0,0,.86-.86.88.88,0,0,0-.11-.54.77.77,0,0,0-1.18.75Zm.21,57.4c0,.15.14.22.43.22s.43-.18.43-.54-.14-.46-.43-.32A.68.68,0,0,0,825.36,507.32Zm1.72-23c.29.58.57.86.86.86s.43-.28.43-.86a1.82,1.82,0,0,0-1.07-1.5c-1-.43-1.51-.5-1.51-.22a.38.38,0,0,0,.43.43C826.51,483,826.79,483.46,827.08,484.32Zm-.64,1.51c-.43.14-.5.57-.22,1.29s.86,1.14,1.29.86a.89.89,0,0,0,.22-.65,2.65,2.65,0,0,0-.32-1.5C827.19,485.54,826.87,485.54,826.44,485.83Zm.86,26c.43,0,.64-.11.64-.32s-.18-.4-.53-.54-.62-.14-.76,0C826.08,511.55,826.29,511.84,827.3,511.84ZM826.44,491a.38.38,0,0,0,.43.43c.28,0,.43-.18.43-.54s-.15-.54-.43-.54S826.44,490.56,826.44,491Zm.86-34.4a2.43,2.43,0,0,0-.65.43c.14.29.33.43.54.43s.39-.14.54-.43c.14-.14.14-.25,0-.32A1,1,0,0,0,827.3,456.59Zm1.07,41.06a1.4,1.4,0,0,0-1.5,0c0,.29.28.43.86.43a.89.89,0,0,0,.43-.11A.33.33,0,0,0,828.37,497.65Zm0,3.22c0-.57-.25-.85-.75-.85a.75.75,0,1,0,0,1.5C828.12,501.52,828.37,501.31,828.37,500.87Zm1.08-30.52c.28-1.15-.15-1.72-1.29-1.72-1.44,0-1.58.5-.43,1.5C828.59,471,829.16,471.07,829.45,470.35Zm-.65,33.53a2.07,2.07,0,0,0-1.29.54,1,1,0,0,0-.43,1.19c.29.85,1,.85,2.15,0a1,1,0,0,0,.54-1.08C829.7,504.1,829.37,503.88,828.8,503.88Zm1.08,7.74a.72.72,0,0,0-1-.1c-.36.21-.47.46-.32.75q.42,1.08,1.29.21C830.16,512.05,830.16,511.77,829.88,511.62ZM829,524.09a1.18,1.18,0,0,0,.86.11.51.51,0,0,0,.43-.54c0-.43-.29-.64-.86-.64C828.59,523,828.44,523.38,829,524.09Zm.21-46.65c-.29,0-.43.18-.43.54a.54.54,0,0,0,1.08,0C829.88,477.62,829.66,477.44,829.23,477.44Zm.65-9.67a.68.68,0,0,0-.43.64c0,.72.21.65.64-.21Zm.86,50.73c-.15-.43-.36-.64-.65-.64s-.46.25-.53.75.07.79.43.86a.68.68,0,0,0,.75-.21A.74.74,0,0,0,830.74,518.5Zm-.65-18.7c-.29-.29-.43-.21-.43.22a3.2,3.2,0,0,0,.22.85l.21.86.22-.86A1.7,1.7,0,0,0,830.09,499.8Zm.65-48.37q.42-.21,0-.54c-.29-.21-.51-.25-.65-.11a.4.4,0,0,0,0,.54C830.23,451.54,830.45,451.57,830.74,451.43Zm-.22,23a.69.69,0,0,0,.65-.43c.14-.28,0-.43-.32-.43s-.54.15-.54.43S830.38,474.43,830.52,474.43Zm1.29,47.08c.72.58,1.22.51,1.51-.21,0-.43-.29-.65-.86-.65a.7.7,0,0,0-.86.22C831.31,521.16,831.38,521.37,831.81,521.51Zm1.08,2.8c0,.14.14.21.43.21s.43-.1.43-.32-.15-.32-.43-.32A.38.38,0,0,0,832.89,524.31Zm.21-72.66a.63.63,0,0,0,.54.42c.22,0,.32-.14.32-.42a1,1,0,0,0-.32-.87c-.21-.14-.4-.07-.54.22S833,451.5,833.1,451.65Zm1.72-1.94c0-.43-.18-.65-.53-.65a.54.54,0,0,0,0,1.08C834.64,450.14,834.82,450,834.82,449.71Zm1.51-.86c0-.29-.18-.43-.54-.43s-.54.11-.54.32.18.32.54.32S836.33,449,836.33,448.85Zm.21,2.58a.68.68,0,0,0-.64-.75c-.43-.07-.65.14-.65.64s.22.72.65.65S836.54,451.72,836.54,451.43Zm2.37,72.23c.14.15.39.11.75-.11a1,1,0,0,0,.54-1c0-.43-.29-.65-.86-.65-.29,0-.51.22-.65.65A1,1,0,0,0,838.91,523.66Zm5.37,1.08c0-.57-.25-.86-.75-.86s-.75.29-.75.86.14.86.43.86a.6.6,0,0,0,.86-.43A.63.63,0,0,1,844.28,524.74Zm1.29-74c-.43-.14-.68-.17-.75-.1a1.42,1.42,0,0,0-.11.75c0,.43.25.64.75.64s.76-.17.76-.53S846,450.93,845.57,450.78Zm.65,28.17a.61.61,0,0,0-.76-.32c-.36.07-.53.18-.53.32a1,1,0,0,0,.32.86c.21.14.46.07.75-.22S846.36,479.09,846.22,479Zm8.38,2.58a.67.67,0,0,0-.64.43.88.88,0,0,0,0,.86.41.41,0,0,0,.64.21,1.39,1.39,0,0,0,.65-.86A.57.57,0,0,0,854.6,481.53Zm2.15-34c-.57,0-.86.15-.86.43s.18.43.54.43a.77.77,0,0,0,.75-.43c.14-.14.14-.25,0-.32A1,1,0,0,0,856.75,447.56Zm0,75.24c0,.43.5.51,1.51.22l.64-.43c.14-.43.14-.72,0-.86s-.54,0-1.18.32S856.75,522.66,856.75,522.8Zm1.94-42.35c0,.43,0,.65.1.65s.25-.14.54-.43a1,1,0,0,1,1.51,0,1.64,1.64,0,0,0,.64.21l.22-.21c0-.14-.15-.36-.43-.65s-.83-.53-1.19-.32a1,1,0,0,1-1,.11C858.83,479.67,858.69,479.88,858.69,480.45Zm1.93,1.94q.21-.21,0-.33a1.21,1.21,0,0,0-.54-.1.64.64,0,0,0-.43.1.48.48,0,0,0-.1.33.79.79,0,0,0,1.07,0Zm.43,39.55.43-.21c-.14-.14-.36-.14-.64,0Zm3.44-43.42c-.86,0-1,.29-.32.86s1,.5,1-.22A.57.57,0,0,0,864.49,478.52Zm.43,3a.7.7,0,0,0-.22-.86c-.28-.29-.43-.22-.43.21S864.63,481.53,864.92,481.53Zm4.73,40.2c.29-.29.21-.5-.22-.65a1.18,1.18,0,0,0-1.18.22c-.36.29-.46.5-.32.64C868.36,522.66,868.93,522.59,869.65,521.73Zm.43-71c-1.15,0-1.79.22-1.94.65a.42.42,0,0,0,.22.64,1.71,1.71,0,0,1,.64.22,3.19,3.19,0,0,0,2.15-.22c1-.71.86-1.14-.43-1.29Zm-.22,73.53c0,.14.15.21.43.21s.43-.1.43-.32-.14-.32-.43-.32A.38.38,0,0,0,869.86,524.31Z"/><path d="M335.24,538.69a5.34,5.34,0,0,0-5.36-3.41,5.11,5.11,0,0,0-3.42,1.58c-1.14,1.06-1.7,1.75-1.7,2.08s-.25.57-.74.73a2.23,2.23,0,0,0-1.21,1.34c-.33.73-.66,1.1-1,1.1s-.73.36-1.22,1.09-.94,1.1-1.34,1.1a.86.86,0,0,0-.85.49q-.26.5-3.91,2.8c-2.43,1.55-4.14,2.56-5.12,3-.81.33-1.79.78-2.92,1.34a21.08,21.08,0,0,1-4,1.47c-1.54.4-3.13.85-4.75,1.34a17.58,17.58,0,0,1-2.36.39l.69-33.29,3,0,2.51,0-2.12-1.31c-2.35-1.46-4.71-2.9-7.1-4.3s-4.79-2.77-7.24-4.07c2.19,1.7,4.44,3.32,6.7,4.91,1.61,1.13,3.23,2.23,4.85,3.33h-1.09c-1.16,0-2.32,0-3.49,0-2.32,0-4.65,0-7,.09-1.17,0-2.33.06-3.49.1s-2.33.08-3.49.13c-2.33.11-4.65.24-7,.44,2.33.2,4.65.34,7,.44l3.49.14c1.16,0,2.32.08,3.49.09,2.32.06,4.65.08,7,.09h1.73l.2,9.91-16,1.12L294,534l.26,12.6L278,547.78l16.33,1.14.13,6.36c-1.54.16-3.54.32-6,.48q-7.56.5-8.54.25a36.81,36.81,0,0,0-5.6-.73l-1.37-.14v-31.7h-1.82a2.29,2.29,0,0,1-1.24-4.23l13.95-9a2.34,2.34,0,0,1,1.25-.37V490.5l-31.31-1.94,31.31-1.93V476.12h-3.16a.9.9,0,0,1-.9-.91v-8.76a4.06,4.06,0,0,1,4.06-4.06V450.07l-25.69-1.62,25.69-1.63v-31.3L264.83,413l18.78-2.38,15-1.47-13.58-1.32v-3.43l-22-2.51,13.91-1.59,21.71-2.12-13.58-1.33v-9.23l-23.73-2.89,17.84-2.16-10.76-3.2h7.45V363H268.4l16.65-4.95v-7.22s-1.1-.74-3.51-2.67a25.35,25.35,0,0,0,3.51.41V327.26L281,348s-18,8.69-18,10.72c0,1.88,3.09,1.95,3.57,1.95h.07v21.67h-7.23v20h-.17c-.62,0-2.74.33-2.74,4.87,0,4.38,3.21,4.77,4.35,4.77a3.35,3.35,0,0,0,.4,0L244.65,547.6l-.37-.13a13.22,13.22,0,0,0-3.29-1.22,6.19,6.19,0,0,1-2.32-1,6.09,6.09,0,0,0-2.44-1,11.72,11.72,0,0,1-3.17-1q-6.34-2.69-9.51-3.66a30.89,30.89,0,0,1-3.41-1.22c-1.63-.65-3.78-1.38-6.47-2.2s-5.2-1.62-7.56-2.44a18.17,18.17,0,0,0-5-1.21c-1,0-1.55-.13-1.71-.37s-1.3-.53-3.42-.86q-1.45-.48-5.6-1.46h-1.22q-2.21-.24-2.56-6.09t-.37-40.49v-17.8q0-61.69.24-63.16a50.69,50.69,0,0,1,2.2-7.8c.49-1.14.4-2-.25-2.44-1.13-.81-4-1.22-8.53-1.22a17.59,17.59,0,0,0-5.85.73q-2.69,1.46-1.22,3.41a16,16,0,0,1,1.7,3.91l.74,2.92v62.19q0,61.95-.74,63.16c-.48.82-2.52,1.71-6.09,2.68a47.27,47.27,0,0,0-8.05,3.17c-3.41,1.63-5.45,2.85-6.1,3.66-.48.49-.73,1.55-.73,3.17a5.77,5.77,0,0,0,1,3.66q2.43,2.68,7.31,1a11.83,11.83,0,0,0,3.42-1.46,1.4,1.4,0,0,1,1-.49,11.44,11.44,0,0,0,2.93-1.22c1.62-.81,5-1.17,10.12-1.09s8.45.32,10,.73,3.13.77,4.75,1.1a61.64,61.64,0,0,1,11.71,3.41,14.93,14.93,0,0,0,3.9,1.22q2.68.74,13.17,4.39c2.6,1,4.43,1.67,5.49,2.07s2.23.94,3.53,1.59a7.63,7.63,0,0,0,2.69,1,12.35,12.35,0,0,1,3.41,1.22,33.05,33.05,0,0,0,4.39,1.71q1.69.49,6.83,2.19a122.34,122.34,0,0,0,22.92,5.61q13.91,1.95,21.95.25,2.93-.74,6.58-1.35a16.21,16.21,0,0,0,4.15-1,13.68,13.68,0,0,1,3.17-1.1,49.12,49.12,0,0,0,7.07-3.05,26.42,26.42,0,0,0,5.85-3.53c.65-.65,1.14-1,1.47-1a9.24,9.24,0,0,0,2.8-1.83c1.55-1.22,3.09-2.51,4.64-3.9s2.31-2.23,2.31-2.56q0-.24,1.47-1.71A6.23,6.23,0,0,0,335.24,538.69Zm-173.63,0c-.49-.16-.65-.36-.49-.61s.57-.36,1.22-.36a2.62,2.62,0,0,1,1,.12c.16.08.24.28.24.61Q163.07,539.42,161.61,538.69Zm8.29-4.63c-.16-.65,0-1.06.49-1.22,1-.33,1.46-.16,1.46.49,0,.32-.28.69-.85,1.09S170.06,534.71,169.9,534.06Zm3.17,2.92a3.33,3.33,0,0,1-1.95.37c-.65-.08-1-.37-1-.85s.41-.73,1.22-.73h1C174,535.93,174.21,536.34,173.07,537Zm8.29-133.39c0-.32.2-.49.61-.49a.9.9,0,0,1,.86.49.39.39,0,0,1-.25.36,1.23,1.23,0,0,1-.61.13,1.25,1.25,0,0,1-.61-.13Q181.12,403.83,181.36,403.59ZM181.12,434c0-.08.28-.12.85-.12a.76.76,0,0,1,.86.85c0,.57-.33.86-1,.86-.49,0-.77-.08-.85-.25a1,1,0,0,1-.13-.49A5.6,5.6,0,0,0,181.12,434Zm.24,10.85a5.07,5.07,0,0,1,1.34,1.34,6.87,6.87,0,0,1,1.1,1.83c0,.82-.81.57-2.44-.73a2.66,2.66,0,0,1-1-1.71A1,1,0,0,1,181.36,444.8Zm-1.58-45.36c-.57,0-.86-.24-.86-.73,0-.65.29-1,.86-1a.85.85,0,1,1,0,1.7Zm.85,14.39-.49.24-.24-.24C180.22,413.67,180.47,413.67,180.63,413.83Zm-.73-10.24c.32.33.32.81,0,1.46l-.25,1-.24-1.22a7.48,7.48,0,0,1-.24-1.22C179.17,403.43,179.41,403.43,179.9,403.59Zm.73,27.07a.49.49,0,0,1-.12.36c-.08.09-.29.13-.61.13s-.53,0-.61-.13a.49.49,0,0,1-.12-.36.77.77,0,0,1,.73-.49A.78.78,0,0,1,180.63,430.66Zm-.73,10a1,1,0,0,1,.61.12.5.5,0,0,1,.12.37c-.33.81-.73,1-1.22.48C178.76,441,178.92,440.66,179.9,440.66Zm.49,17.31c.32.17.4.37.24.61a.81.81,0,0,1-.73.37.56.56,0,0,1-.61-.37.56.56,0,0,1,.12-.61A1.06,1.06,0,0,1,180.39,458Zm-1.22,14.63a2.74,2.74,0,0,1,1.34-1c.73-.33,1.18-.37,1.34-.12s.08.53-.24.85a3.59,3.59,0,0,1-2.2.73C179.08,472.93,179,472.77,179.17,472.6Zm3.29-7.31a.84.84,0,0,1,.61.24c.16.16.16.25,0,.25-.16.32-.37.48-.61.48s-.45-.16-.61-.48c-.16,0-.16-.09,0-.25A.84.84,0,0,1,182.46,465.29Zm-.37-7.44c0-.73.08-1.1.25-1.1s.49.37.49,1.1-.13,1.1-.37,1.1S182.09,458.58,182.09,457.85ZM179.9,515a.78.78,0,0,1,.73.48c.16.33,0,.49-.49.49s-.73-.16-.73-.49A.43.43,0,0,1,179.9,515Zm1-3.42c.16,0,.25.17.25.49s-.12.49-.37.49S180.55,512.27,180.87,511.62Zm-.24-8.05a2.14,2.14,0,0,1-.24-1v-.73a1.59,1.59,0,0,1,1.22,1.22c0,.65-.17,1-.49,1S180.79,503.9,180.63,503.57Zm1.22,4.64c.49,0,.73.16.73.49s-.24.48-.73.48-.73-.16-.73-.48S181.36,508.21,181.85,508.21Zm0-11.46c-.49,0-.73-.16-.73-.49s.24-.49.73-.49.73.17.73.49S182.34,496.75,181.85,496.75ZM181.61,486a.42.42,0,0,1,.48.48c0,.17-.08.25-.24.25s-.33-.12-.49-.37S181.28,486,181.61,486Zm.73-7.08c-1.14,1.14-1.79,1.39-2,.74,0-.33.28-.57.85-.74s.77-.48.61-1c-.16-.16-.16-.4,0-.73a2.49,2.49,0,0,1,.49-.73.67.67,0,0,1,.49-.25C183.8,476.91,183.64,477.81,182.34,478.94Zm-3.9-83.4a1.66,1.66,0,0,1,1.21-.49l.49.25.49.24a1.49,1.49,0,0,1-1.1,1c-.57.16-.93.16-1.09,0A.61.61,0,0,1,178.44,395.54Zm-.74,116.08q-.48,0-.48-.24a.43.43,0,0,1,.48-.49c.33,0,.49.12.49.37S178,511.62,177.7,511.62Zm.86-12.68c-.25,0-.37-.16-.37-.49s.12-.48.37-.48.36.16.36.48S178.8,498.94,178.56,498.94Zm-.12-36.82c-.17-.16-.25-.73-.25-1.71v-1.22l.49,1.46a6.86,6.86,0,0,1,.24,1.47Q178.92,462.62,178.44,462.12Zm1-51.7a.47.47,0,0,1,.24.73c-.48.65-.73.49-.73-.49C178.92,410.34,179.08,410.26,179.41,410.42Zm1.1,122.91a.83.83,0,0,1-.86,0c-.48-.16-.69-.82-.6-2s.28-1.7.6-1.7c.49,0,.9.89,1.22,2.68A1.11,1.11,0,0,1,180.51,533.33Zm.36-8.3c-.32,0-.73-.32-1.22-1s-.65-1.06-.48-1.22.48-.08,1,.24a2.44,2.44,0,0,1,1,1.22C181.12,524.79,181,525,180.87,525Zm.25,1.22a.49.49,0,1,1,.49.49A.43.43,0,0,1,181.12,526.25Zm.49,1.47c0-.49.16-.73.48-.73a.65.65,0,0,1,.74.73c0,.48-.21.73-.61.73S181.61,528.2,181.61,527.72Zm1.95,4.39c-.65.32-1,.16-1-.49a.65.65,0,0,1,.73-.73,1,1,0,0,1,.61.12.51.51,0,0,1,.12.36A.79.79,0,0,1,183.56,532.11Zm.24-133.64a.43.43,0,0,1-.49-.49c0-.49.16-.73.49-.73s.49.2.49.61S184.12,398.47,183.8,398.47Zm1.34,135.83c-.24,0-.45-.2-.61-.61s-.16-.69,0-.85c.65-.65,1-.41,1,.73C185.51,534.06,185.39,534.3,185.14,534.3Zm7.81,3.42c-.09,0-.21-.08-.37-.25-.16-.32-.12-.49.12-.49a.33.33,0,0,1,.37.37C193.07,537.59,193,537.72,193,537.72Zm5.85,1.7a.32.32,0,0,1-.37-.36c0-.25-.32-.49-1-.73s-.73-.45-.25-.61c1.3,0,1.95.48,1.95,1.46Q199.16,539.42,198.8,539.42Zm6.95.73c-.49.66-1.46.74-2.93.25-.49,0-.69-.16-.61-.49a1.15,1.15,0,0,1,.86-.73,1.47,1.47,0,0,0,1-1c.16-.48.57-.64,1.22-.48Q207.45,538,205.75,540.15Zm4.51-.48c-.41.48-.77.73-1.1.73a1,1,0,0,1-.48-1,1.18,1.18,0,0,1,.61-1.09.8.8,0,0,1,1.09.12C210.71,538.78,210.66,539.18,210.26,539.67Zm2.2,1.22c-.25,0-.37-.16-.37-.49s.12-.49.37-.49.36.17.36.49S212.7,540.89,212.46,540.89Zm7.31,2.07c.08-.25.37-.37.85-.37s.74.09.74.25c0,.65-.33.89-1,.73C219.89,543.41,219.69,543.2,219.77,543Zm-3.29-1.34q-.73,1.21-1.71,0a1.51,1.51,0,0,1-.49-1.1c0-.4.16-.61.49-.61a1.87,1.87,0,0,1,1.34.61C216.52,540.93,216.64,541.29,216.48,541.62Zm5.61,4.39a2.6,2.6,0,0,1-1.47.24c-.81,0-1.21-.28-1.21-.85s.4-.86,1.21-.86C222.58,544.54,223.06,545,222.09,546Zm2.68.36c-.49.09-.73-.2-.73-.85s.24-.93.73-.85a.86.86,0,0,1,0,1.7Zm3.66,1c-.33.24-.57.21-.73-.12a.87.87,0,0,1,.12-1c.24-.32.49-.28.73.12A.67.67,0,0,1,228.43,547.35Zm26.32,10.55-.51-.07-.41-.06C254.41,557.37,254.73,557.4,254.75,557.9Zm2.7-1.16a2.15,2.15,0,0,1-.25,1,1.39,1.39,0,0,1-.5.46l-.58-.08A.8.8,0,0,1,256,558a1.6,1.6,0,0,1,.11-1.33h1.34S257.45,556.7,257.45,556.74ZM254,558.93c-.48.17-.77.21-.85.12s0-.28.12-.6l.07-.13.76,0h.49A1.87,1.87,0,0,1,254,558.93Zm4.88,2c-.49,0-.73-.08-.73-.24,1-.32,1.46-.37,1.46-.12S259.4,560.88,258.91,560.88Zm3.54-1.22a.88.88,0,0,1-.86-.48c-.16-.49,0-.73.61-.73s.86.2.86.6A.54.54,0,0,1,262.45,559.66Zm24.75-.24c.16-.49.37-.69.61-.61s.37.77.37,2.07C287.36,560.4,287,559.91,287.2,559.42Zm9.27,3.29a6.32,6.32,0,0,1-1.71.12H294c-1.3,0-1.63-.32-1-1a3.06,3.06,0,0,0,.49-.73c.16-.33.33-.65.49-1,.16-.81.36-1.22.61-1.22s.49.37.73,1.1a16,16,0,0,0,.85,2.07C296.55,562.43,296.63,562.63,296.47,562.71ZM301.1,558c-.33,0-.49-.08-.49-.25a1,1,0,0,1,.49-.85c.33-.24.49-.12.49.37S301.43,558,301.1,558Zm6.95,1.46a.44.44,0,0,1-.61,0c-.16-.32-.12-.57.12-.73a.39.39,0,0,1,.61.12A.39.39,0,0,1,308.05,559.42Zm-.24-3.17c-.41,0-.61-.16-.61-.49s.2-.48.61-.48.61.16.61.48S308.21,556.25,307.81,556.25Zm7.68-3.41a.78.78,0,0,1-.73.48c-.17,0-.25-.16-.25-.48s.21-.49.61-.49S315.65,552.51,315.49,552.84Zm3.17-1.22a.57.57,0,0,1-.61-.49.73.73,0,0,1,.12-.73c.65-.33,1-.08,1,.73A.43.43,0,0,1,318.66,551.62Zm8.17-9.51c-.24,0-.37-.16-.37-.49,0-.49.13-.73.37-.73s.36.2.36.61S327.07,542.11,326.83,542.11Z"/><path d="M281.9,475.21c1.05.08,2.1.14,3.15.17s2.1.09,3.15.09h.26v-.27l0-3.43c0-1.14,0-2.28,0-3.43,0-.57,0-1.14,0-1.71a4,4,0,0,0-.1-.9,4.08,4.08,0,0,0-.33-.84,3.18,3.18,0,0,0-2.95-1.61,3.29,3.29,0,0,1,1.57.55,3.22,3.22,0,0,1,1.06,1.23,3.36,3.36,0,0,1,.24.76,3.61,3.61,0,0,1,0,.81c0,.14,0,.28,0,.41l-4.84.37,4.83.36c0,.19,0,.38,0,.57,0,1.15,0,2.29,0,3.43l0,3.18c-1,0-1.92.05-2.88.08S283,475.14,281.9,475.21Z"/><rect x="302.9" y="363.01" width="0.61" height="16.32"/><path d="M310.65,399.2l.08.76s0-.28.07-.76.1-1.17.15-2c.1-1.66.16-3.86.16-6.07s-.06-4.42-.16-6.08c0-.82-.11-1.51-.15-2s-.07-.76-.07-.76l-.08.76c0,.49-.1,1.18-.14,2-.1,1.66-.16,3.87-.16,6.08s.06,4.41.16,6.07C310.55,398,310.62,398.72,310.65,399.2Z"/><rect x="300.51" y="363.01" width="0.66" height="16.32"/><path d="M295,351.12c1.39.81,3.26,1.84,5.13,2.88s3.74,2.07,5.08,2.93a8.85,8.85,0,0,1,1.53,1.14,2.24,2.24,0,0,1,.33.42l.06.18s0-.06,0-.19a1.77,1.77,0,0,0-.25-.5,8.17,8.17,0,0,0-1.39-1.41,36.35,36.35,0,0,0-5-3.24c-1.88-1-3.82-2-5.3-2.61-.74-.32-1.38-.55-1.81-.73l-.7-.26.63.39Z"/><rect x="294.24" y="363.01" width="2.94" height="16.32"/><path d="M278.91,379.33h12.27V363H278.91Zm6.67-1.89a28.47,28.47,0,0,1-1.79-2.64,31.31,31.31,0,0,1-1.51-2.81,14.59,14.59,0,0,1-.56-1.35s.41.43.94,1.12,1.18,1.65,1.78,2.64a30.16,30.16,0,0,1,1.51,2.81,14,14,0,0,1,.56,1.36A13.21,13.21,0,0,1,285.58,377.44Zm-4-11.33c.22.3.55.72.92,1.24.74,1,1.67,2.46,2.55,3.91s1.7,2.94,2.28,4.08c.29.57.51,1.06.67,1.4s.24.54.24.54l-.37-.47c-.22-.3-.55-.71-.92-1.24-.74-1-1.67-2.46-2.55-3.91s-1.7-2.94-2.28-4.08c-.29-.57-.51-1.06-.67-1.39s-.24-.54-.24-.54S281.38,365.81,281.61,366.11Z"/></svg>