<svg id="Capa_1" enable-background="new 0 0 512 512" height="512" viewBox="0 0 512 512" width="512" xmlns="http://www.w3.org/2000/svg"><g><path d="m161.747 290.163c-19.207-19.046-46.023-25.945-70.747-20.709v-101.954c0-25.089-20.411-45.5-45.5-45.5s-45.5 20.411-45.5 45.5v164.233c0 22.585 9.22 44.637 25.295 60.501l70.978 70.044v34.722c0 8.284 6.716 15 15 15h114.727c8.284 0 15-6.716 15-15v-101.166c0-17.212-7.01-34.035-19.232-46.156zm49.253 191.837h-84.727v-25.994c0-4.013-1.608-7.858-4.464-10.677l-75.441-74.449c-10.402-10.264-16.368-24.533-16.368-39.147v-164.233c0-8.547 6.953-15.5 15.5-15.5s15.5 6.953 15.5 15.5v115.462c-3.006 2.232-5.883 4.708-8.606 7.432-5.858 5.858-5.858 15.355 0 21.213l67.5 67.5c5.857 5.858 15.355 5.858 21.213 0s5.858-15.355 0-21.213l-55.172-55.172c17.72-8.834 39.892-5.928 54.689 8.744l60.021 59.516c6.582 6.526 10.356 15.585 10.356 24.854v86.164z"/><path d="m466.5 122c-25.089 0-45.5 20.411-45.5 45.5v101.954c-24.721-5.231-51.542 1.666-70.747 20.709l-60.021 59.517c-12.222 12.119-19.232 28.942-19.232 46.154v101.166c0 8.284 6.716 15 15 15h114.727c8.284 0 15-6.716 15-15v-34.722l70.978-70.044c16.075-15.864 25.295-37.916 25.295-60.501v-164.233c0-25.089-20.411-45.5-45.5-45.5zm15.5 209.733c0 14.614-5.966 28.883-16.368 39.147l-75.442 74.45c-2.856 2.819-4.464 6.664-4.464 10.677v25.993h-84.726v-86.166c0-9.268 3.774-18.327 10.355-24.853l60.021-59.516c14.797-14.673 36.968-17.581 54.688-8.744l-55.171 55.172c-5.858 5.858-5.858 15.355 0 21.213 5.857 5.858 15.355 5.858 21.213 0l67.5-67.5c5.858-5.858 5.858-15.355 0-21.213-2.723-2.723-5.601-5.2-8.606-7.432v-115.461c0-8.547 6.953-15.5 15.5-15.5s15.5 6.953 15.5 15.5z"/><path d="m181 255h150c8.284 0 15-6.716 15-15v-45c0-38.422-24.205-71.292-58.164-84.178 16.9-10.625 28.164-29.428 28.164-50.822 0-33.084-26.916-60-60-60s-60 26.916-60 60c0 21.394 11.264 40.197 28.164 50.822-33.959 12.886-58.164 45.756-58.164 84.178v45c0 8.284 6.716 15 15 15zm75-225c16.542 0 30 13.458 30 30s-13.458 30-30 30-30-13.458-30-30 13.458-30 30-30zm-60 165c0-33.084 26.916-60 60-60s60 26.916 60 60v30h-120z"/></g></svg>