<svg id="Capa_1" enable-background="new 0 0 512 512" height="512" viewBox="0 0 512 512" width="512" xmlns="http://www.w3.org/2000/svg"><g fill="#2a343b"><path d="m505.549 110.842c-4.161-4.161-9.692-6.452-15.576-6.452s-11.415 2.292-15.575 6.452c-2.043 2.042-4.244 3.938-6.566 5.719l-72.39-72.391c1.783-2.321 3.675-4.525 5.718-6.567 8.588-8.588 8.588-22.562 0-31.15-4.162-4.162-9.694-6.453-15.578-6.453s-11.415 2.292-15.576 6.452c-34.451 34.451-41.463 86.415-45.094 139.098-53.472 3.537-103.909 9.905-136.683 42.679-33.044 33.044-39.244 84.653-42.679 136.684-51.618 3.557-104.435 10.43-139.099 45.094-4.16 4.16-6.451 9.691-6.451 15.575s2.291 11.415 6.451 15.575c4.161 4.161 9.692 6.451 15.576 6.451s11.415-2.29 15.576-6.451c2.042-2.043 4.244-3.938 6.565-5.719l72.391 72.391c-1.783 2.32-3.675 4.524-5.718 6.567-8.588 8.588-8.588 22.563 0 31.151 4.16 4.161 9.692 6.452 15.576 6.452s11.415-2.291 15.576-6.452c34.451-34.451 41.462-86.415 45.095-139.1 53.472-3.536 103.909-9.904 136.683-42.679 33.044-33.043 39.244-84.651 42.679-136.683 51.618-3.557 104.434-10.43 139.098-45.094 4.16-4.16 6.451-9.692 6.451-15.576.001-5.881-2.29-11.413-6.45-15.573zm-44.531 10.379c-10.701 6.515-23.468 10.988-37.189 14.162l-47.191-47.191c3.212-13.956 7.693-26.629 14.142-37.21zm-91.725 21.489c1.172-15.547 2.744-30.806 5.376-45.014l39.667 39.666c-14.679 2.73-30.113 4.233-45.043 5.348zm-326.883 243.964c-.077.049-.149.106-.223.16-3.705 2.585-7.164 5.431-10.32 8.587-1.311 1.311-2.823 2.297-4.435 2.975.494-.556.803-1.279.803-2.08 0-1.738-1.409-3.146-3.146-3.146s-3.146 1.408-3.146 3.146c0 1.415.942 2.6 2.229 2.994-4.239.656-8.724-.63-11.984-3.889-2.628-2.628-4.075-6.122-4.075-9.839s1.447-7.211 4.076-9.84c8.88-8.88 19.127-15.823 30.336-21.312-.188.403-.3.849-.3 1.322 0 1.737 1.409 3.146 3.146 3.146s3.146-1.409 3.146-3.146c0-1.464-1.004-2.683-2.357-3.034 2.834-1.286 5.721-2.491 8.663-3.61.103.011.202.031.307.031.895 0 1.699-.378 2.272-.979 14.463-5.222 30.091-8.6 46.209-10.926.566.834 1.521 1.382 2.605 1.382 1.384 0 2.546-.899 2.967-2.141 4.715-.609 9.463-1.141 14.23-1.61-.038.196-.061.397-.061.605 0 1.736 1.409 3.146 3.146 3.146s3.146-1.409 3.146-3.146c0-.413-.084-.806-.229-1.166 5.101-.452 10.213-.848 15.317-1.205-.667.577-1.098 1.419-1.098 2.371 0 .955.435 1.801 1.108 2.378-.088 1.457-.178 2.917-.266 4.372-.378 6.287-.758 12.6-1.182 18.889-8.515.626-17.205 1.376-25.859 2.395-.438-.231-.93-.375-1.46-.375-.805 0-1.532.312-2.088.809-5.055.642-10.088 1.382-15.056 2.255-.044-1.698-1.428-3.063-3.138-3.063-1.737 0-3.146 1.408-3.146 3.146 0 .374.077.729.197 1.062-8.568 1.721-16.881 3.886-24.723 6.647-.577-.666-1.418-1.096-2.368-1.096-1.737 0-3.146 1.408-3.146 3.146 0 .01.003.018.003.027-7.244 2.911-14.012 6.396-20.1 10.612zm100.298-17.386c-1.172 15.549-2.745 30.808-5.377 45.016l-39.667-39.667c14.679-2.73 30.113-4.233 45.044-5.349zm-91.726 21.491c10.701-6.517 23.468-10.989 37.189-14.163l47.192 47.191c-3.212 13.957-7.693 26.629-14.142 37.21zm129.371-46.404c-3.498 58.236-7.115 118.456-44.096 155.437-2.628 2.629-6.123 4.075-9.839 4.075-3.717 0-7.211-1.446-9.839-4.075-5.426-5.426-5.426-14.253 0-19.68 3.15-3.15 5.985-6.605 8.57-10.3.071-.097.141-.192.203-.293 8.877-12.807 14.589-28.646 18.426-46.173.008-.037.017-.074.024-.112 5.411-24.782 7.11-52.905 8.77-80.546 3.373-56.149 6.86-114.21 41.394-148.743 30.589-30.589 78.943-36.807 130.407-40.249-.284 4.478-.555 8.955-.823 13.42-.294 4.895-.586 9.762-.896 14.587-44.054 3.036-85.23 8.141-109.01 31.922-27.065 27.063-30.089 77.417-33.291 130.73zm13.614-61.909c2.29-15.102 5.586-28.91 10.699-40.652l65.478 65.479c-11.883 5.156-25.785 8.463-40.62 10.73zm25.464 36.937c-9.663 1.174-19.6 2.006-29.535 2.702.713-10.147 1.554-20.05 2.699-29.538zm-10.974-85.271c3.079-5.541 6.675-10.503 10.924-14.752 4.237-4.237 9.209-7.835 14.768-10.907l69.395 69.395c-3.079 5.541-6.675 10.504-10.924 14.752-4.237 4.237-9.21 7.836-14.769 10.907zm33.399-29.425c11.883-5.157 25.785-8.464 40.62-10.732l35.559 35.559c-2.29 15.102-5.586 28.911-10.699 40.653zm50.713-12.111c9.664-1.174 19.601-2.007 29.536-2.702-.713 10.147-1.554 20.05-2.699 29.539zm66.859-23.306c-3.373 56.149-6.859 114.21-41.394 148.744-30.588 30.588-78.942 36.806-130.407 40.249.284-4.479.555-8.957.824-13.424.294-4.893.586-9.76.896-14.583 44.053-3.036 85.229-8.142 109.009-31.921 27.066-27.066 30.09-77.421 33.291-130.732 3.498-58.236 7.115-118.455 44.096-155.436 2.628-2.628 6.122-4.075 9.839-4.075s7.211 1.447 9.839 4.075c5.425 5.426 5.425 14.253 0 19.679-3.149 3.149-5.984 6.604-8.568 10.297-.073.099-.145.196-.208.299-8.881 12.813-14.594 28.662-18.43 46.2-.005.022-.01.045-.015.067-5.413 24.786-7.111 52.915-8.772 80.561zm140.384-33.033c-10.715 10.716-23.419 18.613-37.408 24.529-.479-.295-1.038-.474-1.642-.474-1.466 0-2.688 1.008-3.036 2.364-8.189 3.148-16.777 5.673-25.639 7.718-.414-.2-.874-.323-1.366-.323-.982 0-1.848.459-2.425 1.164-4.873 1.043-9.816 1.959-14.819 2.758.064-.25.108-.507.108-.775 0-1.738-1.408-3.146-3.146-3.146-1.737 0-3.146 1.408-3.146 3.146 0 .601.177 1.156.47 1.634-13.403 1.911-27.13 3.114-40.792 4.068.083-1.347.163-2.691.245-4.038.556.888 1.536 1.481 2.66 1.481 1.738 0 3.146-1.409 3.146-3.146 0-1.738-1.408-3.146-3.146-3.146-.99 0-1.863.467-2.439 1.182.03-.492.06-.986.09-1.479.281-4.686.57-9.384.872-14.077.443.237.941.385 1.478.385 1.738 0 3.146-1.409 3.146-3.146 0-.908-.391-1.721-1.007-2.295 15.133-1.167 30.724-2.775 45.611-5.661.569.811 1.507 1.343 2.572 1.343 1.519 0 2.785-1.075 3.081-2.507 9.416-2.068 18.477-4.709 26.881-8.144.27.075.549.129.843.129 1.199 0 2.228-.679 2.759-1.665 5.641-2.522 10.95-5.433 15.825-8.809.08-.05.154-.109.231-.166 3.703-2.583 7.161-5.429 10.316-8.584 2.263-2.264 5.171-3.644 8.308-3.985.115 1.633 1.462 2.927 3.124 2.927 1.416 0 2.599-.942 2.994-2.229 1.952.68 3.747 1.782 5.252 3.287.998.998 1.824 2.123 2.467 3.336-.303-.098-.619-.164-.954-.164-1.737 0-3.146 1.409-3.146 3.146 0 1.738 1.408 3.146 3.146 3.146 1.005 0 1.889-.479 2.465-1.213.059.524.098 1.054.098 1.589-.002 3.717-1.449 7.212-4.077 9.84z"/><path d="m136.256 349.139c1.737 0 3.146-1.408 3.146-3.146 0-1.737-1.409-3.146-3.146-3.146-1.738 0-3.146 1.408-3.146 3.146 0 1.737 1.408 3.146 3.146 3.146z"/><path d="m115.974 349.139c1.737 0 3.146-1.408 3.146-3.146 0-1.737-1.409-3.146-3.146-3.146s-3.146 1.408-3.146 3.146c0 1.737 1.409 3.146 3.146 3.146z"/><path d="m126.497 358.898c1.737 0 3.146-1.409 3.146-3.146 0-1.738-1.409-3.146-3.146-3.146s-3.146 1.408-3.146 3.146c0 1.737 1.408 3.146 3.146 3.146z"/><path d="m95.693 349.139c1.737 0 3.146-1.408 3.146-3.146 0-1.737-1.409-3.146-3.146-3.146s-3.146 1.408-3.146 3.146c-.001 1.737 1.408 3.146 3.146 3.146z"/><path d="m106.215 358.898c1.737 0 3.146-1.409 3.146-3.146 0-1.738-1.409-3.146-3.146-3.146s-3.146 1.408-3.146 3.146c0 1.737 1.409 3.146 3.146 3.146z"/><path d="m75.411 349.139c1.737 0 3.146-1.408 3.146-3.146 0-1.737-1.409-3.146-3.146-3.146s-3.146 1.408-3.146 3.146c0 1.737 1.408 3.146 3.146 3.146z"/><path d="m85.933 358.898c1.737 0 3.146-1.409 3.146-3.146 0-1.738-1.409-3.146-3.146-3.146s-3.146 1.408-3.146 3.146c.001 1.737 1.409 3.146 3.146 3.146z"/><circle cx="75.411" cy="366.274" r="3.146"/><path d="m65.652 358.898c1.737 0 3.146-1.409 3.146-3.146 0-1.738-1.409-3.146-3.146-3.146s-3.146 1.408-3.146 3.146c0 1.737 1.408 3.146 3.146 3.146z"/><path d="m55.129 363.129c-1.738 0-3.146 1.408-3.146 3.146s1.408 3.146 3.146 3.146c1.737 0 3.146-1.408 3.146-3.146s-1.408-3.146-3.146-3.146z"/><path d="m34.848 363.129c-1.737 0-3.146 1.408-3.146 3.146s1.409 3.146 3.146 3.146 3.146-1.408 3.146-3.146-1.409-3.146-3.146-3.146z"/><path d="m45.37 372.888c-1.737 0-3.146 1.408-3.146 3.146s1.409 3.146 3.146 3.146 3.146-1.409 3.146-3.146-1.408-3.146-3.146-3.146z"/><path d="m34.848 383.41c-1.737 0-3.146 1.408-3.146 3.146s1.409 3.146 3.146 3.146 3.146-1.408 3.146-3.146-1.409-3.146-3.146-3.146z"/><path d="m25.089 372.888c-1.737 0-3.146 1.408-3.146 3.146s1.409 3.146 3.146 3.146 3.146-1.409 3.146-3.146-1.409-3.146-3.146-3.146z"/><path d="m14.566 383.41c-1.737 0-3.146 1.408-3.146 3.146s1.409 3.146 3.146 3.146 3.146-1.408 3.146-3.146-1.409-3.146-3.146-3.146z"/><path d="m481.043 119.749c-1.738 0-3.146 1.409-3.146 3.146 0 1.738 1.408 3.146 3.146 3.146s3.146-1.408 3.146-3.146c0-1.737-1.409-3.146-3.146-3.146z"/><circle cx="491.566" cy="132.654" r="3.146"/><path d="m481.043 140.031c-1.738 0-3.146 1.408-3.146 3.146s1.408 3.146 3.146 3.146 3.146-1.408 3.146-3.146-1.409-3.146-3.146-3.146z"/><circle cx="471.284" cy="132.654" r="3.146"/><circle cx="460.761" cy="143.177" r="3.146"/><path d="m471.284 149.79c-1.737 0-3.146 1.408-3.146 3.146s1.409 3.146 3.146 3.146c1.738 0 3.146-1.409 3.146-3.146s-1.409-3.146-3.146-3.146z"/><path d="m440.48 140.031c-1.737 0-3.146 1.408-3.146 3.146s1.408 3.146 3.146 3.146 3.146-1.408 3.146-3.146-1.409-3.146-3.146-3.146z"/><path d="m451.002 149.79c-1.737 0-3.146 1.408-3.146 3.146s1.409 3.146 3.146 3.146 3.146-1.409 3.146-3.146-1.408-3.146-3.146-3.146z"/><path d="m440.48 160.312c-1.737 0-3.146 1.408-3.146 3.146s1.408 3.146 3.146 3.146 3.146-1.408 3.146-3.146c0-1.737-1.409-3.146-3.146-3.146z"/><path d="m430.721 149.79c-1.737 0-3.146 1.408-3.146 3.146s1.409 3.146 3.146 3.146c1.738 0 3.146-1.409 3.146-3.146s-1.409-3.146-3.146-3.146z"/><path d="m420.198 160.312c-1.738 0-3.146 1.408-3.146 3.146s1.408 3.146 3.146 3.146c1.737 0 3.146-1.408 3.146-3.146 0-1.737-1.408-3.146-3.146-3.146z"/><path d="m410.439 149.79c-1.737 0-3.146 1.408-3.146 3.146s1.409 3.146 3.146 3.146c1.738 0 3.146-1.409 3.146-3.146s-1.408-3.146-3.146-3.146z"/><path d="m399.916 160.312c-1.737 0-3.146 1.408-3.146 3.146s1.408 3.146 3.146 3.146 3.146-1.408 3.146-3.146c.001-1.737-1.408-3.146-3.146-3.146z"/><path d="m390.158 149.79c-1.737 0-3.146 1.408-3.146 3.146s1.409 3.146 3.146 3.146 3.146-1.409 3.146-3.146-1.409-3.146-3.146-3.146z"/><path d="m379.635 160.312c-1.738 0-3.146 1.408-3.146 3.146s1.408 3.146 3.146 3.146 3.146-1.408 3.146-3.146c0-1.737-1.408-3.146-3.146-3.146z"/><path d="m390.158 170.071c-1.737 0-3.146 1.408-3.146 3.146 0 1.736 1.409 3.146 3.146 3.146s3.146-1.409 3.146-3.146c0-1.738-1.409-3.146-3.146-3.146z"/></g></svg>