<svg id="Capa_1" enable-background="new 0 0 511.935 511.935" height="512" viewBox="0 0 511.935 511.935" width="512" xmlns="http://www.w3.org/2000/svg"><g><path d="m227.588 59.937c-74.439 0-135 60.561-135 135s60.561 135 135 135 135-60.561 135-135-60.561-135-135-135zm-105 135c0-57.897 47.103-105 105-105 24.813 0 45 20.187 45 45s-20.187 45-45 45c-41.355 0-75 33.645-75 75 0 5.1.516 10.081 1.491 14.897-19.422-19.065-31.491-45.596-31.491-74.897zm105 105c-24.813 0-45-20.187-45-45s20.187-45 45-45c41.355 0 75-33.645 75-75 0-5.1-.516-10.081-1.491-14.897 19.422 19.065 31.491 45.596 31.491 74.897 0 57.897-47.103 105-105 105z"/><circle cx="227.588" cy="134.937" r="15"/><circle cx="227.588" cy="254.937" r="15"/><path d="m478.443 276.615-57.534-86.302c-1.335-57.216-27.411-110.488-72.008-146.748-45.791-37.231-105.832-51.545-164.733-39.267-74.026 15.43-133.918 75.61-149.034 149.751-13.767 67.525 7.072 134.888 55.828 181.6l.001 161.286c0 8.284 6.716 15 15 15h180c8.284 0 15-6.716 15-15v-47h105c8.284 0 15-6.716 15-15v-110.73l51.708-25.854c3.849-1.924 6.686-5.408 7.789-9.566 1.104-4.158.37-8.591-2.017-12.17zm-79.188 24.903c-5.082 2.541-8.292 7.735-8.292 13.417v105h-105c-8.284 0-15 6.716-15 15v47h-150l-.001-152.836c0-4.267-1.817-8.332-4.996-11.177-44.282-39.634-63.511-98.655-51.436-157.88 12.755-62.569 63.295-113.356 125.759-126.375 50.02-10.425 100.933 1.666 139.687 33.175 38.759 31.512 60.987 78.201 60.987 128.093 0 2.961.877 5.856 2.52 8.32l50.574 75.862z"/></g></svg>