<svg id="Layer_1" data-name="Layer 1" xmlns="http://www.w3.org/2000/svg" viewBox="0 0 1000 1000"><defs><style>.cls-1{fill:none;}.cls-2{fill:#fff;}</style></defs><title>logo design Lighthouse Lekki</title><rect class="cls-1" x="-1" width="1004" height="1002"/><path class="cls-2" d="M346.24,535.09h4.61v21.75h15.67v3.88H346.24Z"/><path class="cls-2" d="M474.16,535.09h19V539H478.78v6.63h13.51v3.88H478.78v7.36h14.71v3.88H474.16Z"/><path class="cls-2" d="M606.48,547.9v12.82h-4.62V535.09h4.62v11.35l11.71-11.35H624l-12.38,12L626,560.72h-6.27Z"/><path class="cls-2" d="M736.93,547.9v12.82h-4.62V535.09h4.62v11.35l11.71-11.35h5.79l-12.38,12,14.35,13.62h-6.26Z"/><path class="cls-2" d="M867.56,535.09v25.63H863V535.09Z"/><path class="cls-2" d="M354.32,471.77c3.43,0,5.58.33,6.44,1s.79,1.9-.21,3.76-1.29,8.68-1.29,20V509L358.18,510q-1.06,1.08-1.5,1.08a1.51,1.51,0,0,0-1,.53,20.24,20.24,0,0,1-3.12,2.05,55.28,55.28,0,0,1-11.82,4.08,38.6,38.6,0,0,1-13.54.64,15.53,15.53,0,0,1-3.33-.86,5.12,5.12,0,0,0-2-.42,13.14,13.14,0,0,1-4.73-1.51c-.57-.14-1.29-.36-2.15-.64a8.87,8.87,0,0,1-2.36-1.19,4.55,4.55,0,0,0-1.29-.75q-.65,0-6-4.08a49.53,49.53,0,0,1-10.1-11.61q-4.95-7.31-5.81-18.92-.43-9.88,1.29-14.19a8.54,8.54,0,0,0,.86-2.58q0-2.35,4.3-8.81a18.35,18.35,0,0,0,1.72-2.8c0-.28,1.43-1.83,4.3-4.62s4.44-4.19,4.73-4.19a.69.69,0,0,0,.65-.43,13.7,13.7,0,0,1,1.61-1.08c.93-.57,2-1.18,3.22-1.82s2.4-1.22,3.55-1.72,1.93-.83,2.36-1a19.17,19.17,0,0,0,3.55-1.08q2.27-.86,10-.86,9.45,0,15.05,1.72a29.59,29.59,0,0,1,7.31,3.44,16,16,0,0,0,3,1.72c1.44.86,2.26,1.61,2.48,2.26a27.39,27.39,0,0,1,.53,5.05q-.21,8.82-2.79,8.17a6.84,6.84,0,0,1-1.5-2.36,13.58,13.58,0,0,0-6-6c-2.87-1.43-4.88-2.37-6-2.8a34.73,34.73,0,0,0-18.28-1.07,31,31,0,0,0-9,3.44,4.46,4.46,0,0,1-1.72.86q-.42,0-4.73,3.87a24.26,24.26,0,0,0-2.47,2.36,26.68,26.68,0,0,0-2.36,2.9,6.6,6.6,0,0,0-1,1.62,8,8,0,0,1-1.07,1.72q-4.1,6.22-4.09,16.12a31.37,31.37,0,0,0,1.08,7.52,22.72,22.72,0,0,0,2.58,6.67,10.21,10.21,0,0,1,1.28,2.15,7.36,7.36,0,0,0,1.51,2.25,1.47,1.47,0,0,1,.64,1.08.76.76,0,0,0,.54.75,2.14,2.14,0,0,1,1,1.08q1.08,1.72,6.34,5.26t7.85,4q8,1.94,11.18,1.94a37.14,37.14,0,0,0,13.76-3.23,7,7,0,0,0,2-1.29,4.1,4.1,0,0,0,.54-1.5q.21-1.5,0-12.47V479.3l-1.08-2.15q-1.72-3.43-.43-4.41C348.51,472.1,350.73,471.77,354.32,471.77Zm-62.13,9.89c0,.29.21.43.64.43s.65-.14.65-.43-.22-.43-.65-.43S292.19,481.38,292.19,481.66Zm1.93-15.05c0-.28-.11-.42-.32-.42s-.32.14-.32.42.1.44.32.44S294.12,466.9,294.12,466.61Zm-.64,10.75.64.22c.57,0,.86-.14.86-.43S294.34,476.93,293.48,477.36Zm.43,10.11a1,1,0,0,0,.64.54,1.36,1.36,0,0,0,.75,0c.22-.08.33-.18.33-.33a1.48,1.48,0,0,0-.43-1.07.89.89,0,0,0-1.08-.11A.78.78,0,0,0,293.91,487.47Zm1.72-5c-.15,0-.29.11-.43.33s0,.32.32.32.54-.11.54-.32S295.91,482.52,295.63,482.52Zm.43-5.59c0-.28-.11-.43-.33-.43a.29.29,0,0,0-.32.33.29.29,0,0,0,.32.32C296,477.15,296.06,477.08,296.06,476.93Zm-.43,12.47c0,.15.21.22.64.22s.57-.11.43-.32a.71.71,0,0,0-.64-.33A.38.38,0,0,0,295.63,489.4Zm1.93-29c-.29.15-.36.32-.21.54a.72.72,0,0,0,.64.32c.29,0,.43-.07.43-.21C298.42,460.31,298.13,460.1,297.56,460.38Zm.22,34.4c.14,0,.35-.14.64-.43a2.47,2.47,0,0,0,.22-1.08c0-.14-.15-.21-.43-.21s-.47.21-.54.64A1.65,1.65,0,0,0,297.78,494.78Zm4.94-40.2a.69.69,0,0,0-.43-.65c-.43-.28-.64-.07-.64.65a.56.56,0,0,0,.64.64C302.72,455.22,302.86,455,302.72,454.58Zm1.51,43.64c-.15-.29-.22-.22-.22.21s.11.65.32.65a.29.29,0,0,0,.33-.33C304.66,498.54,304.51,498.36,304.23,498.22Zm.21-48.37c-.14,0-.25.29-.32.86s.07.86.43.86.5-.29.43-.86S304.73,449.85,304.44,449.85Zm1.29,55q.21.64.54.54c.21-.07.32-.39.32-1s-.14-.86-.43-.86-.29-.35,0-1.07a2.2,2.2,0,0,0-.11-1c-.07-.07-.25,0-.54.11-1.28.29-1.5.93-.64,1.93Zm1.72-58.69a.57.57,0,0,0-.65-.64c-.43,0-.64.18-.64.53s.21.54.64.54S307.45,446.48,307.45,446.19Zm0,2.8c.43-.14.64-.33.64-.54s-.21-.32-.64-.32-.86.43-.86.86C306.73,449.13,307,449.13,307.45,449Zm3.44-5.16a1.59,1.59,0,0,0-1.51-.11c-.57.21-.86.5-.86.86s.22.54.65.54a2.48,2.48,0,0,0,1.4-.54C311.07,444.22,311.17,444,310.89,443.83Zm3,62.56a.79.79,0,0,0,0-1.08c-.15-.14-.25-.18-.32-.11s-.11.29-.11.65,0,.57.11.64S313.75,506.53,313.9,506.39Zm7.52-68.8h-.75c-.07,0,.11.15.54.43,1.14,1,1.72,1.08,1.72.22,0-.29-.11-.43-.32-.43A5.53,5.53,0,0,1,321.42,437.59Zm6.67,76.11c0,.28.21.43.64.43s.65-.18.65-.54-.22-.54-.65-.54A.57.57,0,0,0,328.09,513.7Zm2.36-77.61c-.43,0-.68.14-.75.43a.81.81,0,0,0,1,1c.28-.07.43-.33.43-.76A.57.57,0,0,0,330.45,436.09Zm4.73,1.29c0-.14-.14-.29-.43-.43a2,2,0,0,0-.86-.22c-.29,0-.43.08-.43.22,0,.57.43.86,1.29.86a1,1,0,0,0,.43-.11C335.32,437.63,335.32,437.52,335.18,437.38Zm1.08,77.18a.43.43,0,0,0-.22-.65c-.29-.14-.43,0-.43.43C335.61,515.06,335.83,515.13,336.26,514.56Zm1.07-78c0-.57-.21-.79-.64-.65s-.65.4-.65.76.22.53.65.53A.56.56,0,0,0,337.33,436.52Zm1.29,75.24q.86-1.29-.21-1.29-.65,0-1.08,1.08c-.29.71-.25,1.07.11,1.07S338.19,512.34,338.62,511.76Zm1.72,3.23a1,1,0,0,0,.65-1.08c0-.57-.43-.86-1.29-.86s-1.29.25-1.29.75a1.35,1.35,0,0,0,.64,1.19A1.1,1.1,0,0,0,340.34,515Zm-.11-76.11c-.21-.14-.32-.1-.32.11s.22.32.65.32C340.56,439.17,340.45,439,340.23,438.88Zm1.4,74c.14-.15.14-.36,0-.65l-.21.22Zm.86-75q-1.08,0-.21,1.5c.43.58.71.83.86.76s.21-.4.21-1C343.35,438.24,343.06,437.81,342.49,437.81Zm.22,74.6a1.35,1.35,0,0,0,.86-1c.14-.5,0-.72-.54-.65a.92.92,0,0,0-.86.86C342.09,512.16,342.28,512.41,342.71,512.41Zm2.36-2.8a.7.7,0,0,0-.64-.43c-1,0-1.15.36-.43,1.08C344.43,510.69,344.78,510.47,345.07,509.61ZM344.64,437c-.72-.14-1.07,0-1.07.43s.24.43.75.43.75-.11.75-.32S344.93,437.09,344.64,437Zm8.17,40c-.14-.57-.43-.5-.86.22l-.43.64a3.94,3.94,0,0,0,.43,1.4,18.34,18.34,0,0,0,.86,1.72c.29.51.5.75.65.75s.43-.07.43-.21A13.35,13.35,0,0,0,352.81,476.93Zm-.43,17.2c.72,1,1.36,1,1.94,0a1.4,1.4,0,0,0,0-1.07.87.87,0,0,0-.86-.43,1.8,1.8,0,0,0-1.08.32C352.09,493.17,352.09,493.56,352.38,494.13Zm.21-51.16c1,1,1.73,1.07,2.15.21.15-.14,0-.5-.32-1.07s-.68-.86-1-.86-.43.18-.87.53S352.17,442.54,352.59,443Zm.22,42.13a.87.87,0,0,0,0-1.5.34.34,0,0,0-.32.21,1.13,1.13,0,0,0-.11.54,1.08,1.08,0,0,0,.11.54A.34.34,0,0,0,352.81,485.1Zm1.51,22.36q.21-.21,0-.75c-.15-.36-.36-.54-.65-.54a.87.87,0,0,0-.86.43.7.7,0,0,0,.22.86Q353.89,507.9,354.32,507.46Zm-.43-20.64a.49.49,0,0,0-.33-.53c-.21-.07-.39,0-.53.32-.15.14-.15.47,0,1a4.75,4.75,0,0,0,.64,1.39c.29.43.5.58.65.43.28,0,.46-.25.53-.75a1,1,0,0,0-.43-1.07A.91.91,0,0,1,353.89,486.82Zm.85,16.34c.43-.43.61-.71.54-.86s-.39-.07-1,.22-.86.57-.86.86S353.89,503.74,354.74,503.16Zm1.73-7.74c.42-.86.28-1.29-.43-1.29-.43,0-.65.11-.65.32a3.22,3.22,0,0,1-.22,1c-.14.29-.14.51,0,.65A1.05,1.05,0,0,0,356.47,495.42Z"/><path class="cls-2" d="M433.21,512c1.15,2.43,1.43,3.9.86,4.4s-2.72.83-6.45,1q-5.37,0-6.66-.64a2.06,2.06,0,0,1-.65-3.23q1.72-2.36,1.94-22.36,0-11.39-.11-13.54c-.08-1.43-.32-2.22-.75-2.37s-6.67-.43-18.28-.43-17.55.15-17.84.43q-1.08.87-.86,18.28,0,15.69.86,17.2c1.29,2.72,1.75,4.48,1.4,5.26s-1.83,1.26-4.41,1.4a29.83,29.83,0,0,1-6.23-.21c-3.59-.29-4.66-1.51-3.23-3.66a11.2,11.2,0,0,0,1.51-4.41q.65-3.33.43-34.5t-1-33.75a10.17,10.17,0,0,0-1.18-3,2.1,2.1,0,0,1-.43-1.51c0-1.29,2.43-1.93,7.31-1.93a17.14,17.14,0,0,1,5.8.64c1,.43,1.54.86,1.61,1.29s-.32,1.51-1.18,3.23q-1.5,3.87-1.29,14.83c0,6.45.25,9.86.75,10.21s6.63.54,18.38.54h17.63l.65-.86c.28-.57.43-4.23.43-11Q422,440.6,420.31,438a3.74,3.74,0,0,1-.43-1.72c0-.57.57-1.07,1.72-1.5a19,19,0,0,1,6.77-.65q4.2.23,5.7,1.29a1.17,1.17,0,0,1,.32,1.08q-.11.64-1.83,5.37a18.43,18.43,0,0,0-.64,6v28.81l.22,32.68Zm-55.68-12.26c-.29.15-.43.32-.43.54s.14.32.43.32.43-.18.43-.54S377.82,499.58,377.53,499.72Zm1.29,11.83c.14-.29.14-.5,0-.65H378c-.57.15-.79.36-.64.65a.77.77,0,0,0,.75.43A.78.78,0,0,0,378.82,511.55Zm.43-72.67c-.43-.71-.93-.86-1.5-.43a.71.71,0,0,0-.11,1c.21.36.75.4,1.61.11C379.54,439.39,379.54,439.17,379.25,438.88ZM379,493.7q-2.37,3-.22,3a.85.85,0,0,0,1-.75,1.14,1.14,0,0,1,1-1,1.35,1.35,0,0,0,1.07-.86,2,2,0,0,0-.21-1.5C381.18,491.77,380.33,492.13,379,493.7Zm-.22-43.42a.58.58,0,0,0,.65-.65,1.08,1.08,0,0,0-.54-1,.59.59,0,0,0-.86.11.79.79,0,0,0,0,1A.89.89,0,0,0,378.82,450.28Zm-.21,2.15a1,1,0,0,0-.33-.76c-.21-.21-.32-.1-.32.33s.11.64.32.64S378.61,452.57,378.61,452.43Zm.64,16.33c-.29-.57-.64-.64-1.07-.21a.57.57,0,0,0,.64.65C379.25,469.2,379.39,469.05,379.25,468.76Zm1.29,19.14a2.35,2.35,0,0,0-.75-.43,1.33,1.33,0,0,0-.86-.11c-.22.07-.32.18-.32.32s.28.36.86.65,1,.36,1.18.21S380.83,488.19,380.54,487.9Zm.64-36.33c0-.29-.25-.5-.75-.65a1.36,1.36,0,0,0-1.07,0c-.22.15-.25.36-.11.65A4.37,4.37,0,0,0,381.18,451.57Zm0,62.56c1-.43,1.15-.79.44-1.08a2.82,2.82,0,0,0-1.29.54c-.58.36-.86.68-.86,1s.07.39.21.32Zm-1.28-57.4c-.15.14-.15.25,0,.32a1,1,0,0,0,.43.11.46.46,0,0,0,.32-.11.44.44,0,0,0,.11-.32.38.38,0,0,0-.43-.43A.38.38,0,0,0,379.9,456.73Zm.21,2.79q0,.21.54,0c.35-.14.53-.25.53-.32s-.18-.11-.53-.11S380.11,459.24,380.11,459.52Zm.86,22.14c.14,0,.21-.14.21-.43a1,1,0,0,0-.32-.75c-.21-.21-.39-.25-.53-.11s-.15.4,0,.76S380.68,481.66,381,481.66Zm-.21-8.6c.42.72.93.43,1.5-.86a3,3,0,0,0,0-2.25c-.29-.79-.54-1.19-.75-1.19s-.25.22-.11.65a3.09,3.09,0,0,1-.32,1.94C380.72,472.2,380.61,472.78,380.76,473.06Zm4.3-4.94c0-.29-.19-.43-.54-.43a2.78,2.78,0,0,1-1.51-.86c-.64-.57-1.18-.64-1.61-.22s-.4.47-.32.54.32.11.75.11a1.85,1.85,0,0,1,1.5.86C384.2,469,384.77,469,385.06,468.12Zm-2.58,6.66c0,.43.1.54.32.33a1,1,0,0,0,.32-.65.29.29,0,0,0-.32-.32C382.58,474.14,382.48,474.35,382.48,474.78Zm14.18-4.08c-.28.29-.14.43.43.43s.86-.18.86-.54-.1-.53-.32-.53S397.09,470.27,396.66,470.7Zm4.09-.64c1.14-1.3,1.07-1.94-.22-1.94-.57,0-.86.36-.86,1.08a2.08,2.08,0,0,1-.43,1.5c-.29.29-.29.43,0,.43S400,470.77,400.75,470.06Zm8.81.64a.43.43,0,1,0,.43-.43A.38.38,0,0,0,409.56,470.7Zm8.39.65q0,.42.75.42c.5,0,.68-.17.54-.53a.78.78,0,0,0-.76-.54C418.12,470.7,418,470.91,418,471.35Zm6.23,32.89c-.29.29-.11.43.54.43s.78-.14.43-.43A.65.65,0,0,0,424.18,504.24Zm1.72-43.64a.43.43,0,1,0-.86,0,.43.43,0,1,0,.86,0ZM425.69,486c-.43.43-.62.68-.54.76s.32,0,.75-.11c.72-.29,1.08-.57,1.08-.86Q426.76,485.31,425.69,486Zm.64-5.59c.86.72,1.29.79,1.29.22,0-.29-.29-.57-.86-.86s-.72-.5-.86-.22S425.76,479.94,426.33,480.37Zm1.94-27.3c.57.58.86.43.86-.43,0-.43-.33-.71-1-.86a6.58,6.58,0,0,1-1.61-.54c-.43-.21-.65,0-.65.54s.07.86.22.86a1.7,1.7,0,0,1,1.07.22A1.77,1.77,0,0,1,428.27,453.07Zm-1.94,41.06a1.48,1.48,0,0,0,1-.54c.35-.35.21-.53-.43-.53s-1,.18-1,.53S426,494.13,426.33,494.13Zm0,7.74q.85.44,1.08,0a1,1,0,0,0-.11-1c-.22-.35-.54-.35-1,0S425.9,501.59,426.33,501.87ZM427,489a.38.38,0,0,0,.43-.43.39.39,0,0,0-.43-.43.38.38,0,0,0-.43.43A.38.38,0,0,0,427,489Zm.21-52a1.86,1.86,0,0,0-.54,1,2.21,2.21,0,0,0,0,1c.07.29.18.43.33.43s.43-.21.43-.64a1.61,1.61,0,0,1,.53-1.18c.36-.36.4-.68.11-1S427.48,436.38,427.19,437Zm.65,9.46c-.29-.43-.58-.36-.86.21,0,.43.17.65.53.65s.54,0,.54-.11A4.63,4.63,0,0,0,427.84,446.41Zm1.5-5.81q.44-1.29-.21-1.29c-1,0-1.29.51-.86,1.51S428.91,441.61,429.34,440.6Z"/><path class="cls-2" d="M504.37,439.53a9.15,9.15,0,0,1-1.29,6.45c-.58.86-1.44,1-2.58.43q-3.45-1.94-12.26-1.94l-7.31-.21-.64,1.07q-.65.87-.75,31.93t.64,33.75a12.24,12.24,0,0,0,1.4,3.55q1.71,2.57-3,3.44a30.93,30.93,0,0,0-3.23.21,34.93,34.93,0,0,1-4.73-.21c-1.86-.58-2.93-1.08-3.22-1.51s-.14-1,.43-2.15a20.36,20.36,0,0,0,1.83-7.63q.32-4.62.32-29.56l-.22-31-.64-.86q-1.73-1.71-9.24-1.29t-11.61,2.37a1.52,1.52,0,0,1-1.94-.11c-.57-.5-.93-2-1.07-4.62s0-4.23.43-4.95v-.21c.43-1,1.75-1.58,4-1.72s9.79-.22,22.68-.22h2.58q26.65.23,27.52.43Q503.93,435.45,504.37,439.53Zm-55,1.5c0,.15.14.22.43.22s.43-.11.43-.32-.14-.33-.43-.33A.38.38,0,0,0,449.33,441Zm3-.86c-.14-.28-.29-.43-.43-.43a3.62,3.62,0,0,0-.21,1.08c0,.29.1.43.32.43S452.34,440.89,452.34,440.17Zm4.3,1.08c.43,0,.65-.07.65-.22A1.48,1.48,0,0,0,456,440a.7.7,0,0,0-.22.86A.86.86,0,0,0,456.64,441.25Zm4.09-3.44c0,.29.1.36.32.21a.63.63,0,0,0,.32-.53.29.29,0,0,0-.32-.33C460.83,437.16,460.73,437.38,460.73,437.81Zm2.58.64a.62.62,0,0,0,.64.11.5.5,0,0,0,.43-.54c0-.28-.21-.43-.64-.43C462.88,437.59,462.73,437.88,463.31,438.45Zm7.95,72.88c-.29.14-.4.47-.32,1s.25.75.53.75.51-.18.65-.54a.92.92,0,0,0-.11-1A.55.55,0,0,0,471.26,511.33Zm1.29-5.59a1.23,1.23,0,0,0,.86.43c.28,0,.57-.21.86-.64s.39-.9.32-1a1.42,1.42,0,0,0-.75-.11Q472.12,504.45,472.55,505.74ZM473,479.3c-.29.57.07.64,1.07.21q.65-.21.54-.75a.67.67,0,0,0-.75-.54c-.43,0-.65.08-.65.22A3.62,3.62,0,0,1,473,479.3Zm.43-37.84.21.22.65-.22C474.12,441.32,473.84,441.32,473.41,441.46Zm1.5,29.67q1.29,0,1.29-.75c0-.5-.18-.76-.53-.76a1.81,1.81,0,0,0-1.19.65,3.32,3.32,0,0,0-.43.75C474.05,471.1,474.34,471.13,474.91,471.13Zm.43,9.46c-.28-.57-.64-.65-1.07-.22a.57.57,0,0,0,.64.65C475.34,481,475.49,480.88,475.34,480.59Zm-.21-32.89q-.64,0-.75.21c-.08.15,0,.51.32,1.08.57,1.29,1.14,1.5,1.72.64a1.29,1.29,0,0,0-.22-1.18A1.23,1.23,0,0,0,475.13,447.7Zm.43,49a.69.69,0,0,0-.75.65,1,1,0,0,0,.53,1.07c.86.72,1.29.86,1.29.43C476.49,497.43,476.13,496.71,475.56,496.71Zm0,3a.79.79,0,0,0-.54,1,1.13,1.13,0,0,0,1,1q.21,0,.21-1.08a2.34,2.34,0,0,0-.1-.86Q476,499.51,475.56,499.72Zm0,10.11c.86.72,1.29.64,1.29-.22,0-.14-.18-.28-.54-.43a1.17,1.17,0,0,0-1,0C475.06,509.33,475.13,509.54,475.56,509.83Zm1.07-71.59q-1.94,0-1.29,1.5c.43.86,1,.86,1.72,0S477.78,438.24,476.63,438.24Zm-1.29,46c0,.43.11.69.33.76s.46-.11.75-.54c.28-.86.07-1.29-.65-1.29C475.49,483.17,475.34,483.53,475.34,484.24Zm1.29-38.91c-.14-.14-.43-.07-.86.22a.64.64,0,0,0,.43.21C476.49,445.62,476.63,445.48,476.63,445.33Zm.65,29.67c.43,0,.5-.29.21-.86a.38.38,0,0,0-.43-.43c-.86-.43-1.29-.22-1.29.64a1.47,1.47,0,0,0,.11.76.88.88,0,0,0,.54.1A3.52,3.52,0,0,1,477.28,475Zm-1.08-32.25c0,.29.11.43.33.43s.32-.07.32-.21-.11-.29-.32-.43S476.2,442.47,476.2,442.75Zm7.74-4.3c-.29-.43-.43-.35-.43.22v.43q.44.43.54,0A.66.66,0,0,0,483.94,438.45Zm4.95.65a1,1,0,0,0-.22-1.08.7.7,0,0,0-.86.22,3.62,3.62,0,0,0-.21,1.07c0,.58.28.72.86.43A2.6,2.6,0,0,0,488.89,439.1Zm2.79.64c.57-.28.57-.64,0-1.07-.72-.57-1.07-.5-1.07.21C490.61,439.89,491,440.17,491.68,439.74Zm3.23,1.72a2.88,2.88,0,0,0,2.79.65,14.52,14.52,0,0,0-1.07-1.29,8.08,8.08,0,0,0-.86-.75,1.33,1.33,0,0,0-.65-.33c-.29,0-.43.22-.43.65A2.26,2.26,0,0,0,494.91,441.46Zm5.37-2.36c.14.43.32.64.54.64s.25-.17.11-.53a2.32,2.32,0,0,1-.22-.76c0-.14-.11-.21-.32-.21S500.14,438.53,500.28,439.1Z"/><path class="cls-2" d="M576.38,512q1.73,3.64.86,4.4t-6.45,1q-5.37,0-6.66-.64a2.06,2.06,0,0,1-.64-3.23q1.71-2.36,1.93-22.36,0-11.39-.11-13.54t-.75-2.37q-.85-.42-18.27-.43t-17.85.43q-1.08.87-.86,18.28,0,15.69.86,17.2c1.29,2.72,1.76,4.48,1.4,5.26s-1.83,1.26-4.41,1.4a29.83,29.83,0,0,1-6.23-.21c-3.58-.29-4.66-1.51-3.22-3.66a11.24,11.24,0,0,0,1.5-4.41q.64-3.33.43-34.5t-1-33.75a9.61,9.61,0,0,0-1.18-3,2.1,2.1,0,0,1-.43-1.51q0-1.94,7.31-1.93a17.14,17.14,0,0,1,5.8.64q1.5.64,1.62,1.29c.07.43-.33,1.51-1.19,3.23q-1.5,3.87-1.29,14.83c0,6.45.25,9.86.76,10.21s6.62.54,18.38.54h17.63l.64-.86c.29-.57.43-4.23.43-11q-.21-12.69-1.93-15.27a3.74,3.74,0,0,1-.43-1.72c0-.57.57-1.07,1.72-1.5a18.93,18.93,0,0,1,6.77-.65q4.19.23,5.69,1.29a1.18,1.18,0,0,1,.33,1.08q-.12.64-1.83,5.37c-.43,1-.65,3-.65,6v28.81l.22,32.68ZM520.7,499.72c-.28.15-.43.32-.43.54s.15.32.43.32.43-.18.43-.54S521,499.58,520.7,499.72ZM522,511.55c.15-.29.15-.5,0-.65h-.86c-.57.15-.79.36-.64.65a.87.87,0,0,0,1.5,0Zm.43-72.67c-.43-.71-.93-.86-1.5-.43a.72.72,0,0,0-.11,1c.22.36.75.4,1.61.11C522.71,439.39,522.71,439.17,522.42,438.88Zm-.21,54.82q-2.37,3-.22,3c.58,0,.9-.25,1-.75a1.14,1.14,0,0,1,1-1,1.35,1.35,0,0,0,1.07-.86,2,2,0,0,0-.21-1.5Q524.15,491.34,522.21,493.7ZM522,450.28a.58.58,0,0,0,.65-.65,1.06,1.06,0,0,0-.54-1,.59.59,0,0,0-.86.11.82.82,0,0,0,0,1A.92.92,0,0,0,522,450.28Zm-.21,2.15a1.07,1.07,0,0,0-.32-.76q-.33-.32-.33.33c0,.43.11.64.33.64S521.78,452.57,521.78,452.43Zm.64,16.33c-.28-.57-.64-.64-1.07-.21a.57.57,0,0,0,.64.65C522.42,469.2,522.57,469.05,522.42,468.76Zm1.29,19.14a2.24,2.24,0,0,0-.75-.43,1.33,1.33,0,0,0-.86-.11c-.21.07-.32.18-.32.32s.29.36.86.65,1,.36,1.18.21S524,488.19,523.71,487.9Zm.65-36.33c0-.29-.25-.5-.75-.65a1.39,1.39,0,0,0-1.08,0c-.21.15-.25.36-.11.65A4.41,4.41,0,0,0,524.36,451.57Zm0,62.56c1-.43,1.14-.79.43-1.08a2.82,2.82,0,0,0-1.29.54c-.58.36-.86.68-.86,1s.07.39.21.32Zm-1.29-57.4c-.15.14-.15.25,0,.32a1,1,0,0,0,.43.11.39.39,0,0,0,.43-.43.43.43,0,1,0-.86,0Zm.21,2.79q0,.21.54,0c.36-.14.54-.25.54-.32s-.18-.11-.54-.11S523.28,459.24,523.28,459.52Zm.86,22.14c.15,0,.22-.14.22-.43a1.06,1.06,0,0,0-.32-.75c-.22-.21-.4-.25-.54-.11s-.15.4,0,.76S523.86,481.66,524.14,481.66Zm-.21-8.6c.43.72.93.43,1.5-.86a3,3,0,0,0,0-2.25c-.29-.79-.53-1.19-.75-1.19s-.25.22-.11.65a3,3,0,0,1-.32,1.94C523.89,472.2,523.79,472.78,523.93,473.06Zm4.3-4.94c0-.29-.18-.43-.54-.43a2.73,2.73,0,0,1-1.5-.86c-.65-.57-1.19-.64-1.62-.22s-.39.47-.32.54.32.11.75.11a1.87,1.87,0,0,1,1.51.86C527.37,469,527.94,469,528.23,468.12Zm-2.58,6.66c0,.43.11.54.32.33a.92.92,0,0,0,.32-.65.28.28,0,0,0-.32-.32C525.76,474.14,525.65,474.35,525.65,474.78Zm14.19-4.08c-.29.29-.15.43.43.43s.86-.18.86-.54-.11-.53-.32-.53S540.27,470.27,539.84,470.7Zm4.08-.64c1.15-1.3,1.08-1.94-.21-1.94-.58,0-.86.36-.86,1.08a2.13,2.13,0,0,1-.43,1.5c-.29.29-.29.43,0,.43S543.2,470.77,543.92,470.06Zm8.82.64a.38.38,0,0,0,.43.43.43.43,0,1,0,0-.86A.38.38,0,0,0,552.74,470.7Zm8.38.65q0,.42.75.42c.5,0,.68-.17.54-.53a.76.76,0,0,0-.75-.54C561.3,470.7,561.12,470.91,561.12,471.35Zm6.23,32.89c-.28.29-.1.43.54.43s.79-.14.43-.43A.65.65,0,0,0,567.35,504.24Zm1.72-43.64a.43.43,0,1,0-.43.43A.38.38,0,0,0,569.07,460.6ZM568.86,486c-.43.43-.61.68-.54.76s.32,0,.75-.11c.72-.29,1.08-.57,1.08-.86S569.58,485.53,568.86,486Zm.64-5.59c.87.72,1.29.79,1.29.22,0-.29-.28-.57-.86-.86-.43-.43-.71-.5-.86-.22S568.93,479.94,569.5,480.37Zm1.94-27.3c.57.58.86.43.86-.43,0-.43-.32-.71-1-.86a6.73,6.73,0,0,1-1.61-.54c-.43-.21-.65,0-.65.54s.08.86.22.86a1.75,1.75,0,0,1,1.08.22A1.71,1.71,0,0,1,571.44,453.07Zm-1.94,41.06a1.48,1.48,0,0,0,1-.54c.36-.35.22-.53-.43-.53s-1,.18-1,.53S569.22,494.13,569.5,494.13Zm0,7.74q.87.44,1.08,0a1,1,0,0,0-.11-1c-.21-.35-.54-.35-1,0S569.07,501.59,569.5,501.87Zm.65-12.9a.38.38,0,0,0,.43-.43.43.43,0,1,0-.86,0A.38.38,0,0,0,570.15,489Zm.22-52a1.86,1.86,0,0,0-.54,1,1.94,1.94,0,0,0,0,1c.07.29.18.43.32.43.29,0,.43-.21.43-.64a1.62,1.62,0,0,1,.54-1.18c.35-.36.39-.68.1-1S570.65,436.38,570.37,437Zm.64,9.46c-.29-.43-.57-.36-.86.21,0,.43.18.65.54.65s.53,0,.53-.11A4.63,4.63,0,0,0,571,446.41Zm1.5-5.81q.43-1.29-.21-1.29c-1,0-1.29.51-.86,1.51C571.72,441.68,572.08,441.61,572.51,440.6Z"/><path class="cls-2" d="M668.82,486.18q-2.58,9.46-5.8,13.11a2.83,2.83,0,0,0-.65,1.18c0,.22-.21.54-.64,1s-1.15,1.22-2.15,2.37a20.11,20.11,0,0,1-3,3.22q-1.94,1.73-4,3.33a30.41,30.41,0,0,1-3.54,2.48,50.2,50.2,0,0,1-8.82,3.87l-6.34,1a39.82,39.82,0,0,1-5.38.65,5.54,5.54,0,0,0-1.39-.11c-.58-.14-1.94-.36-4.09-.65a38.74,38.74,0,0,1-11-3.22,11.06,11.06,0,0,0-2.26-.86c-.21,0-.61-.32-1.18-1s-.93-1-1.08-1q-1.29,0-6.66-5.16a20.93,20.93,0,0,1-3.55-4.2,17.29,17.29,0,0,0-1.93-2.68,11.74,11.74,0,0,1-1.61-2.37,11.08,11.08,0,0,1-1.29-2.47,10.46,10.46,0,0,0-1-2.26,8.05,8.05,0,0,1-1-2.47,11.2,11.2,0,0,0-.86-2.69q-1.73-5.37-1.18-14.19t2.9-14.18a69.45,69.45,0,0,1,3.66-7.31c.14-.14.86-1,2.15-2.58q5.14-6.66,9.67-9.25c.71-.43,1.29-.78,1.72-1.07a9.33,9.33,0,0,1,2.36-1.29c1.29-.57,2.62-1.15,4-1.72s2.47-1,3.33-1.29q8.38-2.14,13.55-1.29a67.65,67.65,0,0,1,8.6,1.5,55.15,55.15,0,0,1,7.31,3.23,35.84,35.84,0,0,1,11.6,9.24c1,1.15,1.72,1.94,2.15,2.37a20.51,20.51,0,0,1,2.37,3.87c.43,1.15.78,1.79,1.07,1.93s.61.79,1,1.94a18,18,0,0,0,1.51,3.44,6.4,6.4,0,0,1,1,3,12.85,12.85,0,0,0,.65,3.44q.65,2.15.64,8.92A45.38,45.38,0,0,1,668.82,486.18Zm-77-9.68c-.43,0-.64.26-.64.76s.21.75.64.75.65-.25.65-.75S592.29,476.5,591.86,476.5Zm.43,7.1q1.29.64,1.29,0a1.94,1.94,0,0,0-.21-.86,2.1,2.1,0,0,0-.65-.75c-.29-.22-.5-.25-.64-.11C591.22,482.45,591.29,483,592.29,483.6ZM594,463.18a.67.67,0,0,0-.64.43c-.15.28,0,.43.43.43s.64-.15.64-.43A.38.38,0,0,0,594,463.18Zm-.43,12a.41.41,0,0,0,.11.33.88.88,0,0,0,.54.1,1.38,1.38,0,0,0,.86-.64.44.44,0,0,0-.11-.32.88.88,0,0,0-.54-.11A1.38,1.38,0,0,0,593.58,475.21Zm1.08,12.26c-.29,0-.43.29-.43.86a1.71,1.71,0,0,0,.21,1.07,1.94,1.94,0,0,0,1.4.33c.5-.08.75-.33.75-.76a1.06,1.06,0,0,0-.32-.75,2.88,2.88,0,0,0-.86-.54A2.54,2.54,0,0,0,594.66,487.47Zm1.93,6.66c0-.86-.43-1.14-1.29-.86-.43.15-.5.4-.21.76a1.22,1.22,0,0,0,1,.53C596.41,494.56,596.59,494.42,596.59,494.13Zm.65-31.17Q596,463,596,464c.28.28.67.18,1.18-.33S597.67,463,597.24,463Zm-.22-6.23c0,.86.14,1.36.43,1.5s.5-.07.65-.64a8.77,8.77,0,0,0,.42-1.08,4.45,4.45,0,0,0-.1-1.29c-.08-.14-.32-.14-.75,0A1.69,1.69,0,0,0,597,456.73Zm1.29-3.66c-.14,0-.29.11-.43.32s-.07.33.22.33.42-.11.42-.33S598.45,453.07,598.31,453.07Zm60.84,14.4q-1.93-7.31-4.09-9.67c-.14-.28-.61-1-1.39-2.15a40.9,40.9,0,0,0-3.34-4.08,34.83,34.83,0,0,0-4.83-3.87q-3.12-2.15-4-2.15a2.45,2.45,0,0,1-1.4-.54,7.55,7.55,0,0,0-2.25-1c-1.58-.43-2.58-.71-3-.86-1-.14-3-.28-6-.43a28.36,28.36,0,0,0-12,2.58,30.64,30.64,0,0,0-9,6.67c-.57.57-1.29,1.36-2.15,2.36s-1.58,1.9-2.15,2.69a3.92,3.92,0,0,0-.86,1.61c0,.15-.25.5-.75,1.08a5,5,0,0,0-1.08,2,32.38,32.38,0,0,1-1.18,3.33,37.22,37.22,0,0,0-1.4,6.66,20.25,20.25,0,0,0-.1,6.24c.28,1.58.57,3.08.86,4.51a20.41,20.41,0,0,0,1.18,4.63,33.39,33.39,0,0,0,2.36,5.16,40,40,0,0,0,2.69,4.19,46.78,46.78,0,0,0,5.37,5.37,10.35,10.35,0,0,0,1.62,1.18c.78.51,1.53,1,2.25,1.4a4.91,4.91,0,0,0,1.29.65,13.24,13.24,0,0,1,2.15,1,11.49,11.49,0,0,0,3.34,1.19c.93.14,2,.36,3.33.64a23,23,0,0,0,11.61-.43,27.69,27.69,0,0,0,4.51-1.61,5.94,5.94,0,0,1,2-.75,2.61,2.61,0,0,0,1.4-.65c.57-.43,1.58-1.14,3-2.15a34.83,34.83,0,0,0,5.48-5.27q3.33-3.75,3.33-4.62a2.91,2.91,0,0,1,.54-1.29,36.38,36.38,0,0,0,2-5.48,30.8,30.8,0,0,0,1.51-9.57A38.15,38.15,0,0,0,659.15,467.47Zm-60,31.82c.86.86,1.29.72,1.29-.43,0-.57-.21-.86-.64-.86s-.69.15-.76.43A1.23,1.23,0,0,0,599.17,499.29Zm1.29-46a1.62,1.62,0,0,0-1.18,1,1.37,1.37,0,0,0,.11,1.4c.28.58.46.86.53.86a5.48,5.48,0,0,0,.75-1.5c.58-1.15.72-1.72.43-1.72Zm.21,44.71c0,.29.22.43.65.43s.65-.14.65-.43-.22-.43-.65-.43S600.67,497.72,600.67,498Zm1.94-48.37c0-.28-.11-.43-.32-.43s-.32.15-.32.43.1.43.32.43S602.61,449.92,602.61,449.63Zm0,55.68c0,.15.25.22.75.22s.75-.11.75-.33-.25-.32-.75-.32S602.61,505,602.61,505.31Zm3.22-3.87c.43-.14.5-.39.22-.75s-.58-.39-.86-.11-.32.54-.11.75A.58.58,0,0,0,605.83,501.44Zm1.08,3.44c0,.15.11.22.32.22s.32-.18.32-.54-.1-.46-.32-.32A.73.73,0,0,0,606.91,504.88Zm.64-61.91c0,.14.15.21.43.21h1a.76.76,0,0,0,.75-.43c.15-.14.15-.32,0-.53s-.53-.22-1.18,0S607.55,442.68,607.55,443Zm.43,2.58a.38.38,0,0,0,.43-.43c0-.29-.07-.43-.21-.43s-.29.14-.43.43S607.7,445.55,608,445.55Zm2.37,63a.87.87,0,0,0,.86-.43c.14-.29-.07-.68-.65-1.19s-1-.6-1.18-.32-.18.68.11,1.18S610.06,508.54,610.35,508.54Zm3.22-68.37a1.07,1.07,0,0,1,0,1.29c-.29.43-.29.65,0,.65a6.18,6.18,0,0,0,1.08-.22c1-.28,1.07-1,.21-2.15-.57-.86-1-1-1.29-.43A.93.93,0,0,0,613.57,440.17Zm8.17,73.74.43-.21c-.14-.15-.36-.15-.64,0ZM624.32,438c-.72,0-.79.29-.21.86q.21.22.54,0a.63.63,0,0,0,.32-.53C625,438.13,624.75,438,624.32,438Zm-.43,74c0,.28.11.43.33.43s.32-.15.32-.43-.11-.43-.32-.43S623.89,511.69,623.89,512Zm5.59.21c.72.72,1.08.57,1.08-.43a1.81,1.81,0,0,0-.22-1c-.14-.21-.36-.24-.64-.1C628.84,511,628.76,511.47,629.48,512.19Zm0-73.31a1,1,0,0,0,.22.54.63.63,0,0,0,.53.32q.33,0,.33-.21A1,1,0,0,0,629.48,438.88Zm10.11,1.29q-.65-.85-1.08-.21a1.32,1.32,0,0,0,.32.64,1.42,1.42,0,0,0,.65.54c.21.07.35.07.43,0S639.87,440.75,639.59,440.17ZM644.1,510c1.15,1.29,1.79,1.37,1.94.22a3.23,3.23,0,0,0-.86-1.51.93.93,0,0,0-1.29-.21C643.46,508.82,643.53,509.33,644.1,510Zm4.52-64.28a1.75,1.75,0,0,0-.43,1.29c.28,0,.71-.35,1.29-1.07l.42-.65Zm.64-2.36c-.14-.29-.32-.43-.54-.43a.29.29,0,0,0-.32.32c0,.22.18.32.54.32S649.4,443.54,649.26,443.4Zm3.22,58.47c-.57,0-.64.65-.21,1.94l.21.43c.58.57.86.5.86-.22a3.62,3.62,0,0,0-.21-1.07C652.84,502.23,652.63,501.87,652.48,501.87Zm.43,4.73a.67.67,0,0,0,.43-.64c0-.43-.28-.36-.86.21a.43.43,0,0,0,.11.32A.4.4,0,0,0,652.91,506.6Zm4.3-56.54c-.57,0-.86.22-.86.65,0,.72.25,1.11.76,1.18s.82-.25,1-1a1.47,1.47,0,0,0-.1-.75A1.5,1.5,0,0,0,657.21,450.06Zm1.94,7.31c-.43.43-.47.65-.11.65s.68-.25,1-.76.36-.75.21-.75S659.72,456.8,659.15,457.37Zm1.93,35.47c.72-.14,1.11-.39,1.19-.75s-.26-.5-1-.43-1.11.29-1.18.65S660.37,492.84,661.08,492.84Zm.86,2.37c0-.72-.21-1.08-.64-1.08-1,0-1.36.58-1.08,1.72a.71.71,0,0,0,.86.54C661.51,496.32,661.8,495.93,661.94,495.21Zm-1.29-40.63a.72.72,0,0,0,0,.75.75.75,0,0,0,.65.32.56.56,0,0,0,.64-.64.68.68,0,0,0-.53-.76A.63.63,0,0,0,660.65,454.58Zm1.29,11c0,.29.18.43.54.43s.47-.14.32-.43-.32-.43-.53-.43S661.94,465.25,661.94,465.54Zm1.51-3.44-.43.22c0,.57.14.86.43.86s.43-.07.43-.22A2.35,2.35,0,0,0,663.45,462.1Zm.21,4.51c-.43.29-.64.54-.64.76s.21.32.64.32.65-.25.65-.75S664.09,466.33,663.66,466.61Zm.65,20c0-.57-.11-.82-.32-.75s-.4.32-.54.75.14.82.43.75S664.31,487,664.31,486.61Zm.64-15.48c.29,0,.47,0,.54-.11a.44.44,0,0,0,.11-.32,1.08,1.08,0,0,0-.75-.22q-.54,0-.54.33C664.31,471,664.52,471.13,665,471.13Zm.43,3.44c.29,0,.43-.11.43-.32s-.14-.33-.43-.33-.43.11-.43.33S665.09,474.57,665.38,474.57ZM666,478a1.68,1.68,0,0,0,.11-1.51c-.22-.43-.47-.28-.76.43a4.85,4.85,0,0,0-.43,1.51C665.09,478.87,665.45,478.73,666,478Zm0-9.89c0-.43-.11-.65-.32-.65s-.33.19-.33.54.11.54.33.54S666,468.41,666,468.12Z"/><path class="cls-2" d="M744.28,437a5.1,5.1,0,0,1-.65,2.15,15.24,15.24,0,0,0-1.5,6.45q-.23,4.08-.22,23.43,0,18.5-.21,23.76t-1.08,7a3.68,3.68,0,0,0-.64,1.61,6.76,6.76,0,0,1-.75,2.15c-.51,1.08-.86,1.62-1.08,1.62s-.32.14-.32.43c0,.57-1,1.93-3,4.08a26.89,26.89,0,0,1-4.09,3.87,44.9,44.9,0,0,1-9.45,4.08q-4.74,1.08-14.41.44a26.72,26.72,0,0,1-8.17-2.15,25,25,0,0,1-5.8-3.44,22.57,22.57,0,0,1-4.19-4.52,40.16,40.16,0,0,1-3.55-6.23,28.58,28.58,0,0,1-1.72-8.07q-.44-4.83-.22-26.33V445.55l-.86-3.66q-1.07-3.87-1.5-3.87c-.29-.14-.43-.46-.43-1a1.36,1.36,0,0,1,.64-1.19c.86-.71,2.73-1.14,5.59-1.29a22.52,22.52,0,0,1,6.67.43c1.14.43,1.83,1,2,1.62s.18,1-.11,1.18c-.72.43-1.43,2.22-2.15,5.37q-.21,1.72-.21,26.23,0,18.27.11,21.71a30.13,30.13,0,0,0,.53,5.38,19.44,19.44,0,0,0,6.67,9.24,13.79,13.79,0,0,0,4,1.83,27.15,27.15,0,0,0,8.17,1,29.17,29.17,0,0,0,8.07-.86q5.79-2.15,7.73-5.16l1.51-2.26c.43-.65.93-1.47,1.5-2.47l.65-1.51.21-54L730.73,440q-1.71-3.43-.86-4.19c.58-.5,2.94-.76,7.1-.76a32.38,32.38,0,0,1,6,.33A1.52,1.52,0,0,1,744.28,437ZM684.94,470.7c0,.29.18.43.54.43s.54-.14.54-.43-.18-.43-.54-.43S684.94,470.41,684.94,470.7Zm.65-29.67a.62.62,0,0,0,.64.11.5.5,0,0,0,.43-.54.84.84,0,0,0-.64-.86.72.72,0,0,0-.43,1.29ZM688,464.46c0-.57-.25-.85-.75-.85a.75.75,0,0,0,0,1.5C687.7,465.11,688,464.9,688,464.46Zm-1.5,3.23c0,.29.14.36.43.22s.43-.33.43-.54-.15-.32-.43-.32S686.45,467.26,686.45,467.69Zm1.07-23.86c-1,.43-1.29.86-.86,1.29.14.29.57.39,1.29.32s1.11-.18,1.19-.32a8.8,8.8,0,0,0,.1-1.94c.14-2.15-.14-3.36-.86-3.65a4.39,4.39,0,0,0-.1,2C688.35,442.79,688.09,443.54,687.52,443.83Zm-.64,13.11c0,.29,0,.47.11.54s.17,0,.32-.11a.38.38,0,0,0,.43-.43C687.59,456.37,687.31,456.37,686.88,456.94Zm.86,14.83q-.43-.21-.54,0c-.07.15,0,.36.32.65a.75.75,0,0,0,.54.21.28.28,0,0,0,.32-.32C688.38,472.1,688.17,471.92,687.74,471.77Zm-.43,22.15q.42,1.29,1.29,0c.28-.29.14-.5-.43-.65s-.72-.18-.86-.1S687.16,493.49,687.31,493.92Zm.64,4.94a1,1,0,0,0,1,.32c.36-.07.54-.24.54-.53,0-.72-.43-.93-1.29-.65C687.74,498.15,687.66,498.43,688,498.86Zm0-45.57c0,.29.18.43.54.43a.54.54,0,0,0,0-1.08C688.13,452.64,688,452.86,688,453.29ZM689,464.46a1.41,1.41,0,0,0-.65.87,1,1,0,0,0,.22,1.07.6.6,0,0,0,.86.11,1.16,1.16,0,0,0,.43-1,3,3,0,0,0-.11-1.18C689.71,464.29,689.46,464.32,689,464.46Zm-.43-5.37a.38.38,0,0,0,.43-.43c0-.28-.11-.43-.32-.43s-.33.15-.33.43S688.45,459.09,688.6,459.09Zm.21,23.65c-.14-.14-.25-.14-.32,0a1,1,0,0,0-.11.43c0,.57.11.86.33.86s.32-.18.32-.54A1,1,0,0,0,688.81,482.74Zm0-14.62a1.13,1.13,0,0,0,.43,1c.29.21.5.18.65-.11s.32-.39.11-.75a.92.92,0,0,0-.76-.54A.38.38,0,0,0,688.81,468.12Zm.22,22.36a.61.61,0,0,0,.75.32,1,1,0,0,0,.75-.54c.14-.43.14-.71,0-.86s-.46-.07-1,.22S688.88,490.19,689,490.48Zm.86-41.92a.38.38,0,0,0,.43-.43c0-.29-.22-.43-.65-.43s-.57.14-.43.43A.68.68,0,0,0,689.89,448.56Zm.43,52.88c.43-.14.64-.35.64-.64s-.5-.14-1.07.43a.4.4,0,0,0,.11.32C690.07,501.62,690.17,501.59,690.32,501.44Zm.86,3.23c.28,0,.5-.29.64-.86a1.39,1.39,0,0,0,.11-.86q-.1-.21-.75,0a1,1,0,0,0-.54.64,1.36,1.36,0,0,0,0,.75A.5.5,0,0,0,691.18,504.67Zm6.23,3.87c.29,0,.43-.29.43-.86l-.43-.22Q696.77,508.54,697.41,508.54Zm3.44,4.51c.57,0,.9-.07,1-.21a2.28,2.28,0,0,0,.11-.86,1.46,1.46,0,0,0-.76-1.08.82.82,0,0,0-1,.22,1.73,1.73,0,0,0-.43,1.29C699.78,512.84,700.13,513.05,700.85,513.05Zm2.37,1.51c.14-.15,0-.29-.43-.43s-.86-.22-.86.21.17.47.53.54A.64.64,0,0,0,703.22,514.56Zm1.72-2.8a.38.38,0,0,0,.43.43c.28,0,.43-.18.43-.54s-.15-.53-.43-.53S704.94,511.33,704.94,511.76Zm2.15,1.29c.14-.29,0-.43-.43-.43a.58.58,0,0,0-.65.65C706.15,513.84,706.51,513.77,707.09,513.05ZM715,515c.29,0,.14-.33-.43-1s-.93-.9-1.07-.75-.15.32,0,.53a4.68,4.68,0,0,0,.64.76A1.27,1.27,0,0,0,715,515Zm2.15-3.87.43-.22c-.14-.14-.36-.14-.64,0Zm11-2.58a.92.92,0,0,0,.86.32.5.5,0,0,0,.43-.54c0-.43-.14-.64-.43-.64a1,1,0,0,0-.75.32C728.05,508.21,728,508.4,728.15,508.54ZM734,504c0,.15.21.15.64,0s.65-.25.65-.32-.22-.11-.65-.11S734,503.74,734,504Zm.43-22.36c.57.15.86,0,.86-.43,0-.14-.22-.14-.65,0S734.1,481.52,734.39,481.66Zm1.29-33.32c-.29-.28-.5-.35-.65-.21s-.21.43.22.86.5.5.64.21A.72.72,0,0,0,735.68,448.34Zm-.43,22.36c0,.29.11.36.32.21a.61.61,0,0,0,.32-.53.28.28,0,0,0-.32-.32C735.36,470.06,735.25,470.27,735.25,470.7Zm.43-27.09c.14.43.35.65.64.65s.5-.22.65-.65,0-.5-.43-.64-.72-.14-.86,0S735.53,443.33,735.68,443.61Zm1.93,36.55q.21-.86,0-1.08t-1,.33c-.51.36-.76.68-.76,1a.5.5,0,0,0,.43.54.9.9,0,0,0,.76-.11A1.56,1.56,0,0,0,737.61,480.16Zm.65-27.3c-.15-.72-.51-1-1.08-.86a1.57,1.57,0,0,0-1,1,1.4,1.4,0,0,0-.11,1.19.41.41,0,0,0,.64.21,8.05,8.05,0,0,1,1.19-.43C738.44,453.79,738.54,453.43,738.26,452.86Zm-1.08-5.38a1.58,1.58,0,0,0,0-1.18c-.14-.5-.32-.75-.53-.75s-.33.36-.33,1.07.11.94.33,1.08S737,447.77,737.18,447.48Zm-.64,11.83.43-.22c-.15-.14-.36-.14-.65,0Zm.86,3.65c0,.43.18.58.54.43a.76.76,0,0,0,.53-.75.47.47,0,0,0-.53-.54C737.58,462.1,737.4,462.39,737.4,463Zm.43,12.68q.64-.21.75-1.29c.07-.71-.07-1-.43-.86s-.57.54-.64,1.19S737.54,475.64,737.83,475.64Zm.54,19.24c.21-.21.17-.32-.11-.32s-.43.22-.43.65A.9.9,0,0,0,738.37,494.88Z"/><path class="cls-2" d="M806.84,490.26a21.05,21.05,0,0,1,.53,9.35,20.25,20.25,0,0,1-3.11,8.71,19.91,19.91,0,0,1-13.12,9.24,43.58,43.58,0,0,1-8.49.76q-5.7.1-7.42-.54a9.09,9.09,0,0,0-2.15-.64c-.86,0-3.36-1.15-7.52-3.44a28.77,28.77,0,0,1-4.19-3.87q-3.12-3.22-3.12-3.87a7.65,7.65,0,0,0-.86-2.15q-1.93-3.66-2.36-10.32-.22-5.37,2.58-6.45a5.28,5.28,0,0,1,4.51.32,3.67,3.67,0,0,1,2.15,3.33,21,21,0,0,0,1.93,9,16.35,16.35,0,0,0,3.66,4.52,17.1,17.1,0,0,0,5.91,3.54,20.7,20.7,0,0,0,7,1.19q10.53,0,14.19-7.74a10.48,10.48,0,0,0,.86-5q-.64-8.38-13.76-14.4-2.16-.86-7.53-3.66a41.6,41.6,0,0,1-8.81-5.91,26.2,26.2,0,0,1-3.76-3.76,2.86,2.86,0,0,0-.75-1,12.22,12.22,0,0,1-1.72-3.12l-1.51-3V455q0-6.45.75-8t1.08-1.5c.21,0,.32-.22.32-.65s.65-1.43,1.93-3a24,24,0,0,1,5.81-4.94c2.15-1.15,3.51-1.72,4.08-1.72a9.49,9.49,0,0,0,2.58-.54,24.73,24.73,0,0,1,5.49-.75,24.16,24.16,0,0,1,7.2.64q3.43,1.08,3.87,1.29a16.12,16.12,0,0,1,3.11,1.51,46.9,46.9,0,0,0,4.2,2.15,5.29,5.29,0,0,1,2.47,2.36,19.33,19.33,0,0,1,.54,5.81c0,3.44-.26,5.55-.76,6.34a4.09,4.09,0,0,1-1.18,1.4,1.17,1.17,0,0,1-1,0,.83.83,0,0,1-.53-.86,10,10,0,0,0-1.4-2.69c-.93-1.51-1.51-2.26-1.72-2.26a14.73,14.73,0,0,1-3-1.93,15.41,15.41,0,0,0-3-1.94,13,13,0,0,1-2.47-.86,14.38,14.38,0,0,0-11.07-.32q-6.13,2-7.42,6.56a12,12,0,0,0,1.93,11.39,25.51,25.51,0,0,0,3.12,3,7.84,7.84,0,0,0,2.47,1.72,1.48,1.48,0,0,1,1,.54,21.19,21.19,0,0,0,3.76,2.15l3.87,1.93,4.09,2q2.79,1.51,5.59,3.34a54.86,54.86,0,0,1,4.62,3.33c1.21,1,1.83,1.72,1.83,2.15a.67.67,0,0,0,.43.64q.86.22,2.25,2.58A23.1,23.1,0,0,1,806.84,490.26ZM760.62,492c-1-.86-1.65-1-1.94-.43,0,.29.29.72.86,1.29s1,.72,1.4.43S761.19,492.56,760.62,492Zm-.65,3.87c-.86.58-.64.86.65.86h.86l-.43-.64C760.62,495.64,760.26,495.57,760,495.85Zm1.29,5.38c1,.72,1.51.72,1.51,0,0-.29-.26-.61-.76-1a2.3,2.3,0,0,0-1.18-.54C760.4,500,760.54,500.51,761.26,501.23Zm.22,4.3c.14.28.28.43.43.43s.21-.15.21-.43a.38.38,0,0,0-.43-.43C761.4,505.1,761.33,505.24,761.48,505.53Zm1.93-44.93c.43.57.72.43.86-.43v-.43c0-.14-.18-.11-.54.1S763.27,460.31,763.41,460.6Zm2.37-2.37c.71-.43.93-.86.64-1.29-.29-1-1.07-1-2.37,0a1,1,0,0,0-.21,1.51C764.41,459,765.06,459,765.78,458.23Zm-.65-9a1.18,1.18,0,0,0-1.5-.21c0,.43.28.64.85.64a1,1,0,0,0,.44-.1A.36.36,0,0,0,765.13,449.2Zm1.07,2.37c-.14-.43-.93-.29-2.36.43q-.21.21.21.21a6.11,6.11,0,0,0,1.3-.21C765.92,451.86,766.2,451.71,766.2,451.57ZM765.13,507c.43,0,.65-.14.65-.43s-.19-.43-.54-.43a.8.8,0,0,0-.76.43.43.43,0,0,0,.11.32C764.66,507,764.84,507,765.13,507Zm1.72-62.34q-1.08.85,0,1.29c.86.14,1.36.1,1.5-.11s0-.54-.42-1S767.14,444.4,766.85,444.69Zm-.22,8.38c0,.15.18.22.54.22s.54-.11.54-.33-.18-.32-.54-.32S766.63,452.79,766.63,453.07Zm1.51,56.33q.43-.43,0-1.29c-.29-.57-.57-.79-.86-.65s-.5.58-.65,1.29.15,1.15.43,1.29S767.71,510,768.14,509.4Zm-.43-66.65c0,.58.25.86.75.86s.75-.1.75-.32a1.94,1.94,0,0,0-.53-1c-.36-.43-.61-.64-.75-.64S767.71,442,767.71,442.75ZM769,465.86c.14-.21.11-.32-.11-.32s-.32.22-.32.65C768.71,466.19,768.86,466.08,769,465.86Zm1.29,45.47q.21.21.54,0a1,1,0,0,0,.32-.86c0-.28-.22-.43-.65-.43a.51.51,0,0,0-.53.43A.86.86,0,0,0,770.29,511.33Zm4.08.22-.64-.43q-1.08,0-1.08.75c0,.5.25.64.76.43A1.85,1.85,0,0,0,774.37,511.55Zm0-70.73c-.57-.72-1-.79-1.29-.22a1.31,1.31,0,0,0,.22.76,1.82,1.82,0,0,0,.54.53,1,1,0,0,0,.53.22Q774.81,442.11,774.37,440.82Zm.86,29.88a.38.38,0,0,0,.43.43.43.43,0,0,0,0-.86A.38.38,0,0,0,775.23,470.7Zm.43-30.1a1,1,0,0,0,.11.43c.07.15.18.15.32,0a.76.76,0,0,0,.43-.75c0-.36-.14-.54-.43-.54S775.66,440,775.66,440.6Zm.86,33.11a1.5,1.5,0,0,0,1.51.43c0-.14-.22-.36-.65-.65a2.16,2.16,0,0,0-1.07-.43C776.16,473.06,776.23,473.28,776.52,473.71Zm2.15,39.13c.72-.72.93-1.15.65-1.29a2.29,2.29,0,0,0-2.8.21c-.43.29-.36.72.22,1.29l.86.86ZM779.1,472q0,.21.33.21a.28.28,0,0,0,.32-.32.29.29,0,0,0-.32-.32C779.21,471.56,779.1,471.7,779.1,472ZM781,439.74a2.48,2.48,0,0,0,1.07-.43,2.84,2.84,0,0,0,.22-1.5c-.15-1-.29-1.51-.43-1.51s-.43.47-.43,1-.43.93-1.29,1.29-1.11.65-.75.86A3.21,3.21,0,0,0,781,439.74ZM791.57,481a2.65,2.65,0,0,0,1.51-.43q.64-.43,0-1.08t-1.62,0q-1,.64-.75,1.08A.86.86,0,0,0,791.57,481Zm2.58,2.58a.43.43,0,1,0,.43-.43A.38.38,0,0,0,794.15,483.6Zm.65-40q-.64,0,0,1.08c.71,1.29,1.21,1.43,1.5.43S796.09,443.61,794.8,443.61Zm2.36,0,.43.22c.57.14.86.07.86-.22Q798.45,442.76,797.16,443.61ZM798.67,486c.14.58.6.86,1.39.86s1.19-.21,1.19-.64-.29-.72-1.29-.86a3.61,3.61,0,0,0-1.4-.11C798.34,485.28,798.38,485.53,798.67,486Zm1.72-40.84c-1.15-1-1.72-1.08-1.72-.22,0,.43.64.72,1.93.86C801,445.76,801,445.55,800.39,445.12Zm-.65,58.9a.6.6,0,0,0,.75.32.66.66,0,0,0,.54-.75.56.56,0,0,0-.64-.64C799.38,503,799.17,503.31,799.74,504Zm1.29-9.67c.57.72.86.86.86.43a1.73,1.73,0,0,0-.21-.65c-.29-.43-.54-.57-.76-.43S800.74,494.06,801,494.35Zm2.8,3.87c.57-.43.67-.76.32-1a2,2,0,0,0-1.61,0c-.72.21-1.08.54-1.08,1,0,.14.14.25.43.32a2.26,2.26,0,0,0,1,0A4.09,4.09,0,0,0,803.83,498.22Zm-1.08-8.17c-.14.14-.14.36,0,.64s.32.43.54.43.32-.21.32-.64-.11-.68-.32-.75S802.89,489.76,802.75,490.05Z"/><path class="cls-2" d="M875.41,511.33c0,2.58-.29,4.16-.86,4.73l-.86,1.08-24.5.21q-24.51,0-27.09-.21c-1.72-.15-2.73-.36-3-.65-.86-.72-.86-1.72,0-3q1.71-2.36,1.72-36.33.21-31.17-.43-34.72c-.43-2.36-.86-3.76-1.29-4.19a2.32,2.32,0,0,1-.65-1.72c0-1,1.08-1.61,3.23-1.83s9.53-.39,22.14-.54H869l1.29,1.08a5,5,0,0,1,1.08,1.4,12.53,12.53,0,0,1,.21,3.11,38.9,38.9,0,0,1-.53,4.19,4,4,0,0,1-1.08,2.26,1.35,1.35,0,0,1-1.61.22c-.72-.29-1.94-.79-3.66-1.51l-2.58-1.07H847q-11.19,0-13.23.21a6.81,6.81,0,0,0-2.68.65q-.64.85-.65,8.27t.32,8c.22.36,1.47.64,3.77.86a24.26,24.26,0,0,1,5,.86,8.51,8.51,0,0,0,2.26.54A5.27,5.27,0,0,1,844,464a18.13,18.13,0,0,0,8.06,1.61q5.26.11,7.84-1.4a5.06,5.06,0,0,1,4.63-.32,4.18,4.18,0,0,1,2.68,3.12,5.9,5.9,0,0,1-.86,4.3q-2.58,3.64-13.33,4.08a29.22,29.22,0,0,1-13.11-2.37c-3.3-1.43-5.8-1.93-7.52-1.5-.86.29-1.4,1.29-1.62,3s-.32,6.88-.32,15.48v16.12l1.08.65q1.07.65,17,.86h9.67c2.44,0,4.44,0,6-.11a17.79,17.79,0,0,0,3.55-.43c.79-.22,1.61-.47,2.47-.75s1.51-.76,1.51-1,.35-.32,1.07-.32Q875.2,505.1,875.41,511.33ZM822.74,439.1c-.14.29-.18.47-.1.53s.24.11.53.11a1.28,1.28,0,0,0,.86-.86.86.86,0,0,0-.1-.53.9.9,0,0,0-.54-.11A.84.84,0,0,0,822.74,439.1Zm.22,57.4c0,.14.14.21.43.21s.43-.18.43-.53-.15-.47-.43-.33A.69.69,0,0,0,823,496.5Zm1.72-23c.28.58.57.86.86.86s.43-.28.43-.86a1.81,1.81,0,0,0-1.08-1.5c-1-.43-1.5-.5-1.5-.22a.38.38,0,0,0,.43.43C824.1,472.2,824.39,472.63,824.68,473.49ZM824,475q-.64.21-.21,1.29c.43.86.86,1.15,1.29.86a.89.89,0,0,0,.21-.65A2.57,2.57,0,0,0,825,475C824.79,474.71,824.46,474.71,824,475Zm.86,26c.43,0,.65-.11.65-.32s-.18-.39-.54-.54-.61-.14-.75,0C823.67,500.73,823.89,501,824.89,501ZM824,480.16a.38.38,0,0,0,.43.43c.29,0,.43-.18.43-.54s-.14-.54-.43-.54S824,479.73,824,480.16Zm.86-34.4a2.6,2.6,0,0,0-.64.43c.14.29.32.43.54.43s.39-.14.53-.43c.14-.14.14-.25,0-.32A1,1,0,0,0,824.89,445.76ZM826,486.82a1.46,1.46,0,0,0-1.51,0c0,.29.29.43.86.43a1,1,0,0,0,.43-.1A.36.36,0,0,0,826,486.82Zm0,3.23c0-.57-.25-.86-.75-.86a.75.75,0,1,0,0,1.5C825.72,490.69,826,490.48,826,490.05ZM827,459.52c.29-1.14-.14-1.72-1.29-1.72-1.43,0-1.58.5-.43,1.51C826.18,460.17,826.75,460.24,827,459.52Zm-.64,33.54a2.05,2.05,0,0,0-1.29.53,1,1,0,0,0-.43,1.19c.28.86,1,.86,2.15,0a1,1,0,0,0,.54-1.08C827.29,493.27,827,493.06,826.4,493.06Zm1.07,7.74a.7.7,0,0,0-1-.11c-.36.21-.47.47-.33.75.29.72.72.79,1.29.22C827.76,501.23,827.76,500.94,827.47,500.8Zm-.86,12.47a1.18,1.18,0,0,0,.86.1.5.5,0,0,0,.43-.53c0-.43-.29-.65-.86-.65C826.18,512.19,826,512.55,826.61,513.27Zm.22-46.66c-.29,0-.43.19-.43.54a.54.54,0,1,0,1.07,0C827.47,466.8,827.26,466.61,826.83,466.61Zm.64-9.67a.69.69,0,0,0-.43.65c0,.71.22.64.65-.22Zm.86,50.74c-.14-.43-.36-.65-.64-.65s-.47.25-.54.75.07.79.43.86a.65.65,0,0,0,.75-.21A.72.72,0,0,0,828.33,507.68ZM827.69,489c-.29-.28-.43-.21-.43.22a3.62,3.62,0,0,0,.21.86l.22.86.21-.86A1.77,1.77,0,0,0,827.69,489Zm.64-48.37c.29-.14.29-.32,0-.53s-.5-.25-.64-.11-.15.32,0,.53S828,440.75,828.33,440.6Zm-.21,23a.7.7,0,0,0,.64-.43c.14-.29,0-.43-.32-.43s-.54.14-.54.43S828,463.61,828.12,463.61Zm1.29,47.08c.71.57,1.21.5,1.5-.22,0-.43-.29-.64-.86-.64a.7.7,0,0,0-.86.21C828.9,510.33,829,510.55,829.41,510.69Zm1.07,2.79c0,.14.14.22.43.22s.43-.11.43-.33-.14-.32-.43-.32A.38.38,0,0,0,830.48,513.48Zm.22-72.66c.14.29.32.43.53.43s.33-.14.33-.43a1,1,0,0,0-.33-.86c-.21-.14-.39-.07-.53.21S830.55,440.68,830.7,440.82Zm1.72-1.94c0-.43-.18-.64-.54-.64a.54.54,0,1,0,0,1.07C832.24,439.31,832.42,439.17,832.42,438.88Zm1.5-.86c0-.28-.18-.43-.54-.43s-.53.11-.53.33.17.32.53.32S833.92,438.17,833.92,438Zm.22,2.58a.69.69,0,0,0-.65-.75c-.43-.07-.64.14-.64.64s.21.72.64.65S834.14,440.89,834.14,440.6Zm2.36,72.24c.14.14.39.1.75-.11a1.06,1.06,0,0,0,.54-1c0-.43-.29-.64-.86-.64-.29,0-.5.21-.64.64A1,1,0,0,0,836.5,512.84Zm5.38,1.07c0-.57-.26-.86-.76-.86s-.75.29-.75.86.14.86.43.86a.6.6,0,0,0,.86-.43A.62.62,0,0,1,841.88,513.91ZM843.17,440c-.43-.14-.69-.18-.76-.11a1.47,1.47,0,0,0-.1.75c0,.43.24.65.75.65s.75-.18.75-.54S843.6,440.1,843.17,440Zm.64,28.16a.61.61,0,0,0-.75-.32c-.36.07-.54.18-.54.32a1,1,0,0,0,.32.86c.22.14.47.07.76-.22S844,468.26,843.81,468.12Zm8.39,2.58a.68.68,0,0,0-.65.43.93.93,0,0,0,0,.86.42.42,0,0,0,.65.21,1.39,1.39,0,0,0,.64-.85A.57.57,0,0,0,852.2,470.7Zm2.15-34c-.58,0-.87.15-.87.43s.18.43.54.43a.76.76,0,0,0,.75-.43c.15-.14.15-.24,0-.32A.94.94,0,0,0,854.35,436.73Zm0,75.25q0,.64,1.5.21l.64-.43c.15-.43.15-.71,0-.86s-.53,0-1.18.32S854.35,511.83,854.35,512Zm1.93-42.36c0,.44,0,.65.11.65s.25-.14.53-.43a1,1,0,0,1,1.51,0,1.76,1.76,0,0,0,.64.22l.22-.22c0-.14-.14-.36-.43-.64-.43-.44-.83-.54-1.18-.33a1,1,0,0,1-1,.11C856.42,468.84,856.28,469.05,856.28,469.62Zm1.93,1.94c.15-.14.15-.25,0-.32a1.19,1.19,0,0,0-.53-.11.62.62,0,0,0-.43.11.4.4,0,0,0-.11.32.79.79,0,0,0,1.07,0Zm.43,39.56.43-.22c-.14-.14-.35-.14-.64,0Zm3.44-43.43c-.86,0-1,.29-.32.86s1,.5,1-.21A.58.58,0,0,0,862.08,467.69Zm.43,3a.71.71,0,0,0-.21-.86c-.29-.29-.43-.22-.43.22S862.23,470.7,862.51,470.7Zm4.73,40.2c.29-.29.22-.5-.21-.64a1.18,1.18,0,0,0-1.18.21c-.36.29-.47.5-.33.65C866,511.83,866.52,511.76,867.24,510.9Zm.43-70.94c-1.15,0-1.79.21-1.93.64a.42.42,0,0,0,.21.65,1.68,1.68,0,0,1,.65.21,3.15,3.15,0,0,0,2.15-.21c1-.72.86-1.15-.43-1.29Zm-.21,73.52c0,.14.14.22.43.22s.43-.11.43-.33-.15-.32-.43-.32A.38.38,0,0,0,867.46,513.48Z"/><path class="cls-2" d="M332.84,527.86a5.36,5.36,0,0,0-5.37-3.41,5,5,0,0,0-3.41,1.59c-1.14,1.06-1.71,1.74-1.71,2.07s-.24.57-.73.73a2.21,2.21,0,0,0-1.22,1.34c-.33.73-.65,1.1-1,1.1s-.73.36-1.22,1.1-.93,1.09-1.34,1.09a.88.88,0,0,0-.85.49c-.16.33-1.46,1.26-3.9,2.81s-4.15,2.56-5.12,3-1.79.78-2.93,1.35a21.24,21.24,0,0,1-4,1.46c-1.55.41-3.14.85-4.76,1.34a19,19,0,0,1-2.35.4l.68-33.3,3,0,2.51,0L297,509.7c-2.35-1.45-4.72-2.89-7.1-4.3s-4.79-2.77-7.25-4.06c2.2,1.69,4.44,3.31,6.71,4.91,1.6,1.12,3.22,2.22,4.84,3.32h-1.08c-1.17,0-2.33,0-3.49,0-2.33,0-4.65,0-7,.08-1.16,0-2.33.06-3.49.1s-2.32.08-3.49.13c-2.32.11-4.65.24-7,.44,2.32.21,4.65.34,7,.44,1.17.06,2.33.11,3.49.14s2.33.08,3.49.09c2.33.06,4.65.08,7,.09h1.72l.21,9.92-16,1.11,16,1.12.26,12.6L275.58,537l16.32,1.14.13,6.37q-2.29.24-6,.48-7.56.48-8.53.24a38.92,38.92,0,0,0-5.61-.73c-.47,0-.9-.1-1.37-.14v-31.7h-1.81a2.3,2.3,0,0,1-1.25-4.23l14-9a2.29,2.29,0,0,1,1.24-.36V479.67l-31.3-1.93,31.3-1.94V465.29h-3.15a.91.91,0,0,1-.91-.91v-8.76a4.06,4.06,0,0,1,4.06-4.06V439.24L257,437.62,282.64,436V404.7l-20.22-2.57,18.78-2.38,15-1.47L282.64,397v-3.43l-22-2.51,13.91-1.59,21.72-2.12L282.64,386v-9.24l-23.73-2.88,17.84-2.17L266,368.5h7.44V352.18H266l16.64-4.95V340s-1.1-.74-3.5-2.66a24.3,24.3,0,0,0,3.5.4V316.43l-4.07,20.7s-18,8.68-18,10.72c0,1.87,3.1,1.95,3.58,1.95h.06v21.67H257v20h-.17c-.63,0-2.75.34-2.75,4.88,0,4.38,3.22,4.76,4.36,4.76h.39L242.24,536.78l-.37-.14a13.08,13.08,0,0,0-3.29-1.22,6.19,6.19,0,0,1-2.32-1,6.06,6.06,0,0,0-2.43-1,11.62,11.62,0,0,1-3.17-1q-6.34-2.68-9.51-3.66a30.11,30.11,0,0,1-3.42-1.22q-2.44-1-6.46-2.19c-2.68-.82-5.21-1.63-7.56-2.44a18.34,18.34,0,0,0-5-1.22c-1,0-1.55-.12-1.71-.37s-1.3-.52-3.41-.85c-1-.33-2.85-.81-5.61-1.47h-1.22c-1.46-.15-2.32-2.19-2.56-6.09s-.37-17.4-.37-40.48V454.7q0-61.69.25-63.16a52.28,52.28,0,0,1,2.19-7.8c.49-1.14.41-1.95-.24-2.44q-1.71-1.21-8.54-1.22a17.59,17.59,0,0,0-5.85.73c-1.79,1-2.19,2.12-1.22,3.42a15.39,15.39,0,0,1,1.71,3.9l.73,2.93v62.18q0,62-.73,63.16t-6.1,2.68a47,47,0,0,0-8.05,3.18c-3.41,1.62-5.45,2.84-6.09,3.65-.49.49-.73,1.55-.73,3.17a5.77,5.77,0,0,0,1,3.66q2.43,2.68,7.32,1a11.9,11.9,0,0,0,3.41-1.47,1.42,1.42,0,0,1,1-.48,11.88,11.88,0,0,0,2.92-1.22q2.44-1.21,10.12-1.1c5.13.08,8.45.33,10,.73s3.13.78,4.76,1.1a61.53,61.53,0,0,1,11.7,3.41,15.1,15.1,0,0,0,3.91,1.22q2.67.74,13.16,4.39l5.49,2.07c1.06.41,2.23.94,3.54,1.59a7.69,7.69,0,0,0,2.68,1,11.9,11.9,0,0,1,3.41,1.22,32.77,32.77,0,0,0,4.39,1.7q1.71.5,6.83,2.2a124.11,124.11,0,0,0,22.92,5.61q13.9,1.94,21.95.24,2.92-.74,6.59-1.34a15.73,15.73,0,0,0,4.14-1,13.56,13.56,0,0,1,3.17-1.09,49.81,49.81,0,0,0,7.08-3,26.85,26.85,0,0,0,5.85-3.54c.65-.65,1.13-1,1.46-1s1.26-.61,2.81-1.83,3.08-2.52,4.63-3.91,2.32-2.23,2.32-2.56c0-.16.48-.73,1.46-1.7A6.26,6.26,0,0,0,332.84,527.86Zm-173.64,0c-.48-.16-.65-.36-.48-.61s.56-.36,1.21-.36a2.59,2.59,0,0,1,1,.12c.16.09.24.29.24.61Q160.67,528.6,159.2,527.86Zm8.29-4.63c-.16-.65,0-1.05.49-1.22,1-.32,1.47-.16,1.47.49,0,.33-.29.69-.86,1.1S167.65,523.88,167.49,523.23Zm3.18,2.93a3.37,3.37,0,0,1-2,.36c-.65-.08-1-.36-1-.85s.4-.73,1.22-.73h1C171.56,525.1,171.8,525.51,170.67,526.16ZM179,392.76c0-.32.2-.49.61-.49a.88.88,0,0,1,.85.49.39.39,0,0,1-.24.37,1.41,1.41,0,0,1-.61.12,1.35,1.35,0,0,1-.61-.12C178.79,393.05,178.79,392.93,179,392.76Zm-.25,30.36c0-.08.28-.12.86-.12a.76.76,0,0,1,.85.86c0,.57-.33.85-1,.85-.48,0-.77-.08-.85-.25a1,1,0,0,1-.12-.48A5,5,0,0,0,178.71,423.12ZM179,434a4.9,4.9,0,0,1,1.34,1.34,6.83,6.83,0,0,1,1.1,1.83c0,.81-.82.57-2.44-.74a2.6,2.6,0,0,1-1-1.7A1,1,0,0,1,179,434Zm-1.59-45.36c-.57,0-.85-.25-.85-.73,0-.65.28-1,.85-1a.86.86,0,0,1,0,1.71Zm.85,14.38-.48.25-.25-.25C177.82,402.84,178.06,402.84,178.22,403Zm-.73-10.24q.49.5,0,1.47l-.24,1L177,394a6.7,6.7,0,0,1-.25-1.22C176.76,392.6,177,392.6,177.49,392.76Zm.73,27.07a.5.5,0,0,1-.12.37,1,1,0,0,1-.61.12,1,1,0,0,1-.61-.12.5.5,0,0,1-.12-.37.79.79,0,0,1,.73-.49A.78.78,0,0,1,178.22,419.83Zm-.73,10a1,1,0,0,1,.61.12.51.51,0,0,1,.12.37c-.32.81-.73,1-1.21.49C176.35,430.16,176.52,429.83,177.49,429.83Zm.49,17.31c.32.17.4.37.24.61a.8.8,0,0,1-.73.37.56.56,0,0,1-.61-.37.55.55,0,0,1,.13-.61A1,1,0,0,1,178,447.14Zm-1.22,14.64a2.68,2.68,0,0,1,1.34-1c.73-.32,1.18-.37,1.34-.12s.08.53-.24.85a3.54,3.54,0,0,1-2.19.73C176.68,462.1,176.6,461.94,176.76,461.78Zm3.29-7.32a.82.82,0,0,1,.61.24c.16.17.16.25,0,.25-.16.33-.36.49-.61.49s-.45-.16-.61-.49c-.16,0-.16-.08,0-.25A.84.84,0,0,1,180.05,454.46Zm-.36-7.44c0-.73.08-1.1.24-1.1.33,0,.49.37.49,1.1s-.12,1.1-.37,1.1S179.69,447.75,179.69,447Zm-2.2,57.19a.77.77,0,0,1,.73.49c.16.32,0,.49-.48.49s-.73-.17-.73-.49A.43.43,0,0,1,177.49,504.21Zm1-3.41q.24,0,.24.48c0,.33-.12.49-.36.49S178.14,501.45,178.47,500.8Zm-.25-8.05a2.21,2.21,0,0,1-.24-1V491a1.56,1.56,0,0,1,1.22,1.22c0,.65-.16,1-.49,1C178.55,493.23,178.38,493.08,178.22,492.75Zm1.22,4.63c.49,0,.74.16.74.49s-.25.49-.74.49-.73-.16-.73-.49S179,497.38,179.44,497.38Zm0-11.46c-.48,0-.73-.16-.73-.49s.25-.49.73-.49.74.17.74.49S179.93,485.92,179.44,485.92Zm-.24-10.73a.43.43,0,0,1,.49.49.22.22,0,0,1-.25.24c-.16,0-.32-.12-.48-.37S178.87,475.19,179.2,475.19Zm.73-7.07c-1.14,1.14-1.79,1.38-2,.73,0-.33.28-.57.85-.73s.77-.49.61-1c-.16-.16-.16-.4,0-.73a2.87,2.87,0,0,1,.49-.73.73.73,0,0,1,.49-.25C181.4,466.09,181.23,467,179.93,468.12Zm-3.9-83.4a1.63,1.63,0,0,1,1.22-.49l.49.24.48.25a1.48,1.48,0,0,1-1.09,1c-.57.16-.94.16-1.1,0A.6.6,0,0,1,176,384.72ZM175.3,500.8c-.33,0-.49-.09-.49-.25a.43.43,0,0,1,.49-.49c.32,0,.49.13.49.37S175.62,500.8,175.3,500.8Zm.85-12.69q-.36,0-.36-.48c0-.33.12-.49.36-.49s.37.16.37.49S176.4,488.11,176.15,488.11ZM176,451.29a3.28,3.28,0,0,1-.24-1.71v-1.22l.48,1.47a7,7,0,0,1,.25,1.46C176.52,451.62,176.35,451.62,176,451.29Zm1-51.7a.48.48,0,0,1,.24.73c-.49.65-.73.49-.73-.49C176.52,399.51,176.68,399.43,177,399.59ZM178.1,522.5a.81.81,0,0,1-.85,0c-.49-.16-.69-.81-.61-2s.28-1.71.61-1.71c.49,0,.89.9,1.22,2.68A1.09,1.09,0,0,1,178.1,522.5Zm.37-8.29c-.33,0-.73-.33-1.22-1s-.65-1.05-.49-1.22.49-.08,1,.25a2.38,2.38,0,0,1,1,1.22C178.71,514,178.63,514.21,178.47,514.21Zm.24,1.22a.49.49,0,1,1,.49.48C178.87,515.91,178.71,515.76,178.71,515.43Zm.49,1.46c0-.49.16-.73.49-.73a.64.64,0,0,1,.73.73c0,.49-.21.73-.61.73S179.2,517.38,179.2,516.89Zm2,4.39c-.65.33-1,.16-1-.49a.64.64,0,0,1,.73-.73,1,1,0,0,1,.61.12.53.53,0,0,1,.12.37A.78.78,0,0,1,181.15,521.28Zm.25-133.64a.43.43,0,0,1-.49-.49c0-.48.16-.73.49-.73s.48.21.48.61S181.72,387.64,181.4,387.64Zm1.34,135.84c-.25,0-.45-.21-.61-.61s-.17-.69,0-.86c.64-.65,1-.4,1,.73C183.1,523.23,183,523.48,182.74,523.48Zm7.8,3.41a.69.69,0,0,1-.37-.24c-.16-.33-.12-.49.13-.49a.32.32,0,0,1,.36.36C190.66,526.77,190.62,526.89,190.54,526.89Zm5.85,1.71a.33.33,0,0,1-.36-.37c0-.24-.33-.49-1-.73s-.73-.45-.24-.61c1.3,0,1.95.49,1.95,1.46C196.76,528.52,196.64,528.6,196.39,528.6Zm7,.73c-.48.65-1.46.73-2.92.24-.49,0-.7-.16-.61-.49s.36-.56.85-.73a1.49,1.49,0,0,0,1-1c.16-.49.56-.65,1.22-.49Q205.05,527.13,203.34,529.33Zm4.51-.49a1.6,1.6,0,0,1-1.09.73,1,1,0,0,1-.49-1,1.19,1.19,0,0,1,.61-1.1.82.82,0,0,1,1.1.12C208.3,528,208.26,528.35,207.85,528.84Zm2.2,1.22c-.24,0-.37-.16-.37-.49s.13-.49.37-.49.37.17.37.49S210.29,530.06,210.05,530.06Zm7.32,2.07c.08-.24.36-.36.85-.36s.73.08.73.24c0,.65-.33.9-1,.73C217.49,532.58,217.28,532.38,217.37,532.13Zm-3.3-1.34c-.48.82-1.06.82-1.7,0a1.49,1.49,0,0,1-.49-1.1c0-.4.16-.61.49-.61a1.91,1.91,0,0,1,1.34.61C214.11,530.1,214.23,530.47,214.07,530.79Zm5.61,4.39a2.56,2.56,0,0,1-1.46.24c-.82,0-1.22-.28-1.22-.85s.4-.85,1.22-.85C220.17,533.72,220.66,534.2,219.68,535.18Zm2.68.37c-.48.08-.73-.21-.73-.86s.25-.93.73-.85a.78.78,0,0,1,.74.85A.79.79,0,0,1,222.36,535.55Zm3.66,1c-.32.25-.57.21-.73-.12a.89.89,0,0,1,.12-1c.25-.32.49-.28.73.13A.64.64,0,0,1,226,536.52Zm26.33,10.56-.52-.08-.41-.06C252,546.54,252.32,546.58,252.35,547.08Zm2.69-1.17a2.21,2.21,0,0,1-.24,1,1.58,1.58,0,0,1-.5.46l-.58-.08a.93.93,0,0,1-.14-.14,1.61,1.61,0,0,1,.12-1.33H255Zm-3.41,2.2c-.49.16-.77.2-.85.12s-.05-.28.12-.61l.06-.13.77.06h.48A2.21,2.21,0,0,1,251.63,548.11Zm4.88,1.95c-.49,0-.74-.09-.74-.25q1.47-.48,1.47-.12C257.24,549.93,257,550.06,256.51,550.06Zm3.53-1.22a.86.86,0,0,1-.85-.49c-.17-.49,0-.73.61-.73s.85.2.85.61A.54.54,0,0,1,260,548.84Zm24.76-.25c.15-.48.36-.69.6-.61s.37.78.37,2.08C285,549.57,284.63,549.08,284.8,548.59Zm9.26,3.29a5.68,5.68,0,0,1-1.71.13h-.73c-1.3,0-1.62-.33-1-1a3.16,3.16,0,0,0,.49-.73l.48-1c.16-.82.37-1.22.61-1.22s.49.36.73,1.09a16.79,16.79,0,0,0,.86,2.08Q294.3,551.76,294.06,551.88Zm4.64-4.75c-.33,0-.49-.08-.49-.24a1.06,1.06,0,0,1,.49-.86c.32-.24.48-.12.48.37S299,547.13,298.7,547.13Zm6.95,1.46c-.25.17-.45.17-.61,0-.17-.32-.13-.57.12-.73a.44.44,0,1,1,.49.73Zm-.25-3.17c-.41,0-.61-.16-.61-.48s.2-.49.61-.49.61.16.61.49S305.81,545.42,305.4,545.42Zm7.68-3.41a.77.77,0,0,1-.73.49c-.16,0-.24-.16-.24-.49s.2-.49.61-.49S313.24,541.68,313.08,542Zm3.17-1.22a.58.58,0,0,1-.61-.49.71.71,0,0,1,.13-.73c.64-.32,1-.08,1,.73A.43.43,0,0,1,316.25,540.79Zm8.17-9.51c-.24,0-.36-.16-.36-.49,0-.49.12-.73.36-.73s.37.21.37.61S324.67,531.28,324.42,531.28Z"/><path class="cls-2" d="M279.49,464.38q1.58.12,3.15.18c1.05,0,2.1.08,3.15.09h.26v-.27l0-3.42c0-1.15,0-2.29,0-3.43,0-.57,0-1.15,0-1.72a4.61,4.61,0,0,0-.11-.89,3.26,3.26,0,0,0-.33-.85,3.16,3.16,0,0,0-2.95-1.6,3.25,3.25,0,0,1,1.58.54,3.36,3.36,0,0,1,1,1.23,3,3,0,0,1,.25.76,3.62,3.62,0,0,1,0,.81v.42l-4.85.36,4.83.36c0,.2,0,.39,0,.58,0,1.14,0,2.28,0,3.43l0,3.17c-1,0-1.93.06-2.89.08S280.54,464.31,279.49,464.38Z"/><rect class="cls-2" x="300.49" y="352.18" width="0.61" height="16.32"/><path class="cls-2" d="M308.25,388.37c0,.49.07.76.07.76s0-.27.08-.76.1-1.17.14-2c.1-1.65.16-3.86.17-6.07s-.07-4.42-.17-6.07c0-.83-.11-1.52-.14-2s-.08-.76-.08-.76,0,.27-.07.76-.1,1.17-.15,2c-.09,1.65-.16,3.86-.16,6.07s.07,4.42.16,6.07C308.15,387.2,308.22,387.89,308.25,388.37Z"/><rect class="cls-2" x="298.1" y="352.18" width="0.66" height="16.32"/><path class="cls-2" d="M292.61,340.29c1.39.81,3.27,1.85,5.13,2.89s3.74,2.06,5.09,2.92a9.1,9.1,0,0,1,1.53,1.15,1.85,1.85,0,0,1,.32.41l.06.19s0-.07,0-.19a1.56,1.56,0,0,0-.25-.51,7.5,7.5,0,0,0-1.39-1.4,35.27,35.27,0,0,0-5-3.25c-1.89-1-3.83-2-5.31-2.6-.74-.33-1.37-.56-1.81-.74s-.69-.25-.69-.25l.63.39Z"/><rect class="cls-2" x="291.84" y="352.18" width="2.94" height="16.32"/><path class="cls-2" d="M276.51,368.5h12.26V352.18H276.51Zm6.66-1.89a30.59,30.59,0,0,1-1.79-2.64,29.71,29.71,0,0,1-1.5-2.81,13.38,13.38,0,0,1-.57-1.35,14.34,14.34,0,0,1,.94,1.13,30.59,30.59,0,0,1,1.79,2.64,30,30,0,0,1,1.51,2.81,14.59,14.59,0,0,1,.56,1.35A14.34,14.34,0,0,1,283.17,366.61Zm-4-11.33c.22.3.56.72.92,1.24.74,1,1.68,2.47,2.56,3.92s1.7,2.94,2.27,4.08c.3.56.51,1.06.67,1.39s.24.54.24.54l-.36-.46c-.22-.3-.56-.72-.92-1.24-.75-1-1.68-2.46-2.56-3.92s-1.7-2.94-2.27-4.08c-.3-.57-.51-1.06-.68-1.39s-.23-.54-.23-.54Z"/></svg>